<svg viewBox="0 0 2000 1400" xmlns="http://www.w3.org/2000/svg"><rect x="1976" y="653" width="8" height="10" fill-opacity="0.5" fill="#1e40af" rx="0" transform="matrix(-.72709 .63903 -.667 -.78913 3929.827 -437.154)"/><rect x="188" y="1282" width="12" height="31" fill-opacity="0.5" fill="#2563eb" rx="0" transform="matrix(.68687 .64318 -.7362 .76651 903.031 171.4)"/><rect x="288" y="1154" width="8" height="13" fill-opacity="0.5" fill="#1e3a8a" rx="0" transform="matrix(.90852 .48481 -.42365 .87462 599.508 3.94)"/><rect x="1546" y="868" width="10" height="13" fill-opacity="0.5" fill="#2563eb" rx="0" transform="matrix(-.99452 .03498 -.10453 -1.00183 3184.914 1804.797)"/><rect x="1872" y="911" width="11" height="17" fill-opacity="0.5" fill="#1d4ed8" rx="0" transform="matrix(.5592 .81928 -.82904 .57366 1589.915 -1178.948)"/><rect x="811" y="536" width="11" height="28" fill-opacity="0.5" fill="#2563eb" rx="0" transform="matrix(-.2428 .9148 -.98504 -.4073 1673.61 -15.712)"/><rect x="546" y="1083" width="10" height="12" fill-opacity="0.5" fill="#1e40af" rx="0" transform="matrix(.96343 -.15838 .23087 1 0 0)"/><rect x="536" y="902" width="13" height="21" fill-opacity="0.5" fill="#1e3a8a" rx="0" transform="matrix(-.98798 .0872 -.17411 -.9968 1286.167 1793.715)"/><rect x="93" y="91" width="7" height="13" fill-opacity="0.5" fill="#1e40af" rx="0" transform="matrix(-.79852 .3473 -.68548 -.95419 262.65 174.035)"/><rect x="972" y="575" width="8" height="21" fill-opacity="0.5" fill="#1e3a8a" rx="0" transform="matrix(.2443 .92718 -.97983 .3746 1228.968 -538.764)"/><rect x="769" y="102" width="7" height="15" fill-opacity="0.5" fill="#1e3a8a" rx="0" transform="matrix(.4707 .9148 -.88357 .4073 514.116 -682.266)"/><rect x="1401" y="315" width="11" height="11" fill-opacity="0.5" fill="#1e3a8a" rx="0" transform="matrix(1.03067 .2808 .03308 .97925 19.178 -114.895)"/><rect x="1538" y="1092" width="10" height="13" fill-opacity="0.5" fill="#1e40af" rx="0" transform="matrix(-.8615 .2808 -.55691 -.97925 3631.036 2040.87)"/><rect x="1722" y="1081" width="9" height="23" fill-opacity="0.5" fill="#1d4ed8" rx="0" transform="matrix(1.00745 .0349 .19583 .9994 25.422 -59.588)"/><rect x="52" y="481" width="8" height="11" fill-opacity="0.5" fill="#1e40af" rx="0" transform="matrix(-.58858 .54764 -.91969 -.84329 705.93 871.979)"/><rect x="1760" y="468" width="13" height="28" fill-opacity="0.5" fill="#1e40af" rx="0" transform="matrix(-.9205 .50375 -.39073 -.87253 3580.904 -204.223)"/><rect x="1557" y="217" width="13" height="24" fill-opacity="0.5" fill="#2563eb" rx="0" transform="matrix(.93027 .35974 -.35638 .93715 198.706 -684.844)"/><rect x="707" y="394" width="11" height="23" fill-opacity="0.5" fill="#2563eb" rx="0" transform="matrix(-.27322 .94328 -.96069 -.34333 1351.077 -189.705)"/><rect x="812" y="1046" width="12" height="35" fill-opacity="0.5" fill="#1e3a8a" rx="0" transform="matrix(.3012 .9761 -.93813 .27989 1399.591 111.63)"/><rect x="1821" y="425" width="7" height="7" fill-opacity="0.5" fill="#1e40af" rx="0" transform="matrix(.39842 1 -.944 .14054 1586.183 -1199.805)"/><rect x="1542" y="133" width="7" height="20" fill-opacity="0.5" fill="#2563eb" rx="0" transform="matrix(.79851 .6019 -.60173 .79876 394.482 -874.492)"/><rect x="386" y="1209" width="13" height="23" fill-opacity="0.5" fill="#2563eb" rx="0" transform="matrix(-.83709 .57498 -.54371 -.82115 1426.322 1969.592)"/><rect x="500" y="1025" width="9" height="24" fill-opacity="0.5" fill="#1e3a8a" rx="0" transform="matrix(-.8883 .12814 -.56929 -1.04362 1711.78 2218.514)"/><rect x="1210" y="544" width="9" height="14" fill-opacity="0.5" fill="#1e40af" rx="0" transform="matrix(.8276 .8574 -.62885 .5568 669.587 -538.971)"/><rect x="1173" y="1058" width="12" height="16" fill-opacity="0.5" fill="#1e40af" rx="0" transform="matrix(-.72008 .42914 -.78604 -.92029 3159.993 1748.964)"/><rect x="352" y="1285" width="12" height="19" fill-opacity="0.5" fill="#2563eb" rx="0" transform="matrix(.58435 .89657 -.80466 .47671 1143.022 419.547)"/><rect x="96" y="212" width="10" height="14" fill-opacity="0.5" fill="#2563eb" rx="0" transform="matrix(.5135 .85926 -.85525 .5163 220.63 26.209)"/><rect x="1873" y="1138" width="9" height="13" fill-opacity="0.5" fill="#2563eb" rx="0" transform="matrix(.95616 .37667 -.28825 .9323 596.316 -827.038)"/><rect x="1109" y="1191" width="12" height="28" fill-opacity="0.5" fill="#1e40af" rx="0" transform="matrix(.19886 1.01865 -.95727 .12508 1841.256 175.903)"/><rect x="510" y="777" width="8" height="8" fill-opacity="0.5" fill="#2563eb" rx="0" transform="matrix(.71512 1.04733 -.8543 .1472 1052.495 304.7)"/><rect x="1802" y="269" width="13" height="24" fill-opacity="0.5" fill="#1e3a8a" rx="0" transform="matrix(.90294 .84465 -.5035 .6365 396.092 -802.693)"/><rect x="1974" y="1219" width="11" height="17" fill-opacity="0.5" fill="#2563eb" rx="0" transform="matrix(-.83658 .36189 -.5839 -.94276 4510.506 1946.572)"/><rect x="214" y="918" width="12" height="33" fill-opacity="0.5" fill="#1d4ed8" rx="0" transform="matrix(-.98117 .47409 -.26401 -.89162 603.524 1632.506)"/><rect x="1772" y="617" width="8" height="10" fill-opacity="0.5" fill="#1e40af" rx="0" transform="matrix(.5117 .94682 -.87998 .32601 1546.433 -1355.403)"/><rect x="434" y="113" width="13" height="22" fill-opacity="0.5" fill="#1e3a8a" rx="0" transform="matrix(-.43103 .63738 -1.01723 -.8158 821.357 62.426)"/><rect x="169" y="1208" width="12" height="16" fill-opacity="0.5" fill="#1d4ed8" rx="0" transform="matrix(-.88504 .36284 -.45046 -.94522 812.465 2329.606)"/><rect x="1866" y="387" width="13" height="38" fill-opacity="0.5" fill="#2563eb" rx="0" transform="matrix(.87041 .37928 -.48226 .93874 442.271 -981.898)"/><rect x="696" y="575" width="12" height="22" fill-opacity="0.5" fill="#2563eb" rx="0" transform="matrix(.65392 .99418 -.7807 .34232 743.102 -84.42)"/><rect x="36" y="116" width="12" height="23" fill-opacity="0.5" fill="#2563eb" rx="0" transform="matrix(-.76604 .47996 -.64279 -.90267 156.13 231.36)"/><rect x="1245" y="384" width="7" height="16" fill-opacity="0.5" fill="#1e3a8a" rx="0" transform="matrix(.93763 .24494 -.32204 .9824 217.688 -496.645)"/><rect x="1666" y="1220" width="8" height="23" fill-opacity="0.5" fill="#1e40af" rx="0" transform="matrix(.98613 -.05299 .05561 1.01108 107.837 -189.654)"/><rect x="605" y="504" width="8" height="20" fill-opacity="0.5" fill="#1d4ed8" rx="0" transform="matrix(-.16045 .92244 -1.00583 -.4499 1269.484 324.085)"/><rect x="938" y="456" width="10" height="20" fill-opacity="0.5" fill="#2563eb" rx="0" transform="matrix(-.34068 .92945 -.93826 -.37552 1743.542 -301.417)"/><rect x="463" y="729" width="12" height="21" fill-opacity="0.5" fill="#2563eb" rx="0" transform="matrix(.30775 .95419 -.936 .3473 1109.143 -47.538)"/><rect x="892" y="135" width="7" height="12" fill-opacity="0.5" fill="#1e3a8a" rx="0" transform="matrix(1.09753 .80846 -.34815 .65468 98.72 -418.51)"/><rect x="1812" y="1222" width="7" height="17" fill-opacity="0.5" fill="#1e40af" rx="0" transform="matrix(.91163 .56385 -.36973 .86826 495.332 -375.1)"/><rect x="1295" y="398" width="13" height="26" fill-opacity="0.5" fill="#1e40af" rx="0" transform="matrix(.3168 1.00736 -.98717 .01758 1395.562 -747.497)"/><rect x="1256" y="150" width="11" height="11" fill-opacity="0.5" fill="#2563eb" rx="0" transform="matrix(.7933 .86721 -.6951 .50069 432.376 -950.235)"/><rect x="1506" y="812" width="13" height="34" fill-opacity="0.5" fill="#2563eb" rx="0" transform="matrix(-.38916 .83378 -.91661 -.60578 2839.922 447.202)"/><rect x="612" y="1104" width="13" height="30" fill-opacity="0.5" fill="#1d4ed8" rx="0" transform="matrix(-.14054 1 -.9597 -.28675 1597.139 998.72)"/><rect x="1621" y="1034" width="9" height="14" fill-opacity="0.5" fill="#1d4ed8" rx="0" transform="matrix(.71627 .99384 -.7455 .36173 1377.311 -391.338)"/><rect x="850" y="436" width="8" height="18" fill-opacity="0.5" fill="#1d4ed8" rx="0" transform="matrix(-.92088 .22664 -.4235 -.98169 1939.409 583.442)"/><rect x="947" y="74" width="7" height="17" fill-opacity="0.5" fill="#1d4ed8" rx="0" transform="matrix(-.76974 .45427 -.69064 -.89155 1765.829 -242.536)"/><rect x="792" y="579" width="12" height="13" fill-opacity="0.5" fill="#2563eb" rx="0" transform="matrix(.90409 .72033 -.5152 .69561 565.386 -438.423)"/><rect x="400" y="1108" width="7" height="12" fill-opacity="0.5" fill="#1e3a8a" rx="0" transform="matrix(-1.00611 -.0535 -.50797 -1.02094 1788.46 2358.683)"/><rect x="688" y="968" width="10" height="10" fill-opacity="0.5" fill="#2563eb" rx="0" transform="matrix(-.99863 0 -.17529 -1.00137 1679.535 1983.654)"/><rect x="227" y="795" width="11" height="19" fill-opacity="0.5" fill="#1e3a8a" rx="0" transform="matrix(.98295 .01767 -.28005 1.01231 148.575 -50.837)"/><rect x="1304" y="98" width="11" height="30" fill-opacity="0.5" fill="#1e40af" rx="0" transform="matrix(-.78286 .47206 -.64604 -.88781 2400.128 -542.47)"/><rect x="1616" y="1232" width="9" height="24" fill-opacity="0.5" fill="#1d4ed8" rx="0" transform="matrix(-.83894 .32562 -.63463 -.94566 4188.087 1864.455)"/><rect x="837" y="1323" width="9" height="12" fill-opacity="0.5" fill="#1d4ed8" rx="0" transform="matrix(.9417 .32681 -.32496 .94913 358.215 -133.785)"/><rect x="202" y="777" width="8" height="8" fill-opacity="0.5" fill="#1e3a8a" rx="0" transform="matrix(.77715 .5886 -.62932 .81013 537.407 16.245)"/><rect x="1044" y="102" width="8" height="16" fill-opacity="0.5" fill="#1e40af" rx="0" transform="matrix(.85183 .63716 -.51752 .78683 196.15 -810.287)"/><rect x="206" y="420" width="13" height="27" fill-opacity="0.5" fill="#2563eb" rx="0" transform="matrix(.67962 .61576 -.75415 .78813 326.932 -42.712)"/><rect x="1740" y="165" width="8" height="20" fill-opacity="0.5" fill="#1e40af" rx="0" transform="matrix(.9864 -.06993 .19438 1 0 0)"/><rect x="1246" y="135" width="9" height="15" fill-opacity="0.5" fill="#1d4ed8" rx="0" transform="matrix(.7886 .67945 -.59594 .7546 317.514 -594.19)"/><rect x="1871" y="314" width="7" height="12" fill-opacity="0.5" fill="#1e40af" rx="0" transform="matrix(.39796 .83106 -.93485 .56056 1404.483 -1548.282)"/><rect x="1861" y="501" width="13" height="20" fill-opacity="0.5" fill="#1d4ed8" rx="0" transform="matrix(-.12034 .98054 -.99427 -.20842 2660.551 -1344.237)"/><rect x="1225" y="1130" width="10" height="10" fill-opacity="0.5" fill="#1d4ed8" rx="0" transform="matrix(-.3598 .79973 -.9793 -.60264 3083.108 899.79)"/><rect x="770" y="1157" width="13" height="16" fill-opacity="0.5" fill="#1e40af" rx="0" transform="matrix(-.68038 .51117 -.77784 -.88537 2374.31 1964.586)"/><rect x="1467" y="469" width="11" height="31" fill-opacity="0.5" fill="#1e3a8a" rx="0" transform="matrix(-.86291 .64633 -.51883 -.77026 2977.225 -248.791)"/><rect x="1716" y="1092" width="10" height="21" fill-opacity="0.5" fill="#1e40af" rx="0" transform="matrix(.96658 .4027 -.20615 .94868 204.525 -207.366)"/><rect x="1073" y="1382" width="11" height="12" fill-opacity="0.5" fill="#1d4ed8" rx="0" transform="matrix(-1.01088 .10493 .08748 -.99832 1911.347 2566.148)"/><rect x="1387" y="581" width="8" height="11" fill-opacity="0.5" fill="#1e40af" rx="0" transform="matrix(-.94106 .20804 -.37948 -.97874 3011.828 919.727)"/><rect x="1629" y="840" width="12" height="20" fill-opacity="0.5" fill="#2563eb" rx="0" transform="matrix(.16533 1.03465 -.96074 .03613 2023.152 -434.26)"/><rect x="566" y="244" width="11" height="24" fill-opacity="0.5" fill="#1d4ed8" rx="0" transform="matrix(.3746 1.05617 -.92718 .05535 594.771 -164.989)"/><rect x="1522" y="292" width="12" height="15" fill-opacity="0.5" fill="#2563eb" rx="0" transform="matrix(.4073 .93358 -.9148 .35837 1195.332 -1234.342)"/><rect x="1074" y="598" width="11" height="17" fill-opacity="0.5" fill="#1d4ed8" rx="0" transform="matrix(.31438 1.02218 -.9728 .01784 1403.271 -278.315)"/><rect x="1889" y="180" width="13" height="18" fill-opacity="0.5" fill="#1d4ed8" rx="0" transform="matrix(1.0003 .05234 -.01747 .99878 6.6 -65.902)"/><rect x="987" y="114" width="10" height="22" fill-opacity="0.5" fill="#1e3a8a" rx="0" transform="matrix(-.49847 .98776 -.90644 -.20995 1602.067 -968.03)"/><rect x="1010" y="1228" width="9" height="17" fill-opacity="0.5" fill="#1d4ed8" rx="0" transform="matrix(.64787 .84921 -.77273 .53065 1425.54 -228.002)"/><rect x="432" y="295" width="7" height="11" fill-opacity="0.5" fill="#2563eb" rx="0" transform="matrix(-.89923 .23289 -.39893 -1.00874 917.822 618.897)"/><rect x="1865" y="930" width="8" height="19" fill-opacity="0.5" fill="#2563eb" rx="0" transform="matrix(-.694 .40858 -.81251 -.96256 4195.857 1651.596)"/><rect x="1434" y="331" width="9" height="22" fill-opacity="0.5" fill="#1e40af" rx="0" transform="matrix(-.92235 .27716 -.39148 -.96656 2907.789 425.066)"/><rect x="382" y="640" width="10" height="24" fill-opacity="0.5" fill="#1e3a8a" rx="0" transform="matrix(-.92186 .19268 -.44728 -.99127 1122.12 1278.131)"/><rect x="1251" y="804" width="11" height="16" fill-opacity="0.5" fill="#1e3a8a" rx="0" transform="matrix(-.62894 .71916 -.73922 -.74472 2465.077 849.758)"/><rect x="1387" y="318" width="7" height="7" fill-opacity="0.5" fill="#1e3a8a" rx="0" transform="matrix(.99275 -.01767 -.28144 1.01231 86.331 -199.621)"/><rect x="1491" y="910" width="12" height="16" fill-opacity="0.5" fill="#2563eb" rx="0" transform="matrix(-.64278 .49363 -.81692 -.92839 3356.774 1517.697)"/><rect x="1924" y="486" width="9" height="13" fill-opacity="0.5" fill="#2563eb" rx="0" transform="matrix(-.4726 .94199 -.88957 -.34286 3253.027 -1290.12)"/><rect x="711" y="1019" width="12" height="20" fill-opacity="0.5" fill="#1e40af" rx="0" transform="matrix(-.16916 .96656 -.9861 -.27716 2055.681 545.812)"/><rect x="866" y="1174" width="13" height="15" fill-opacity="0.5" fill="#2563eb" rx="0" transform="matrix(-.25848 .96962 -.96208 -.2598 2124.67 718.807)"/><rect x="789" y="1166" width="11" height="22" fill-opacity="0.5" fill="#2563eb" rx="0" transform="matrix(.51114 1.0292 -.94484 .05394 1792.764 493.906)"/><rect x="1533" y="673" width="12" height="34" fill-opacity="0.5" fill="#1d4ed8" rx="0" transform="matrix(-.0038 1.01732 -.98278 -.05332 2083.95 -539.717)"/><rect x="1984" y="429" width="12" height="15" fill-opacity="0.5" fill="#1e3a8a" rx="0" transform="matrix(.89165 .39127 -.4552 .92177 347.908 -640.182)"/><rect x="1553" y="1091" width="8" height="13" fill-opacity="0.5" fill="#1e3a8a" rx="0" transform="matrix(.41412 .98538 -.93434 .19154 2111.04 -510.725)"/><rect x="1138" y="916" width="13" height="22" fill-opacity="0.5" fill="#1e40af" rx="0" transform="matrix(.9113 .54176 -.38746 .867 399.359 -253.474)"/><rect x="906" y="1133" width="13" height="16" fill-opacity="0.5" fill="#1e40af" rx="0" transform="matrix(.63044 .81965 -.7786 .57393 1266.558 -229.916)"/><rect x="585" y="1098" width="8" height="16" fill-opacity="0.5" fill="#1e3a8a" rx="0" transform="matrix(-.66398 .59141 -.70648 -.8768 1623.886 1930.215)"/><rect x="1445" y="1190" width="9" height="24" fill-opacity="0.5" fill="#1e40af" rx="0" transform="matrix(-.80059 .54464 -.60328 -.83867 3419.15 1420.628)"/><rect x="1141" y="1083" width="13" height="25" fill-opacity="0.5" fill="#1e3a8a" rx="0" transform="matrix(.5981 .6625 -.82139 .76213 1279.278 -660.906)"/><rect x="804" y="295" width="12" height="15" fill-opacity="0.5" fill="#1e40af" rx="0" transform="matrix(.48957 .93358 -.88322 .35837 723.131 -562.106)"/><rect x="458" y="978" width="13" height="35" fill-opacity="0.5" fill="#1d4ed8" rx="0" transform="matrix(-.87182 .25917 -.60474 -.96725 1783.271 1862.356)"/><rect x="1210" y="256" width="7" height="13" fill-opacity="0.5" fill="#1e40af" rx="0" transform="matrix(-.93676 .10614 -.50878 -1.00986 2593.813 612.76)"/><rect x="1186" y="185" width="10" height="12" fill-opacity="0.5" fill="#1e40af" rx="0" transform="matrix(-.9066 .44513 -.3877 -.91266 2342.485 -374.842)"/><rect x="1530" y="732" width="7" height="14" fill-opacity="0.5" fill="#1e3a8a" rx="0" transform="matrix(.65857 .69466 -.7576 .71934 1018.797 -857.85)"/><rect x="1421" y="587" width="8" height="8" fill-opacity="0.5" fill="#1d4ed8" rx="0" transform="matrix(.8826 .7659 -.51097 .68962 535.458 -552.67)"/><rect x="1224" y="1156" width="8" height="8" fill-opacity="0.5" fill="#1e3a8a" rx="0" transform="matrix(1.0679 .70948 -.2643 .76083 600.215 -241.68)"/><rect x="1842" y="1276" width="9" height="9" fill-opacity="0.5" fill="#2563eb" rx="0" transform="matrix(-.7645 .50122 -.67099 -.86814 4425.847 1337.53)"/><rect x="954" y="1353" width="13" height="22" fill-opacity="0.5" fill="#1d4ed8" rx="0" transform="matrix(-1.02585 -.2018 -.32223 -1.03819 2684.183 3304.65)"/><rect x="234" y="1126" width="13" height="36" fill-opacity="0.5" fill="#1d4ed8" rx="0" transform="matrix(-1.03478 -.1985 -.28565 -1.02119 1051.929 2428.938)"/><rect x="818" y="776" width="8" height="19" fill-opacity="0.5" fill="#2563eb" rx="0" transform="matrix(.13968 .9601 -.99346 .3306 1476.367 -408.326)"/><rect x="1366" y="408" width="13" height="22" fill-opacity="0.5" fill="#1e40af" rx="0" transform="matrix(.69834 .79235 -.71646 .61905 772.627 -1072.14)"/><rect x="1755" y="950" width="8" height="21" fill-opacity="0.5" fill="#1d4ed8" rx="0" transform="matrix(-.8 .46976 -.62417 -.88349 3909.343 1044.21)"/><rect x="1902" y="489" width="11" height="19" fill-opacity="0.5" fill="#1d4ed8" rx="0" transform="matrix(-.10996 .9707 -.99864 -.27835 2685.521 -1482.453)"/><rect x="1171" y="691" width="12" height="17" fill-opacity="0.5" fill="#2563eb" rx="0" transform="matrix(.56751 .90755 -.83723 .4232 1230.252 -726.4)"/><rect x="1869" y="90" width="10" height="28" fill-opacity="0.5" fill="#1e3a8a" rx="0" transform="matrix(1.06604 .22619 .19647 .97974 -46.402 -224.808)"/><rect x="456" y="170" width="7" height="12" fill-opacity="0.5" fill="#1d4ed8" rx="0" transform="matrix(.97807 -.03544 .21025 1.0148 5.778 -67.345)"/><rect x="708" y="476" width="12" height="30" fill-opacity="0.5" fill="#1d4ed8" rx="0" transform="matrix(1.0183 .20794 -.0183 .9783 84.702 -125.352)"/><rect x="1978" y="814" width="11" height="26" fill-opacity="0.5" fill="#1e3a8a" rx="0" transform="matrix(-.85353 .20063 -.5933 -1.03214 4321.794 1927.115)"/><rect x="1433" y="1388" width="13" height="22" fill-opacity="0.5" fill="#2563eb" rx="0" transform="matrix(-.98558 -.08945 -.0856 -1.0224 2887.25 3290.431)"/><rect x="1162" y="1244" width="10" height="11" fill-opacity="0.5" fill="#1d4ed8" rx="0" transform="matrix(.86445 .6757 -.51986 .75045 881.836 -312.723)"/><rect x="1713" y="786" width="7" height="7" fill-opacity="0.5" fill="#1d4ed8" rx="0" transform="matrix(-.96352 .10467 -.38635 -.99589 3878.452 1486.041)"/><rect x="1245" y="320" width="9" height="16" fill-opacity="0.5" fill="#2563eb" rx="0" transform="matrix(.62294 .87475 -.79788 .48488 782.005 -902.235)"/><rect x="1379" y="305" width="8" height="17" fill-opacity="0.5" fill="#1e3a8a" rx="0" transform="matrix(.2581 1.00492 -.96342 .12339 1318.788 -895.939)"/><rect x="1291" y="833" width="13" height="37" fill-opacity="0.5" fill="#1d4ed8" rx="0" transform="matrix(-.77526 .60328 -.62878 -.80059 2918.773 659.707)"/><rect x="831" y="379" width="7" height="14" fill-opacity="0.5" fill="#1d4ed8" rx="0" transform="matrix(.30252 .99878 -.98537 .05234 1061.922 -482.254)"/><rect x="1677" y="532" width="12" height="13" fill-opacity="0.5" fill="#1e40af" rx="0" transform="matrix(.19023 .97758 -.9755 .24374 1911.359 -1444.671)"/><rect x="314" y="262" width="12" height="19" fill-opacity="0.5" fill="#1e40af" rx="0" transform="matrix(.18933 .95864 -.98526 .29309 475.093 -92.461)"/><rect x="1237" y="393" width="9" height="12" fill-opacity="0.5" fill="#1e3a8a" rx="0" transform="matrix(-.10475 .95164 -1.01679 -.3092 1865.918 -702.438)"/><rect x="1735" y="584" width="9" height="11" fill-opacity="0.5" fill="#2563eb" rx="0" transform="matrix(.69466 .63405 -.71934 .78298 955.193 -1188.576)"/><rect x="204" y="1184" width="13" height="16" fill-opacity="0.5" fill="#1d4ed8" rx="0" transform="matrix(.24565 .99756 -.98526 .06976 1543.406 898.863)"/><rect x="1671" y="708" width="12" height="33" fill-opacity="0.5" fill="#1d4ed8" rx="0" transform="matrix(.13917 1.03018 -.99027 -.14478 2161.056 -417.338)"/><rect x="533" y="495" width="12" height="31" fill-opacity="0.5" fill="#1d4ed8" rx="0" transform="matrix(-1.00149 -.19953 -.14037 -1.02648 1174.045 1306.852)"/><rect x="602" y="934" width="8" height="11" fill-opacity="0.5" fill="#1e40af" rx="0" transform="matrix(-.62807 .7098 -.78076 -.7098 1892.45 1123.203)"/><rect x="321" y="1298" width="12" height="19" fill-opacity="0.5" fill="#1d4ed8" rx="0" transform="matrix(.682 .62334 -.73135 .79783 1060.232 8.71)"/><rect x="112" y="377" width="10" height="22" fill-opacity="0.5" fill="#1d4ed8" rx="0" transform="matrix(-.4092 .769 -.91882 -.7171 528.816 614.277)"/><rect x="1947" y="24" width="9" height="17" fill-opacity="0.5" fill="#1d4ed8" rx="0" transform="matrix(-.82687 .45427 -.57852 -.89155 3594.525 -756.88)"/><rect x="1560" y="442" width="9" height="19" fill-opacity="0.5" fill="#2563eb" rx="0" transform="matrix(-.48184 .82936 -.86836 -.58073 2673.749 -336.048)"/><rect x="1952" y="127" width="11" height="31" fill-opacity="0.5" fill="#1e40af" rx="0" transform="matrix(-.105 .96664 -.99836 -.33284 2315.046 -1286.192)"/><rect x="1677" y="983" width="11" height="26" fill-opacity="0.5" fill="#1d4ed8" rx="0" transform="matrix(.25764 .94893 -.96005 .34538 2245.028 -1181.03)"/><rect x="370" y="294" width="8" height="17" fill-opacity="0.5" fill="#2563eb" rx="0" transform="matrix(.42318 .93073 -.90346 .37604 526.942 -192.063)"/><rect x="1090" y="451" width="10" height="19" fill-opacity="0.5" fill="#1e40af" rx="0" transform="matrix(-.6066 .70754 -.80676 -.70754 2205.19 -26.671)"/><rect x="710" y="1228" width="8" height="20" fill-opacity="0.5" fill="#1e3a8a" rx="0" transform="matrix(.93798 .57498 -.39963 .82115 720.037 -139.192)"/><rect x="1289" y="1103" width="10" height="20" fill-opacity="0.5" fill="#1e40af" rx="0" transform="matrix(-.40664 .92107 -.9131 -.39097 2775.763 401.477)"/><rect x="767" y="863" width="8" height="11" fill-opacity="0.5" fill="#1e40af" rx="0" transform="matrix(.76144 .65967 -.63997 .75887 656.67 -218.148)"/><rect x="1889" y="503" width="13" height="34" fill-opacity="0.5" fill="#1e40af" rx="0" transform="matrix(-.52421 .52881 -.98308 -.91593 3692.723 646.595)"/><rect x="715" y="1265" width="9" height="9" fill-opacity="0.5" fill="#1e40af" rx="0" transform="matrix(.10443 .99405 -.9913 .1397 1966.06 313.977)"/><rect x="806" y="1247" width="7" height="8" fill-opacity="0.5" fill="#1d4ed8" rx="0" transform="matrix(-.74395 .6165 -.66983 -.7891 2272.264 1781.516)"/><rect x="655" y="928" width="10" height="17" fill-opacity="0.5" fill="#1d4ed8" rx="0" transform="matrix(-.55655 .6825 -.82497 -.78512 1780.255 1410.572)"/><rect x="1847" y="505" width="8" height="12" fill-opacity="0.5" fill="#2563eb" rx="0" transform="matrix(.21451 .99589 -1.02668 -.10467 2141.486 -1181.892)"/><rect x="1429" y="419" width="12" height="28" fill-opacity="0.5" fill="#1e3a8a" rx="0" transform="matrix(-1.02918 .29525 -.02071 -.9657 2888.335 225.797)"/><rect x="964" y="1120" width="8" height="15" fill-opacity="0.5" fill="#1d4ed8" rx="0" transform="matrix(-.99342 .22509 -.13971 -.97496 2029.843 1975.083)"/><rect x="462" y="54" width="11" height="15" fill-opacity="0.5" fill="#1e40af" rx="0" transform="matrix(-.54965 .74598 -.8456 -.67169 783.627 -205.038)"/><rect x="368" y="782" width="12" height="31" fill-opacity="0.5" fill="#2563eb" rx="0" transform="matrix(-.25645 .9576 -.93542 -.40648 1088.757 870.766)"/><rect x="1782" y="406" width="12" height="16" fill-opacity="0.5" fill="#1e40af" rx="0" transform="matrix(.76604 .53513 -.64279 .85638 684.427 -1148.637)"/><rect x="237" y="199" width="11" height="14" fill-opacity="0.5" fill="#1e3a8a" rx="0" transform="matrix(-.65298 .67747 -.75087 -.7524 546.992 235.118)"/><rect x="1236" y="1139" width="13" height="15" fill-opacity="0.5" fill="#2563eb" rx="0" transform="matrix(-.88008 .37512 -.48754 -.92846 2979.687 1810.004)"/><rect x="1736" y="782" width="8" height="23" fill-opacity="0.5" fill="#1d4ed8" rx="0" transform="matrix(1.04372 .47671 -.13474 .89657 244.723 -440.6)"/><rect x="1255" y="1119" width="7" height="12" fill-opacity="0.5" fill="#2563eb" rx="0" transform="matrix(-.847 .4073 -.55281 -.9148 3171.482 1575.613)"/><rect x="758" y="1166" width="10" height="23" fill-opacity="0.5" fill="#2563eb" rx="0" transform="matrix(.42383 .94783 -.9091 .32636 1553.075 123.37)"/><rect x="547" y="125" width="7" height="18" fill-opacity="0.5" fill="#2563eb" rx="0" transform="matrix(-.62323 .67169 -.79662 -.74598 1016.274 -87.64)"/><rect x="73" y="356" width="7" height="18" fill-opacity="0.5" fill="#2563eb" rx="0" transform="matrix(-.79365 .3439 -.72725 -.94487 516.71 691.609)"/><rect x="676" y="117" width="8" height="21" fill-opacity="0.5" fill="#1d4ed8" rx="0" transform="matrix(.77003 .55304 -.62245 .8516 236.276 -477.05)"/><rect x="1021" y="1003" width="9" height="10" fill-opacity="0.5" fill="#1e40af" rx="0" transform="matrix(1.01618 .32877 -.09045 .95481 195.676 -147.476)"/><rect x="1189" y="1020" width="9" height="24" fill-opacity="0.5" fill="#1e40af" rx="0" transform="matrix(.99828 .81977 -.43992 .64047 773.323 -265.129)"/><rect x="1336" y="1349" width="10" height="22" fill-opacity="0.5" fill="#1d4ed8" rx="0" transform="matrix(.22581 .99027 -.9781 .13917 2487.378 -157.225)"/><rect x="1243" y="12" width="10" height="18" fill-opacity="0.5" fill="#2563eb" rx="0" transform="matrix(-.06974 .99635 -.99757 -.08717 1355.951 -1242.394)"/><rect x="1286" y="1346" width="13" height="17" fill-opacity="0.5" fill="#1d4ed8" rx="0" transform="matrix(.78712 .87971 -.66378 .52859 1347.968 -200.103)"/><rect x="1810" y="687" width="12" height="27" fill-opacity="0.5" fill="#1d4ed8" rx="0" transform="matrix(-.17477 .94893 -.9902 -.34538 2860.406 -525.59)"/><rect x="1506" y="682" width="7" height="10" fill-opacity="0.5" fill="#1e40af" rx="0" transform="matrix(.79984 .7891 -.64237 .6165 917.753 -1006.784)"/><rect x="121" y="795" width="13" height="31" fill-opacity="0.5" fill="#1e3a8a" rx="0" transform="matrix(.2772 .92275 -.96605 .39169 833.127 366.472)"/><rect x="992" y="705" width="9" height="20" fill-opacity="0.5" fill="#1e40af" rx="0" transform="matrix(-.33435 .85129 -.96577 -.53194 2132.942 334.214)"/><rect x="1977" y="333" width="12" height="35" fill-opacity="0.5" fill="#1e40af" rx="0" transform="matrix(-.61097 .74047 -.78075 -.6905 3421.739 -561.756)"/><rect x="1010" y="273" width="7" height="16" fill-opacity="0.5" fill="#1e40af" rx="0" transform="matrix(-.92391 .19507 -.37321 -1.00356 2046.09 580.72)"/><rect x="710" y="1142" width="13" height="24" fill-opacity="0.5" fill="#1d4ed8" rx="0" transform="matrix(1.00061 .01746 .03503 1 38.961 -25.013)"/><rect x="867" y="116" width="13" height="38" fill-opacity="0.5" fill="#1d4ed8" rx="0" transform="matrix(-1.01036 -.05285 -.35737 -1.00844 1873.358 440.067)"/><rect x="1595" y="575" width="7" height="17" fill-opacity="0.5" fill="#2563eb" rx="0" transform="matrix(-.17718 .84805 -1.05512 -.59381 2694.055 2.7)"/><rect x="138" y="184" width="12" height="20" fill-opacity="0.5" fill="#1e3a8a" rx="0" transform="matrix(.02579 .93828 -1.0778 -.43753 398.818 182.353)"/><rect x="793" y="170" width="9" height="19" fill-opacity="0.5" fill="#1e40af" rx="0" transform="matrix(-.39235 .85834 -.92929 -.51574 1303.972 -454.248)"/><rect x="203" y="505" width="10" height="21" fill-opacity="0.5" fill="#1e3a8a" rx="0" transform="matrix(.01815 .98178 -1.01503 .19084 646.402 209.283)"/><rect x="1008" y="1029" width="8" height="12" fill-opacity="0.5" fill="#1e3a8a" rx="0" transform="matrix(-.23952 .95469 -.96964 -.3102 2407.875 301.37)"/><rect x="134" y="710" width="11" height="13" fill-opacity="0.5" fill="#1e3a8a" rx="0" transform="matrix(-.97276 .22619 -.20759 -.97974 485.337 1372.266)"/><rect x="298" y="38" width="12" height="25" fill-opacity="0.5" fill="#1e3a8a" rx="0" transform="matrix(1.02773 .24565 .05122 .98526 1.767 -20.331)"/><rect x="1819" y="231" width="7" height="20" fill-opacity="0.5" fill="#1e3a8a" rx="0" transform="matrix(-.9514 .1908 -.34628 -.98163 3678.062 129.823)"/><rect x="580" y="180" width="8" height="8" fill-opacity="0.5" fill="#1e3a8a" rx="0" transform="matrix(-.76412 .52992 -.66424 -.84805 1181.607 30.568)"/><rect x="1478" y="1112" width="12" height="33" fill-opacity="0.5" fill="#1e3a8a" rx="0" transform="matrix(.59241 .87475 -.8148 .48488 1679.327 -742.728)"/><rect x="1935" y="990" width="12" height="34" fill-opacity="0.5" fill="#1e40af" rx="0" transform="matrix(.92318 .53857 -.32034 .89633 331.678 -347.55)"/><rect x="278" y="533" width="12" height="12" fill-opacity="0.5" fill="#1e3a8a" rx="0" transform="matrix(-.84068 .37483 -.58707 -.92775 945.886 942.521)"/><rect x="199" y="500" width="12" height="12" fill-opacity="0.5" fill="#1e3a8a" rx="0" transform="matrix(.97197 .64047 -.31728 .81977 205.785 18.684)"/><rect x="1782" y="966" width="11" height="27" fill-opacity="0.5" fill="#1d4ed8" rx="0" transform="matrix(-.20574 .94149 -.97903 -.38039 3342.956 -646.005)"/><rect x="1723" y="468" width="7" height="12" fill-opacity="0.5" fill="#1e3a8a" rx="0" transform="matrix(-1.00751 -.14228 -.14055 -1.0124 3591.4 1566.503)"/><rect x="44" y="443" width="7" height="7" fill-opacity="0.5" fill="#1e40af" rx="0" transform="matrix(.43746 .97564 -.9159 .24325 570.652 286.552)"/><rect x="1641" y="838" width="7" height="7" fill-opacity="0.5" fill="#2563eb" rx="0" transform="matrix(-.91662 .29525 -.3889 -.9657 3441.677 1399.728)"/><rect x="1162" y="949" width="11" height="31" fill-opacity="0.5" fill="#1e40af" rx="0" transform="matrix(.97764 .35409 -.13814 .97284 92.402 -74.37)"/><rect x="1703" y="43" width="10" height="29" fill-opacity="0.5" fill="#1e40af" rx="0" transform="matrix(-.9563 .27568 -.2924 -.9614 3359.138 -387.893)"/><rect x="1185" y="1205" width="10" height="28" fill-opacity="0.5" fill="#1e3a8a" rx="0" transform="matrix(.26672 .88416 -.9892 .47012 1874.498 -468.586)"/><rect x="1141" y="173" width="8" height="8" fill-opacity="0.5" fill="#1e3a8a" rx="0" transform="matrix(.9897 .19375 -.0697 .99677 4.28 -19.38)"/><rect x="121" y="313" width="7" height="18" fill-opacity="0.5" fill="#1d4ed8" rx="0" transform="matrix(-.00135 .98169 -1.01834 -.22664 488.025 288.045)"/><rect x="283" y="620" width="8" height="23" fill-opacity="0.5" fill="#1d4ed8" rx="0" transform="matrix(-.10385 .97624 -.98448 -.37474 913.385 675.714)"/><rect x="825" y="889" width="11" height="24" fill-opacity="0.5" fill="#1d4ed8" rx="0" transform="matrix(.93769 .59879 -.37943 .82416 449.292 -177.427)"/><rect x="1773" y="966" width="12" height="25" fill-opacity="0.5" fill="#1e40af" rx="0" transform="matrix(-.68352 .77726 -.73306 -.62942 3662.63 180.578)"/><rect x="445" y="578" width="7" height="13" fill-opacity="0.5" fill="#1e40af" rx="0" transform="matrix(.4941 .96441 -.85707 .35102 691.794 50.337)"/><rect x="1580" y="26" width="11" height="11" fill-opacity="0.5" fill="#1e40af" rx="0" transform="matrix(.6507 .9323 -.80973 .37667 617.852 -1291.87)"/><rect x="1569" y="1387" width="9" height="9" fill-opacity="0.5" fill="#1e40af" rx="0" transform="matrix(.2398 1 -1.01257 -.0524 3055.9 -191.538)"/><rect x="546" y="844" width="7" height="19" fill-opacity="0.5" fill="#1e40af" rx="0" transform="matrix(-.38467 .83526 -.93777 -.5634 1816.654 807.908)"/><rect x="1693" y="625" width="8" height="20" fill-opacity="0.5" fill="#1d4ed8" rx="0" transform="matrix(-.32247 .82916 -.98853 -.55928 3050.024 -387.328)"/><rect x="1066" y="1003" width="7" height="16" fill-opacity="0.5" fill="#1d4ed8" rx="0" transform="matrix(.9636 .7211 -.45623 .69635 832.134 -389.44)"/><rect x="926" y="240" width="11" height="28" fill-opacity="0.5" fill="#1d4ed8" rx="0" transform="matrix(.06963 .99449 -1.01782 -.17535 1165.627 -496.91)"/><rect x="1928" y="187" width="9" height="24" fill-opacity="0.5" fill="#1d4ed8" rx="0" transform="matrix(.86566 .87971 -.6166 .52859 507.724 -1160.084)"/><rect x="1138" y="1067" width="10" height="13" fill-opacity="0.5" fill="#1d4ed8" rx="0" transform="matrix(-.99082 -.03524 .00154 -1.00921 2144.134 2357.81)"/><rect x="1449" y="850" width="11" height="32" fill-opacity="0.5" fill="#1d4ed8" rx="0" transform="matrix(.9183 .49229 -.37466 .88811 618.057 -875.606)"/><rect x="1323" y="683" width="11" height="22" fill-opacity="0.5" fill="#2563eb" rx="0" transform="matrix(-.76742 .45427 -.6952 -.89155 3028.48 662.85)"/><rect x="1751" y="1052" width="8" height="19" fill-opacity="0.5" fill="#2563eb" rx="0" transform="matrix(-.79661 .39367 -.66353 -.92742 4082.556 1570.558)"/><rect x="91" y="607" width="11" height="13" fill-opacity="0.5" fill="#1d4ed8" rx="0" transform="matrix(.96739 .37829 -.24912 .9363 316.735 -10.984)"/><rect x="1943" y="69" width="9" height="11" fill-opacity="0.5" fill="#1d4ed8" rx="0" transform="matrix(.19106 .98857 -.97787 .17431 1638.187 -2034.11)"/><rect x="872" y="397" width="7" height="7" fill-opacity="0.5" fill="#1d4ed8" rx="0" transform="matrix(-.35791 .74504 -1.00845 -.69476 1724.487 196.648)"/><rect x="1145" y="454" width="13" height="23" fill-opacity="0.5" fill="#2563eb" rx="0" transform="matrix(.7049 .82916 -.73057 .55928 756.796 -729.527)"/><rect x="1579" y="586" width="7" height="20" fill-opacity="0.5" fill="#1e40af" rx="0" transform="matrix(.49301 1.0446 -1.03539 -.16545 1768.205 -413.573)"/><rect x="1787" y="977" width="13" height="35" fill-opacity="0.5" fill="#1e40af" rx="0" transform="matrix(-.69442 .5886 -.74318 -.81013 3931.017 838.525)"/><rect x="565" y="802" width="11" height="19" fill-opacity="0.5" fill="#1d4ed8" rx="0" transform="matrix(.62534 .79235 -.7735 .61905 765.198 -82.936)"/><rect x="1806" y="859" width="7" height="8" fill-opacity="0.5" fill="#1e3a8a" rx="0" transform="matrix(.2417 1.0055 -.99452 0 2462.092 -1146.653)"/><rect x="267" y="775" width="10" height="22" fill-opacity="0.5" fill="#1d4ed8" rx="0" transform="matrix(.7956 .90977 -.72818 .42423 891.068 228.893)"/><rect x="1902" y="760" width="8" height="16" fill-opacity="0.5" fill="#1e3a8a" rx="0" transform="matrix(.8609 .39288 -.51713 .92558 642.458 -892.006)"/><rect x="1741" y="1138" width="8" height="23" fill-opacity="0.5" fill="#1d4ed8" rx="0" transform="matrix(-1.0517 -.16122 -.43766 -1.01793 4628.93 3036.017)"/><rect x="10" y="17" width="12" height="28" fill-opacity="0.5" fill="#1d4ed8" rx="0" transform="matrix(.63258 .8388 -.78138 .54472 32.838 .972)"/><rect x="92" y="1383" width="7" height="10" fill-opacity="0.5" fill="#1e3a8a" rx="0" transform="matrix(.57126 .69635 -.84449 .7211 1018.962 313.938)"/><rect x="284" y="1325" width="11" height="24" fill-opacity="0.5" fill="#2563eb" rx="0" transform="matrix(-.73297 .7318 -.68298 -.68241 1273.26 2047.641)"/><rect x="578" y="252" width="8" height="14" fill-opacity="0.5" fill="#1e40af" rx="0" transform="matrix(.10045 1.03275 -.9753 -.07222 739.837 -167.412)"/><rect x="831" y="91" width="9" height="12" fill-opacity="0.5" fill="#1e3a8a" rx="0" transform="matrix(.82742 .79973 -.62691 .60264 237.504 -585.845)"/><rect x="884" y="58" width="10" height="15" fill-opacity="0.5" fill="#1d4ed8" rx="0" transform="matrix(-.8536 .7718 -.57943 -.64761 1692.712 -687.365)"/><rect x="63" y="550" width="7" height="11" fill-opacity="0.5" fill="#1d4ed8" rx="0" transform="matrix(.9245 .66834 -.43274 .76884 295.136 96.894)"/><rect x="45" y="720" width="13" height="32" fill-opacity="0.5" fill="#1e40af" rx="0" transform="matrix(-.22869 .96573 -.96118 -.31378 951.95 908.13)"/><rect x="25" y="1348" width="9" height="9" fill-opacity="0.5" fill="#1e40af" rx="0" transform="matrix(-.7071 .74416 -.7071 -.67005 1006.722 2235.242)"/><rect x="189" y="284" width="7" height="14" fill-opacity="0.5" fill="#1e3a8a" rx="0" transform="matrix(-.82763 .63279 -.55828 -.78143 519.003 376.351)"/><rect x="201" y="1313" width="8" height="20" fill-opacity="0.5" fill="#1e40af" rx="0" transform="matrix(-.6073 .71406 -.79315 -.71406 1725.606 2092.504)"/><rect x="703" y="35" width="10" height="18" fill-opacity="0.5" fill="#1d4ed8" rx="0" transform="matrix(.98472 .1046 -.19194 .99513 10.824 -49.113)"/><rect x="668" y="868" width="12" height="27" fill-opacity="0.5" fill="#1e40af" rx="0" transform="matrix(-.90825 .15993 -.5183 -1.00975 1905.346 1807.069)"/><rect x="1719" y="165" width="13" height="27" fill-opacity="0.5" fill="#1e40af" rx="0" transform="matrix(-.10511 .88322 -1.07396 -.48957 2219.29 -1015.595)"/><rect x="265" y="1077" width="9" height="21" fill-opacity="0.5" fill="#1d4ed8" rx="0" transform="matrix(-.19862 .8336 -1.06564 -.56227 1844.466 1502.641)"/><rect x="1895" y="812" width="13" height="15" fill-opacity="0.5" fill="#2563eb" rx="0" transform="matrix(.23086 .90755 -.99421 .4232 2163.255 -1352.674)"/><rect x="51" y="72" width="13" height="24" fill-opacity="0.5" fill="#1e40af" rx="0" transform="matrix(-.9716 .26205 -.19009 -.97797 135.887 141.974)"/><rect x="149" y="1250" width="10" height="20" fill-opacity="0.5" fill="#2563eb" rx="0" transform="matrix(.64318 .74314 -.76651 .66913 976.755 302.451)"/><rect x="1923" y="396" width="10" height="28" fill-opacity="0.5" fill="#1d4ed8" rx="0" transform="matrix(-.29758 .84805 -.97081 -.59381 2948.32 -464.97)"/><rect x="733" y="181" width="10" height="23" fill-opacity="0.5" fill="#1e40af" rx="0" transform="matrix(-.92834 .10686 -.52513 -1.01674 1598.464 466.224)"/><rect x="1630" y="1235" width="8" height="20" fill-opacity="0.5" fill="#1d4ed8" rx="0" transform="matrix(.82372 .54873 -.55398 .84497 1087.515 -904.24)"/><rect x="435" y="344" width="13" height="23" fill-opacity="0.5" fill="#2563eb" rx="0" transform="matrix(.98875 .28289 -.08679 .98655 19.845 -18.184)"/><rect x="399" y="223" width="8" height="17" fill-opacity="0.5" fill="#2563eb" rx="0" transform="matrix(-.50033 .58866 -.98421 -.8407 925.54 281.93)"/><rect x="1870" y="1280" width="8" height="12" fill-opacity="0.5" fill="#1e3a8a" rx="0" transform="matrix(-.34039 .97983 -.93571 -.2443 3750.931 -499.408)"/><rect x="845" y="724" width="9" height="25" fill-opacity="0.5" fill="#1d4ed8" rx="0" transform="matrix(.59057 .8656 -.80043 .5201 1079.8 -501.263)"/><rect x="282" y="899" width="10" height="25" fill-opacity="0.5" fill="#1e3a8a" rx="0" transform="matrix(-.01199 .92244 -1.07824 -.4499 1498.989 1123.106)"/><rect x="96" y="680" width="10" height="10" fill-opacity="0.5" fill="#2563eb" rx="0" transform="matrix(.86867 .29398 -.56028 .96157 278.146 -13.985)"/><rect x="1832" y="338" width="8" height="8" fill-opacity="0.5" fill="#1e40af" rx="0" transform="matrix(.87708 .65114 -.41316 .83342 264.59 -506.33)"/><rect x="1580" y="170" width="8" height="23" fill-opacity="0.5" fill="#1d4ed8" rx="0" transform="matrix(.98348 .17389 -.17327 .98616 62.773 -355.938)"/><rect x="255" y="783" width="10" height="25" fill-opacity="0.5" fill="#1e3a8a" rx="0" transform="matrix(.838 .75887 -.58929 .65967 626.538 100.752)"/><rect x="1221" y="1209" width="13" height="38" fill-opacity="0.5" fill="#2563eb" rx="0" transform="matrix(1.07674 .36173 .1938 .99384 18.687 -13.792)"/><rect x="1257" y="241" width="13" height="24" fill-opacity="0.5" fill="#2563eb" rx="0" transform="matrix(.99908 .32801 -.14713 .95262 68.308 -557.596)"/><rect x="1743" y="446" width="12" height="34" fill-opacity="0.5" fill="#2563eb" rx="0" transform="matrix(.94517 .27989 -.27664 .9761 87.964 -170.06)"/><rect x="1183" y="1162" width="8" height="9" fill-opacity="0.5" fill="#2563eb" rx="0" transform="matrix(-.89306 .16055 -.59007 -1.01367 3241.571 2432.413)"/><rect x="526" y="1106" width="7" height="9" fill-opacity="0.5" fill="#1e3a8a" rx="0" transform="matrix(-.59836 .54614 -.87345 -.87401 2035.388 1923.925)"/><rect x="338" y="295" width="9" height="12" fill-opacity="0.5" fill="#1e40af" rx="0" transform="matrix(-.9703 .50069 -.31664 -.86721 725.307 372.597)"/><rect x="711" y="1077" width="7" height="10" fill-opacity="0.5" fill="#1e3a8a" rx="0" transform="matrix(.38987 .90223 -.91821 .44005 1465.043 -101.281)"/><rect x="1491" y="1256" width="9" height="19" fill-opacity="0.5" fill="#2563eb" rx="0" transform="matrix(.84165 .78478 -.59268 .6355 1194.25 -502.196)"/><rect x="1203" y="1228" width="12" height="26" fill-opacity="0.5" fill="#2563eb" rx="0" transform="matrix(-.36921 .6961 -1.02653 -.7731 3295.847 1705.503)"/><rect x="1800" y="1275" width="12" height="18" fill-opacity="0.5" fill="#2563eb" rx="0" transform="matrix(-.72728 .64761 -.67738 -.7718 3883.944 1327.144)"/><rect x="870" y="661" width="13" height="26" fill-opacity="0.5" fill="#1e40af" rx="0" transform="matrix(.34078 .9406 -.93235 .36106 1265.735 -501.403)"/><rect x="1827" y="85" width="11" height="12" fill-opacity="0.5" fill="#1e40af" rx="0" transform="matrix(.6819 .73147 -.73125 .6821 647.332 -1279.495)"/><rect x="639" y="581" width="8" height="21" fill-opacity="0.5" fill="#2563eb" rx="0" transform="matrix(-.13796 1.00844 -.9844 -.05285 1340.241 -116.036)"/><rect x="43" y="1361" width="9" height="25" fill-opacity="0.5" fill="#2563eb" rx="0" transform="matrix(.77345 .53652 -.62608 .85862 918.377 161.178)"/><rect x="439" y="1248" width="11" height="22" fill-opacity="0.5" fill="#1d4ed8" rx="0" transform="matrix(-.25623 .90977 -.9797 -.42423 2118.761 1349.827)"/><rect x="1354" y="1021" width="7" height="17" fill-opacity="0.5" fill="#1e40af" rx="0" transform="matrix(.74882 .7576 -.66903 .65857 1223.335 -795.69)"/><rect x="1249" y="1232" width="13" height="26" fill-opacity="0.5" fill="#2563eb" rx="0" transform="matrix(.83976 .78683 -.5909 .63716 1114.136 -337.288)"/><rect x="1428" y="695" width="10" height="19" fill-opacity="0.5" fill="#1d4ed8" rx="0" transform="matrix(.45501 .94472 -.86538 .401 1245.115 -600.957)"/><rect x="220" y="834" width="13" height="18" fill-opacity="0.5" fill="#1d4ed8" rx="0" transform="matrix(-.28005 1.01231 -.98295 -.01767 1033.725 592.733)"/><rect x="276" y="1104" width="10" height="12" fill-opacity="0.5" fill="#1e40af" rx="0" transform="matrix(-.9029 .39222 -.42247 -.92402 1136.931 2000.864)"/><rect x="1161" y="94" width="11" height="27" fill-opacity="0.5" fill="#1e3a8a" rx="0" transform="matrix(-.4015 .8888 -.8933 -.51315 1684.617 -604.82)"/><rect x="1184" y="1255" width="10" height="10" fill-opacity="0.5" fill="#1d4ed8" rx="0" transform="matrix(.7558 .48957 -.67909 .88322 1050.383 -602.058)"/><rect x="737" y="980" width="7" height="17" fill-opacity="0.5" fill="#1e3a8a" rx="0" transform="matrix(.44222 .97446 -.87394 .33553 1153.623 119.86)"/><rect x="920" y="325" width="9" height="24" fill-opacity="0.5" fill="#1d4ed8" rx="0" transform="matrix(-.46728 .71592 -.9129 -.74136 1713.804 155.47)"/><rect x="51" y="613" width="8" height="18" fill-opacity="0.5" fill="#1e40af" rx="0" transform="matrix(.96585 .32492 -.1051 1 0 0)"/><rect x="1288" y="756" width="12" height="29" fill-opacity="0.5" fill="#2563eb" rx="0" transform="matrix(-.7731 .39804 -.69098 -.93773 2970.425 1229.483)"/><rect x="741" y="82" width="11" height="14" fill-opacity="0.5" fill="#1e3a8a" rx="0" transform="matrix(.47442 .98846 -.8934 .24645 484.125 -525.712)"/><rect x="73" y="284" width="9" height="16" fill-opacity="0.5" fill="#1d4ed8" rx="0" transform="matrix(-.52921 .8121 -.84687 -.59003 360.584 408.131)"/><rect x="318" y="1117" width="13" height="36" fill-opacity="0.5" fill="#1d4ed8" rx="0" transform="matrix(.97599 .10454 -.27941 .99467 146.053 -33.543)"/><rect x="1420" y="506" width="10" height="15" fill-opacity="0.5" fill="#1d4ed8" rx="0" transform="matrix(-.22074 .98776 -.96547 -.20995 2273.782 -986.517)"/><rect x="1567" y="811" width="11" height="16" fill-opacity="0.5" fill="#1e3a8a" rx="0" transform="matrix(-.95856 -.01835 -.42146 -1.0513 3588.3 2219.809)"/><rect x="1758" y="403" width="12" height="14" fill-opacity="0.5" fill="#1e3a8a" rx="0" transform="matrix(-.96236 .19186 -.2612 -.98703 3608.304 290.84)"/><rect x="1972" y="426" width="13" height="38" fill-opacity="0.5" fill="#1e40af" rx="0" transform="matrix(1.10172 .67332 -.2178 .77456 188.67 -775.063)"/><rect x="992" y="1060" width="13" height="15" fill-opacity="0.5" fill="#2563eb" rx="0" transform="matrix(-.59829 .70766 -.79356 -.7328 2398.963 1337.258)"/><rect x="423" y="646" width="9" height="13" fill-opacity="0.5" fill="#2563eb" rx="0" transform="matrix(.30122 .8516 -.97863 .55304 876.626 -147.802)"/><rect x="870" y="1002" width="13" height="34" fill-opacity="0.5" fill="#1e40af" rx="0" transform="matrix(.58356 .74264 -.80238 .69252 1227.937 -492.148)"/><rect x="1006" y="427" width="11" height="11" fill-opacity="0.5" fill="#1e40af" rx="0" transform="matrix(.02824 1.0346 -.96953 -.10874 1300.704 -276.925)"/><rect x="361" y="260" width="10" height="29" fill-opacity="0.5" fill="#2563eb" rx="0" transform="matrix(-.72448 .64761 -.68073 -.7718 858.497 204.392)"/><rect x="937" y="747" width="7" height="11" fill-opacity="0.5" fill="#1e40af" rx="0" transform="matrix(-.80096 .58073 -.5781 -.82936 2002.126 979.383)"/><rect x="1044" y="383" width="7" height="18" fill-opacity="0.5" fill="#2563eb" rx="0" transform="matrix(.45 1.03134 -1.00898 -.09023 1151.897 -372.278)"/><rect x="1675" y="1167" width="8" height="23" fill-opacity="0.5" fill="#1e40af" rx="0" transform="matrix(.98413 -.05314 .03874 1.01404 120.76 -223.366)"/><rect x="1351" y="938" width="12" height="20" fill-opacity="0.5" fill="#1d4ed8" rx="0" transform="matrix(1.11705 .64859 -.16238 .80094 413.06 -353.082)"/><rect x="1366" y="1061" width="10" height="17" fill-opacity="0.5" fill="#1e40af" rx="0" transform="matrix(-.15842 .9974 -1.0277 .15797 2532.708 -659.56)"/><rect x="1096" y="922" width="8" height="20" fill-opacity="0.5" fill="#1d4ed8" rx="0" transform="matrix(-.09141 1.01757 -.9633 -.21629 1900.781 329.68)"/><rect x="33" y="1078" width="8" height="19" fill-opacity="0.5" fill="#1d4ed8" rx="0" transform="matrix(.14132 .95106 -1.00554 .30902 933.545 716.255)"/><rect x="1227" y="100" width="8" height="19" fill-opacity="0.5" fill="#2563eb" rx="0" transform="matrix(.48925 .93372 -.88318 .35842 741.52 -1057.673)"/><rect x="651" y="1010" width="8" height="17" fill-opacity="0.5" fill="#1e40af" rx="0" transform="matrix(.68207 .76792 -.7299 .64436 1071.077 -186.564)"/><rect x="1364" y="77" width="10" height="28" fill-opacity="0.5" fill="#1d4ed8" rx="0" transform="matrix(1.00522 .03498 .20176 1.00183 -26.95 -143.79)"/><rect x="1202" y="177" width="11" height="12" fill-opacity="0.5" fill="#1d4ed8" rx="0" transform="matrix(-.51173 .79235 -.86226 -.61905 1996.156 -787.391)"/><rect x="982" y="771" width="8" height="16" fill-opacity="0.5" fill="#1e40af" rx="0" transform="matrix(.86773 .60513 -.50102 .80303 536.12 -339.59)"/><rect x="1331" y="392" width="11" height="26" fill-opacity="0.5" fill="#1e40af" rx="0" transform="matrix(-.43424 .89099 -.88165 -.49388 2180.495 -325.996)"/><rect x="165" y="1046" width="10" height="15" fill-opacity="0.5" fill="#1e3a8a" rx="0" transform="matrix(.38972 1.0049 -.98152 .0351 1404.9 863.566)"/><rect x="1934" y="758" width="8" height="13" fill-opacity="0.5" fill="#1e40af" rx="0" transform="matrix(-.93815 .34459 -.32446 -.94675 4059.53 582.52)"/><rect x="1577" y="1131" width="9" height="12" fill-opacity="0.5" fill="#1d4ed8" rx="0" transform="matrix(-.32983 .81714 -.95669 -.6617 3248.534 1110.915)"/><rect x="1173" y="928" width="7" height="8" fill-opacity="0.5" fill="#1e3a8a" rx="0" transform="matrix(-.95357 .0535 -.49452 -1.02094 3032.176 2070.64)"/><rect x="98" y="615" width="11" height="11" fill-opacity="0.5" fill="#1e40af" rx="0" transform="matrix(-1.0154 -.10583 -.21182 -1.00692 440.899 1272.64)"/><rect x="704" y="1176" width="9" height="22" fill-opacity="0.5" fill="#1d4ed8" rx="0" transform="matrix(.71826 .9761 -.81854 .27989 1547.405 288.139)"/><rect x="534" y="883" width="9" height="19" fill-opacity="0.5" fill="#1d4ed8" rx="0" transform="matrix(.37437 .99635 -.97091 .08717 1473.433 268.77)"/><rect x="132" y="936" width="11" height="11" fill-opacity="0.5" fill="#1e40af" rx="0" transform="matrix(-.08562 1.00613 -.98942 -.05273 1161.707 835.919)"/><rect x="156" y="625" width="12" height="24" fill-opacity="0.5" fill="#1d4ed8" rx="0" transform="matrix(-.35832 .93372 -.93344 -.35842 803.478 716.88)"/><rect x="1364" y="1312" width="10" height="11" fill-opacity="0.5" fill="#2563eb" rx="0" transform="matrix(-.47944 .68408 -.92935 -.75975 3504.527 1672.952)"/><rect x="1955" y="306" width="10" height="13" fill-opacity="0.5" fill="#1e40af" rx="0" transform="matrix(1.03007 .34223 -.09194 .94027 57.75 -583.656)"/><rect x="1196" y="1034" width="8" height="15" fill-opacity="0.5" fill="#1d4ed8" rx="0" transform="matrix(.88697 .64524 -.49275 .76897 769.34 -428.688)"/><rect x="171" y="159" width="7" height="13" fill-opacity="0.5" fill="#1d4ed8" rx="0" transform="matrix(-.03667 1.00844 -.9897 -.05285 321.362 22.798)"/><rect x="1586" y="416" width="10" height="21" fill-opacity="0.5" fill="#2563eb" rx="0" transform="matrix(1.1166 .52654 -.04084 .87632 80.36 -446.804)"/><rect x="1321" y="429" width="8" height="19" fill-opacity="0.5" fill="#2563eb" rx="0" transform="matrix(-.45867 .68712 -.96348 -.73685 2516.319 13.862)"/><rect x="1932" y="1005" width="9" height="22" fill-opacity="0.5" fill="#1d4ed8" rx="0" transform="matrix(.5599 .79876 -.83004 .6019 1661.287 -1176.132)"/><rect x="199" y="611" width="12" height="18" fill-opacity="0.5" fill="#1d4ed8" rx="0" transform="matrix(-.78895 .76792 -.64022 -.64436 689.306 847.744)"/><rect x="1228" y="988" width="12" height="31" fill-opacity="0.5" fill="#1e40af" rx="0" transform="matrix(-.10971 .867 -1.08486 -.54176 2797.204 739.578)"/><rect x="629" y="585" width="12" height="25" fill-opacity="0.5" fill="#1d4ed8" rx="0" transform="matrix(-.98102 -.26925 .05281 -1.00485 1171.878 1550.956)"/><rect x="1871" y="706" width="12" height="27" fill-opacity="0.5" fill="#2563eb" rx="0" transform="matrix(.37784 .85442 -.93429 .5339 1814.385 -1498.847)"/><rect x="541" y="215" width="7" height="10" fill-opacity="0.5" fill="#2563eb" rx="0" transform="matrix(.87596 .93064 -.68452 .41435 324.006 -272.052)"/><rect x="1057" y="627" width="7" height="17" fill-opacity="0.5" fill="#1e3a8a" rx="0" transform="matrix(-.79623 .51788 -.60582 -.86189 2401.287 522.56)"/><rect x="504" y="772" width="9" height="20" fill-opacity="0.5" fill="#1e3a8a" rx="0" transform="matrix(.77515 .52146 -.62764 .86785 617.396 -242.36)"/><rect x="55" y="34" width="8" height="10" fill-opacity="0.5" fill="#1e3a8a" rx="0" transform="matrix(-1.00873 .19268 -.00039 -.99127 116.92 58)"/><rect x="1151" y="848" width="12" height="14" fill-opacity="0.5" fill="#1d4ed8" rx="0" transform="matrix(-.34202 .97564 -.9397 -.24325 2356.154 -187.439)"/><rect x="1827" y="176" width="7" height="11" fill-opacity="0.5" fill="#2563eb" rx="0" transform="matrix(-.16879 .88537 -1.03202 -.51117 2417.149 -957.313)"/><rect x="705" y="1232" width="8" height="15" fill-opacity="0.5" fill="#1e3a8a" rx="0" transform="matrix(.89836 .45965 -.41243 .90211 802.376 -316.855)"/><rect x="1364" y="545" width="10" height="22" fill-opacity="0.5" fill="#1d4ed8" rx="0" transform="matrix(.99968 .07044 .10007 1.00737 55.957 -292.932)"/><rect x="1851" y="377" width="7" height="9" fill-opacity="0.5" fill="#1e40af" rx="0" transform="matrix(.9979 .6491 -.35133 .77357 286.163 -856.75)"/><rect x="1202" y="1208" width="9" height="17" fill-opacity="0.5" fill="#1e3a8a" rx="0" transform="matrix(-.64688 .54614 -.7958 -.87401 3087.803 1921.627)"/><rect x="25" y="556" width="10" height="19" fill-opacity="0.5" fill="#1e40af" rx="0" transform="matrix(.7168 .63405 -.692 .78298 419.44 100.019)"/><rect x="1930" y="1335" width="12" height="13" fill-opacity="0.5" fill="#1e40af" rx="0" transform="matrix(.48103 .84912 -.8653 .55143 2256.076 -1348.778)"/><rect x="906" y="62" width="7" height="18" fill-opacity="0.5" fill="#2563eb" rx="0" transform="matrix(.0345 1.00986 -.99386 -.10614 940.614 -679.566)"/><rect x="1303" y="526" width="10" height="19" fill-opacity="0.5" fill="#1e40af" rx="0" transform="matrix(.63205 .69561 -.78307 .72033 794.098 -691.546)"/><rect x="1389" y="628" width="13" height="16" fill-opacity="0.5" fill="#1e40af" rx="0" transform="matrix(-.96101 .27835 -.2412 -.9707 2936.228 668.814)"/><rect x="1786" y="56" width="7" height="10" fill-opacity="0.5" fill="#1e3a8a" rx="0" transform="matrix(.66298 .9563 -.83029 .31072 720.495 -1481.16)"/><rect x="973" y="54" width="12" height="24" fill-opacity="0.5" fill="#1d4ed8" rx="0" transform="matrix(-.1525 .89162 -1.04046 -.47409 1240.242 -638.022)"/><rect x="1211" y="1290" width="8" height="17" fill-opacity="0.5" fill="#1e40af" rx="0" transform="matrix(1.0457 .26076 .06768 .97318 164.31 -132.817)"/><rect x="1361" y="744" width="13" height="18" fill-opacity="0.5" fill="#1e3a8a" rx="0" transform="matrix(-.79864 .4027 -.60182 -.94868 2912.8 1257.633)"/><rect x="1601" y="1018" width="10" height="11" fill-opacity="0.5" fill="#1d4ed8" rx="0" transform="matrix(1.00533 .34044 -.01764 .98872 35.926 -44.205)"/><rect x="631" y="759" width="11" height="15" fill-opacity="0.5" fill="#1d4ed8" rx="0" transform="matrix(.99544 .01752 -.05193 1.00367 79.958 -69.648)"/><rect x="745" y="589" width="9" height="15" fill-opacity="0.5" fill="#1e3a8a" rx="0" transform="matrix(-.99249 -.07002 .0878 -1.00137 1371.413 1311.875)"/><rect x="419" y="1015" width="7" height="10" fill-opacity="0.5" fill="#2563eb" rx="0" transform="matrix(-.859 .34232 -.42651 -.99418 1016.412 2026.708)"/><rect x="355" y="1253" width="10" height="28" fill-opacity="0.5" fill="#2563eb" rx="0" transform="matrix(.25933 .9461 -.96768 .32577 1448.886 501.088)"/><rect x="1911" y="413" width="11" height="23" fill-opacity="0.5" fill="#1d4ed8" rx="0" transform="matrix(-1.00156 -.07131 -.3007 -1.01985 4095.398 1401.466)"/><rect x="1587" y="291" width="9" height="25" fill-opacity="0.5" fill="#1e3a8a" rx="0" transform="matrix(1.07343 .47229 -.01064 .92691 34.064 -273.106)"/><rect x="214" y="1249" width="9" height="22" fill-opacity="0.5" fill="#1e3a8a" rx="0" transform="matrix(-.99464 .22842 -.0696 -.9894 544.854 2418.208)"/><rect x="1548" y="882" width="10" height="26" fill-opacity="0.5" fill="#1d4ed8" rx="0" transform="matrix(.57184 .92177 -.84214 .39127 1621.498 -968.08)"/><rect x="1826" y="1282" width="10" height="15" fill-opacity="0.5" fill="#1e3a8a" rx="0" transform="matrix(-.99195 .12194 -.12175 -.99315 3756.992 2410.83)"/><rect x="1136" y="1030" width="13" height="27" fill-opacity="0.5" fill="#2563eb" rx="0" transform="matrix(-.85545 .2018 -.5544 -1.03819 2773.681 2289.684)"/><rect x="1722" y="303" width="10" height="13" fill-opacity="0.5" fill="#1d4ed8" rx="0" transform="matrix(.75844 .99582 -.8151 .24829 885.964 -1088.414)"/><rect x="1683" y="1091" width="8" height="9" fill-opacity="0.5" fill="#2563eb" rx="0" transform="matrix(-.22062 .7659 -1.10702 -.68962 3764.534 979.525)"/><rect x="632" y="786" width="12" height="14" fill-opacity="0.5" fill="#1d4ed8" rx="0" transform="matrix(-.66875 .7318 -.74287 -.68241 1694.154 844.987)"/><rect x="911" y="26" width="7" height="13" fill-opacity="0.5" fill="#1e3a8a" rx="0" transform="matrix(-.43634 .56045 -1.08598 -.89691 1468.443 -135.998)"/><rect x="1430" y="812" width="9" height="12" fill-opacity="0.5" fill="#2563eb" rx="0" transform="matrix(.69466 .82936 -.71934 .58073 1026.433 -619.553)"/><rect x="351" y="418" width="10" height="20" fill-opacity="0.5" fill="#1d4ed8" rx="0" transform="matrix(-.85457 .21861 -.5539 -1.02849 925.788 906.037)"/><rect x="1637" y="764" width="13" height="29" fill-opacity="0.5" fill="#1d4ed8" rx="0" transform="matrix(-.80319 .52298 -.57538 -.87039 3533.318 306.782)"/><rect x="977" y="237" width="8" height="16" fill-opacity="0.5" fill="#1e40af" rx="0" transform="matrix(.15868 1.0081 -1.0257 -.21428 1136.748 -446.85)"/><rect x="576" y="782" width="9" height="22" fill-opacity="0.5" fill="#1e3a8a" rx="0" transform="matrix(.62771 .6905 -.77509 .74047 842.992 -286.97)"/><rect x="1491" y="184" width="7" height="18" fill-opacity="0.5" fill="#1e40af" rx="0" transform="matrix(.0867 .9636 -1.06262 -.27631 1660.98 -1089.28)"/><rect x="1247" y="741" width="11" height="14" fill-opacity="0.5" fill="#1e40af" rx="0" transform="matrix(1.04134 .1397 .25158 .99405 22.23 -60.95)"/><rect x="533" y="1101" width="11" height="28" fill-opacity="0.5" fill="#1e3a8a" rx="0" transform="matrix(.40631 .9148 -.91224 .4073 1393.8 140.025)"/><rect x="1159" y="622" width="9" height="14" fill-opacity="0.5" fill="#1d4ed8" rx="0" transform="matrix(.91979 .7233 -.49432 .69848 563.946 -529.62)"/><rect x="554" y="1287" width="7" height="12" fill-opacity="0.5" fill="#2563eb" rx="0" transform="matrix(.49836 .90374 -.86344 .44079 1348.894 277.822)"/><rect x="1046" y="112" width="7" height="18" fill-opacity="0.5" fill="#1e3a8a" rx="0" transform="matrix(.87362 .45965 -.461 .90211 182.065 -636.782)"/><rect x="967" y="788" width="13" height="26" fill-opacity="0.5" fill="#2563eb" rx="0" transform="matrix(-1.00873 .19268 -.00039 -.99127 1920.997 1270.616)"/><rect x="1701" y="907" width="12" height="16" fill-opacity="0.5" fill="#1e3a8a" rx="0" transform="matrix(.52749 .87944 -.8447 .48748 1522.124 -852.83)"/><rect x="340" y="708" width="10" height="23" fill-opacity="0.5" fill="#1e40af" rx="0" transform="matrix(-.15483 .96828 -.99127 -.25945 1234.247 547.992)"/><rect x="710" y="353" width="9" height="25" fill-opacity="0.5" fill="#2563eb" rx="0" transform="matrix(-.27698 .98496 -.96643 -.17367 1234.749 -287.246)"/><rect x="1212" y="99" width="12" height="27" fill-opacity="0.5" fill="#1d4ed8" rx="0" transform="matrix(.65438 1.01626 -.8568 .19754 610.635 -821.16)"/><rect x="1016" y="818" width="10" height="12" fill-opacity="0.5" fill="#1d4ed8" rx="0" transform="matrix(-.99202 -.14343 -.08671 -1.02058 2086.477 2065.97)"/><rect x="1186" y="433" width="11" height="21" fill-opacity="0.5" fill="#1e40af" rx="0" transform="matrix(.87115 .64047 -.44633 .81977 282.779 -341.532)"/><rect x="854" y="115" width="9" height="13" fill-opacity="0.5" fill="#1e40af" rx="0" transform="skewY(-1)"/><rect x="835" y="193" width="9" height="24" fill-opacity="0.5" fill="#2563eb" rx="0" transform="matrix(-.13461 1.01156 -.9768 -.0885 1159.747 -774.09)"/><rect x="1549" y="195" width="7" height="14" fill-opacity="0.5" fill="#2563eb" rx="0" transform="matrix(.51518 .99832 -.94753 .10493 1053.847 -1233.262)"/><rect x="1415" y="1347" width="13" height="20" fill-opacity="0.5" fill="#1e40af" rx="0" transform="matrix(1.00278 .01746 .15948 1 38.578 -49.625)"/><rect x="389" y="541" width="12" height="32" fill-opacity="0.5" fill="#1e40af" rx="0" transform="matrix(1.08039 .39169 -.00784 .92275 173.915 -84.068)"/><rect x="14" y="903" width="10" height="10" fill-opacity="0.5" fill="#1e40af" rx="0" transform="matrix(-.72772 .61905 -.68394 -.79235 829.95 1613.696)"/><rect x="498" y="565" width="13" height="21" fill-opacity="0.5" fill="#1e3a8a" rx="0" transform="matrix(-.63379 .84818 -.78297 -.53 1215.28 443.803)"/><rect x="399" y="918" width="10" height="27" fill-opacity="0.5" fill="#2563eb" rx="0" transform="matrix(.98739 .40858 -.12133 .96256 99.698 -6.682)"/><rect x="1499" y="319" width="9" height="18" fill-opacity="0.5" fill="#1e3a8a" rx="0" transform="matrix(-.9764 .44166 -.26225 -.90554 3047.511 -223.629)"/><rect x="110" y="175" width="13" height="31" fill-opacity="0.5" fill="#1d4ed8" rx="0" transform="matrix(1.02364 .19375 .10494 .99677 3.169 -1.415)"/><rect x="1042" y="1164" width="13" height="37" fill-opacity="0.5" fill="#1d4ed8" rx="0" transform="matrix(.32092 1.00737 -1.01513 -.07044 2243.972 356.93)"/><rect x="882" y="935" width="13" height="29" fill-opacity="0.5" fill="#2563eb" rx="0" transform="matrix(-.97238 -.07378 -.35112 -1.05504 2195.688 2322.75)"/><rect x="1362" y="634" width="8" height="20" fill-opacity="0.5" fill="#1e40af" rx="0" transform="matrix(-.59657 .51117 -.923 -.88537 3043.251 806.274)"/><rect x="1682" y="1090" width="11" height="31" fill-opacity="0.5" fill="#1e40af" rx="0" transform="matrix(.172 1 -.97888 .12278 2387.62 -510.54)"/><rect x="277" y="1126" width="12" height="24" fill-opacity="0.5" fill="#1d4ed8" rx="0" transform="matrix(.35158 .99197 -.92043 .24733 1126.129 635.968)"/><rect x="1443" y="465" width="10" height="18" fill-opacity="0.5" fill="#1d4ed8" rx="0" transform="matrix(.24752 1.00413 -1.00886 -.05262 1689.51 -802.846)"/><rect x="379" y="413" width="13" height="22" fill-opacity="0.5" fill="#1d4ed8" rx="0" transform="matrix(.54963 .98395 -.88942 .22716 643.683 2.55)"/><rect x="113" y="1358" width="7" height="11" fill-opacity="0.5" fill="#1e40af" rx="0" transform="matrix(.589 .92177 -.83485 .39127 1549.915 716.515)"/><rect x="1533" y="664" width="11" height="31" fill-opacity="0.5" fill="#1d4ed8" rx="0" transform="matrix(.29191 .9323 -.95469 .37667 1747.144 -1172.48)"/><rect x="1824" y="722" width="7" height="16" fill-opacity="0.5" fill="#2563eb" rx="0" transform="matrix(.79064 .58073 -.59283 .82936 869.454 -1226.16)"/><rect x="853" y="1345" width="10" height="13" fill-opacity="0.5" fill="#1e3a8a" rx="0" transform="matrix(.67954 .5922 -.75331 .8151 1184.026 -363.554)"/><rect x="364" y="712" width="8" height="14" fill-opacity="0.5" fill="#1d4ed8" rx="0" transform="matrix(1.05294 .22998 .21252 .99614 11.765 -3.634)"/><rect x="990" y="927" width="9" height="20" fill-opacity="0.5" fill="#1d4ed8" rx="0" transform="matrix(.03396 .98538 -1.02144 -.19154 2061.734 223.521)"/><rect x="1344" y="146" width="10" height="20" fill-opacity="0.5" fill="#1e40af" rx="0" transform="matrix(.65584 .9894 -.8593 .22842 703.858 -976.471)"/><rect x="1124" y="238" width="10" height="19" fill-opacity="0.5" fill="#1d4ed8" rx="0" transform="matrix(.6539 .63086 -.77765 .77904 562.527 -736.498)"/><rect x="448" y="867" width="13" height="33" fill-opacity="0.5" fill="#1e40af" rx="0" transform="matrix(-.90407 .12814 -.44083 -1.04362 1272.877 1894.978)"/><rect x="1536" y="888" width="9" height="13" fill-opacity="0.5" fill="#2563eb" rx="0" transform="matrix(.8539 .91444 -.65848 .46593 1102.688 -575.324)"/><rect x="1581" y="961" width="13" height="19" fill-opacity="0.5" fill="#2563eb" rx="0" transform="matrix(-.9675 .10648 -.18589 -1.01314 3169.368 2093.283)"/><rect x="516" y="182" width="12" height="25" fill-opacity="0.5" fill="#2563eb" rx="0" transform="matrix(-.03429 1.00107 -.99714 -.05246 747.664 -354.355)"/><rect x="205" y="419" width="10" height="24" fill-opacity="0.5" fill="#1e40af" rx="0" transform="matrix(-.2007 .82308 -1.0637 -.62024 822.195 577.834)"/><rect x="1035" y="1151" width="7" height="8" fill-opacity="0.5" fill="#2563eb" rx="0" transform="matrix(.26434 1.0267 -.99713 -.08982 2064.273 451.454)"/><rect x="1120" y="683" width="9" height="24" fill-opacity="0.5" fill="#1e3a8a" rx="0" transform="matrix(.07066 .95689 -1.06666 -.29255 2039.195 -138.43)"/><rect x="433" y="1233" width="8" height="12" fill-opacity="0.5" fill="#1e3a8a" rx="0" transform="matrix(.52894 .87939 -.83177 .50771 1483.402 148.597)"/><rect x="1407" y="659" width="10" height="13" fill-opacity="0.5" fill="#1e40af" rx="0" transform="matrix(-.98043 .13951 -.19164 -.99269 2993.501 1030.404)"/><rect x="313" y="185" width="8" height="13" fill-opacity="0.5" fill="#2563eb" rx="0" transform="matrix(.80112 .84921 -.67697 .53065 248.447 -162.706)"/><rect x="341" y="875" width="10" height="18" fill-opacity="0.5" fill="#1e3a8a" rx="0" transform="matrix(-.98583 -.01772 -.04973 -1.01527 631.728 1848.641)"/><rect x="339" y="782" width="12" height="23" fill-opacity="0.5" fill="#2563eb" rx="0" transform="matrix(.66934 1.01563 -.80526 .27214 864.24 339.262)"/><rect x="339" y="1346" width="10" height="29" fill-opacity="0.5" fill="#1e40af" rx="0" transform="matrix(.71771 .60773 -.69303 .80648 1062.877 5.873)"/><rect x="1202" y="816" width="12" height="25" fill-opacity="0.5" fill="#1d4ed8" rx="0" transform="matrix(.55644 .70883 -.85433 .70883 1139.067 -699.51)"/><rect x="1690" y="210" width="8" height="13" fill-opacity="0.5" fill="#1e40af" rx="0" transform="matrix(.97056 .40698 -.27719 .9141 137.633 -729.99)"/><rect x="1310" y="852" width="12" height="30" fill-opacity="0.5" fill="#1e40af" rx="0" transform="matrix(1.06799 .21112 .28782 .99324 18.088 -39.923)"/><rect x="1239" y="899" width="8" height="8" fill-opacity="0.5" fill="#2563eb" rx="0" transform="matrix(-.20878 .94913 -.9817 -.32681 2424.324 127.09)"/><rect x="152" y="754" width="10" height="21" fill-opacity="0.5" fill="#2563eb" rx="0" transform="matrix(-.97567 .19319 -.15693 -.99386 520.97 1469.112)"/><rect x="908" y="499" width="7" height="18" fill-opacity="0.5" fill="#2563eb" rx="0" transform="matrix(-.15683 .96349 -.98995 -.29457 1568.166 -108.66)"/><rect x="1445" y="209" width="8" height="16" fill-opacity="0.5" fill="#1d4ed8" rx="0" transform="matrix(.68198 .93984 -.8158 .34207 721.268 -1193.76)"/><rect x="1479" y="1128" width="9" height="25" fill-opacity="0.5" fill="#1e3a8a" rx="0" transform="matrix(-.83564 .3473 -.58348 -.95419 3511.3 1975.12)"/><rect x="1653" y="209" width="9" height="24" fill-opacity="0.5" fill="#1d4ed8" rx="0" transform="matrix(-.72777 .43753 -.72488 -.93828 3082.16 147.285)"/><rect x="1267" y="362" width="11" height="30" fill-opacity="0.5" fill="#1d4ed8" rx="0" transform="matrix(-.73044 .5339 -.70407 -.85442 2514.068 175.972)"/><rect x="1625" y="149" width="12" height="14" fill-opacity="0.5" fill="#2563eb" rx="0" transform="matrix(.89043 .77456 -.51702 .67332 315.342 -835.801)"/><rect x="1321" y="1359" width="11" height="32" fill-opacity="0.5" fill="#1e3a8a" rx="0" transform="matrix(-.33913 .86245 -.93074 -.58173 2994.833 1411.207)"/><rect x="1730" y="586" width="13" height="29" fill-opacity="0.5" fill="#2563eb" rx="0" transform="matrix(1.06531 .44697 .04729 .95853 47.996 -153.335)"/><rect x="1391" y="452" width="13" height="37" fill-opacity="0.5" fill="#1e3a8a" rx="0" transform="matrix(-.3386 .85272 -.96114 -.53284 2428.054 -617.358)"/><rect x="200" y="142" width="10" height="13" fill-opacity="0.5" fill="#1e40af" rx="0" transform="matrix(-.20887 .9927 -.98171 -.12189 377.617 -33.324)"/><rect x="189" y="556" width="13" height="25" fill-opacity="0.5" fill="#1d4ed8" rx="0" transform="matrix(-.28961 1 -.94893 -.17633 819.575 438.77)"/><rect x="317" y="821" width="8" height="11" fill-opacity="0.5" fill="#1e3a8a" rx="0" transform="matrix(-.80892 .55953 -.58793 -.82954 1123.596 1321.297)"/><rect x="908" y="112" width="8" height="18" fill-opacity="0.5" fill="#2563eb" rx="0" transform="matrix(.23627 1.00617 -.95644 .15936 780.904 -638.64)"/><rect x="1828" y="1157" width="12" height="21" fill-opacity="0.5" fill="#1e40af" rx="0" transform="matrix(.7938 .769 -.56018 .7171 846.847 -484.135)"/><rect x="399" y="891" width="12" height="35" fill-opacity="0.5" fill="#1e3a8a" rx="0" transform="matrix(.13997 1.01484 -.99762 -.08879 1289.128 656.877)"/><rect x="240" y="518" width="10" height="18" fill-opacity="0.5" fill="#1e3a8a" rx="0" transform="matrix(.96128 .73854 -.4576 .6887 390.625 17.545)"/><rect x="85" y="754" width="13" height="21" fill-opacity="0.5" fill="#2563eb" rx="0" transform="matrix(.5866 .8574 -.78536 .5568 528.057 279.818)"/><rect x="1481" y="1255" width="9" height="9" fill-opacity="0.5" fill="#1e40af" rx="0" transform="matrix(.61315 .7264 -.78452 .70149 1599.459 -911.875)"/><rect x="1013" y="974" width="11" height="23" fill-opacity="0.5" fill="#2563eb" rx="0" transform="matrix(.7537 .87475 -.7254 .48488 1280.174 -401.067)"/><rect x="1601" y="1077" width="13" height="22" fill-opacity="0.5" fill="#1d4ed8" rx="0" transform="matrix(-.3892 .79973 -.95713 -.60264 3523.676 542.35)"/><rect x="798" y="321" width="13" height="28" fill-opacity="0.5" fill="#1e40af" rx="0" transform="matrix(-.77564 .56133 -.63155 -.8322 1686.732 91.815)"/><rect x="574" y="822" width="8" height="21" fill-opacity="0.5" fill="#1d4ed8" rx="0" transform="matrix(-.81385 .28982 -.61216 -1.01073 1611.502 1694.22)"/><rect x="1338" y="1338" width="13" height="17" fill-opacity="0.5" fill="#1d4ed8" rx="0" transform="matrix(-1.05977 -.2199 -.43815 -1.0345 3912.54 3498.06)"/><rect x="1256" y="203" width="7" height="12" fill-opacity="0.5" fill="#1e40af" rx="0" transform="matrix(.10687 1.01295 -.99469 -.07083 1328.287 -1274.094)"/><rect x="1578" y="1211" width="9" height="17" fill-opacity="0.5" fill="#1e40af" rx="0" transform="matrix(.73747 .9305 -.715 .45384 1431.196 -382.439)"/><rect x="119" y="764" width="8" height="8" fill-opacity="0.5" fill="#1e40af" rx="0" transform="matrix(-.9318 .09023 -.43225 -1.03134 639.654 1581.926)"/><rect x="632" y="823" width="12" height="20" fill-opacity="0.5" fill="#1e3a8a" rx="0" transform="matrix(.8189 .82115 -.6444 .57498 854.943 -125.238)"/><rect x="1011" y="219" width="8" height="8" fill-opacity="0.5" fill="#1e3a8a" rx="0" transform="matrix(.75471 .76213 -.65606 .6625 395.27 -555.648)"/><rect x="141" y="470" width="7" height="12" fill-opacity="0.5" fill="#1e40af" rx="0" transform="matrix(-.01724 .98496 -1.01831 .17367 548.22 248.482)"/><rect x="888" y="312" width="7" height="8" fill-opacity="0.5" fill="#1d4ed8" rx="0" transform="matrix(-.5673 .7718 -.81965 -.64761 1700.162 -276.873)"/><rect x="64" y="960" width="10" height="27" fill-opacity="0.5" fill="#1e3a8a" rx="0" transform="matrix(.24223 .98054 -.96836 .20842 1096.799 698.122)"/><rect x="546" y="792" width="13" height="37" fill-opacity="0.5" fill="#2563eb" rx="0" transform="matrix(-.0403 .94577 -1.0394 -.42108 1534.89 777.292)"/><rect x="1168" y="918" width="7" height="15" fill-opacity="0.5" fill="#1e3a8a" rx="0" transform="matrix(-.20977 .94199 -.98524 -.34286 2399.524 221.194)"/><rect x="166" y="386" width="12" height="22" fill-opacity="0.5" fill="#2563eb" rx="0" transform="matrix(.99757 .08717 -.06974 .99635 41.862 -16.545)"/><rect x="1898" y="246" width="12" height="29" fill-opacity="0.5" fill="#1e3a8a" rx="0" transform="matrix(.78512 .8253 -.66193 .57788 651.032 -1227.635)"/><rect x="1281" y="410" width="10" height="11" fill-opacity="0.5" fill="#2563eb" rx="0" transform="matrix(.94298 .6997 -.3819 .7771 274.387 -414.035)"/><rect x="1109" y="1152" width="8" height="22" fill-opacity="0.5" fill="#1e3a8a" rx="0" transform="matrix(-1.0289 .26024 -.0026 -.97125 2095.529 1885.926)"/><rect x="1331" y="609" width="7" height="16" fill-opacity="0.5" fill="#1e40af" rx="0" transform="matrix(.59168 .94027 -.84817 .34223 1221.426 -802.337)"/><rect x="72" y="595" width="9" height="20" fill-opacity="0.5" fill="#1e3a8a" rx="0" transform="matrix(1.06002 .24325 .14059 .97564 86.14 4.17)"/><rect x="1686" y="96" width="9" height="21" fill-opacity="0.5" fill="#1e3a8a" rx="0" transform="matrix(.60485 .73147 -.8031 .6821 736.838 -1173.178)"/><rect x="668" y="1249" width="9" height="26" fill-opacity="0.5" fill="#1d4ed8" rx="0" transform="matrix(.63345 .84497 -.77211 .54873 1493.202 -81.31)"/><rect x="1801" y="723" width="8" height="16" fill-opacity="0.5" fill="#1e40af" rx="0" transform="matrix(.81735 .4551 -.59318 .89318 710.385 -869.588)"/><rect x="1142" y="794" width="12" height="23" fill-opacity="0.5" fill="#1d4ed8" rx="0" transform="matrix(-.91176 .24733 -.38638 -.99197 2450.925 1564.618)"/><rect x="1807" y="1096" width="9" height="16" fill-opacity="0.5" fill="#2563eb" rx="0" transform="matrix(-.8215 .71934 -.59685 -.69466 3763.903 567.819)"/><rect x="866" y="384" width="7" height="20" fill-opacity="0.5" fill="#2563eb" rx="0" transform="matrix(.43807 .90755 -.8976 .4232 866.615 -607.425)"/><rect x="1789" y="970" width="12" height="16" fill-opacity="0.5" fill="#1e3a8a" rx="0" transform="matrix(-.79828 .63018 -.60105 -.77821 3721.94 701.983)"/><rect x="523" y="1368" width="11" height="24" fill-opacity="0.5" fill="#1e40af" rx="0" transform="matrix(.23044 1.01955 -1.02146 -.17977 2030.174 1230.868)"/><rect x="828" y="933" width="11" height="16" fill-opacity="0.5" fill="#1e3a8a" rx="0" transform="matrix(-.26076 .98829 -.97055 -.15653 1827.793 293.661)"/><rect x="800" y="627" width="13" height="36" fill-opacity="0.5" fill="#1e3a8a" rx="0" transform="matrix(-.9098 .24207 -.482 -.97089 1994.24 1104.157)"/><rect x="1278" y="673" width="12" height="24" fill-opacity="0.5" fill="#1e40af" rx="0" transform="matrix(.90853 .22842 -.44258 .9894 396.578 -512.437)"/><rect x="1924" y="94" width="9" height="11" fill-opacity="0.5" fill="#1e40af" rx="0" transform="matrix(1.05228 .60092 -.21579 .8271 38.26 -731.748)"/><rect x="1869" y="276" width="11" height="14" fill-opacity="0.5" fill="#1e40af" rx="0" transform="matrix(-.37396 .92846 -.92597 -.37512 2847.22 -1449.47)"/><rect x="124" y="1244" width="13" height="20" fill-opacity="0.5" fill="#1e40af" rx="0" transform="matrix(.5875 1.01156 -.93717 .0885 1643.97 1034.022)"/><rect x="63" y="1388" width="11" height="27" fill-opacity="0.5" fill="#1d4ed8" rx="0" transform="matrix(.84606 .57674 -.5256 .82366 968.014 200.429)"/><rect x="1582" y="679" width="12" height="20" fill-opacity="0.5" fill="#1d4ed8" rx="0" transform="matrix(-.29794 1.01231 -.98264 -.01767 2684.457 -1157.89)"/><rect x="414" y="1153" width="7" height="12" fill-opacity="0.5" fill="#1e3a8a" rx="0" transform="matrix(.86858 .42288 -.50208 .90686 492.68 -54.022)"/><rect x="1717" y="1218" width="11" height="16" fill-opacity="0.5" fill="#1e3a8a" rx="0" transform="matrix(1.04421 .81018 -.35809 .67983 782.832 -409.904)"/><rect x="1737" y="64" width="11" height="32" fill-opacity="0.5" fill="#1d4ed8" rx="0" transform="matrix(.42026 .91 -.89393 .44384 1054.161 -1817.163)"/><rect x="1233" y="890" width="9" height="16" fill-opacity="0.5" fill="#1e40af" rx="0" transform="matrix(.94547 .29255 -.32573 .95689 294.173 -280.101)"/><rect x="754" y="245" width="10" height="17" fill-opacity="0.5" fill="#1e3a8a" rx="0" transform="matrix(.97702 .12194 -.24332 .99315 59.265 -117.324)"/><rect x="1584" y="422" width="8" height="21" fill-opacity="0.5" fill="#1d4ed8" rx="0" transform="matrix(.23245 1.0023 -.96916 .12307 1690.224 -1435.558)"/><rect x="1040" y="1231" width="10" height="20" fill-opacity="0.5" fill="#1d4ed8" rx="0" transform="matrix(.9817 .32681 -.20878 .94913 324.737 -186.963)"/><rect x="1630" y="93" width="12" height="25" fill-opacity="0.5" fill="#1e40af" rx="0" transform="matrix(-.36581 .82936 -.9496 -.58073 2366.55 -930.954)"/><rect x="1691" y="116" width="9" height="26" fill-opacity="0.5" fill="#1e3a8a" rx="0" transform="matrix(-.6113 .67332 -.78197 -.77456 2814.656 -521.252)"/><rect x="1087" y="586" width="8" height="13" fill-opacity="0.5" fill="#1e3a8a" rx="0" transform="matrix(-.89644 .6846 -.49938 -.73415 2286.177 185.13)"/><rect x="252" y="428" width="13" height="18" fill-opacity="0.5" fill="#1e40af" rx="0" transform="matrix(-.34437 .9922 -.94714 -.17495 740.18 225.23)"/><rect x="736" y="796" width="12" height="17" fill-opacity="0.5" fill="#1d4ed8" rx="0" transform="matrix(.49276 .97675 -.91004 .2255 1367.65 -153.549)"/><rect x="717" y="906" width="7" height="11" fill-opacity="0.5" fill="#2563eb" rx="0" transform="matrix(1.07478 .27989 .17536 .9761 84.078 -52.823)"/><rect x="596" y="550" width="8" height="17" fill-opacity="0.5" fill="#1e3a8a" rx="0" transform="matrix(-.92375 .10648 -.60212 -1.01314 1696.94 1177.074)"/><rect x="1019" y="334" width="8" height="12" fill-opacity="0.5" fill="#1e40af" rx="0" transform="matrix(.24745 1.03018 -1.00549 -.14478 1178.292 -371.303)"/><rect x="813" y="534" width="10" height="20" fill-opacity="0.5" fill="#1e40af" rx="0" transform="matrix(-.9732 -.10773 .02317 -1.02497 1483.016 1393.655)"/><rect x="1431" y="938" width="9" height="12" fill-opacity="0.5" fill="#1d4ed8" rx="0" transform="matrix(-.91432 .34628 -.37574 -.9514 3242.004 1117.676)"/><rect x="1250" y="428" width="8" height="11" fill-opacity="0.5" fill="#1e3a8a" rx="0" transform="matrix(-.97117 .07014 -.36862 -1.00306 2741.533 912.17)"/><rect x="188" y="529" width="10" height="18" fill-opacity="0.5" fill="#1e3a8a" rx="0" transform="matrix(-.73314 .73135 -.68366 -.682 664.686 763.764)"/><rect x="1064" y="300" width="11" height="24" fill-opacity="0.5" fill="#1e40af" rx="0" transform="matrix(.2786 .98721 -.96383 .17407 1114.078 -872.921)"/><rect x="1893" y="320" width="9" height="26" fill-opacity="0.5" fill="#1d4ed8" rx="0" transform="matrix(.08741 1.00046 -1.00107 -.01746 2092.912 -1493.29)"/><rect x="1221" y="1224" width="12" height="21" fill-opacity="0.5" fill="#1d4ed8" rx="0" transform="matrix(-.8566 .37667 -.53466 -.9323 3033.443 2052.202)"/><rect x="901" y="585" width="12" height="28" fill-opacity="0.5" fill="#1e3a8a" rx="0" transform="matrix(.77397 .74416 -.6469 .67005 699.696 -524.85)"/><rect x="603" y="840" width="9" height="15" fill-opacity="0.5" fill="#1e3a8a" rx="0" transform="matrix(-.94128 .01835 -.56828 -1.0513 1902.178 1924.72)"/><rect x="453" y="73" width="12" height="21" fill-opacity="0.5" fill="#1e3a8a" rx="0" transform="matrix(.0529 .98083 -1.00537 .26281 518.576 -469.578)"/><rect x="1327" y="672" width="10" height="13" fill-opacity="0.5" fill="#1e40af" rx="0" transform="matrix(.98327 .19186 -.15365 .98703 202.22 -386.76)"/></svg>