<svg xmlns="http://www.w3.org/2000/svg" width="2465" height="2038" fill="none"><path fill="#1E40AF" fill-opacity=".4" d="m2216.6 523.468 5.81-5.113-6.67-7.891-5.81 5.112z"/><path fill="#2563EB" fill-opacity="0" d="m261.465 1490.79-8.242-7.72-22.823 23.76 8.243 7.72z"/><path fill="#1E3A8A" fill-opacity=".4" d="m544.407 1364.84-7.268-3.88-5.508 11.37 7.268 3.88z"/><path fill="#2563EB" fill-opacity="0" d="m1711.58 1197.72 9.94-.34-1.36-13.03-9.94.35z"/><path fill="#1D4ED8" fill-opacity="1" d="m2052.5 1094.45-6.15-9.01-14.09 9.75 6.15 9.01z"/><path fill="#2563EB" fill-opacity="0" d="m1110.92 726.028 2.67-10.063L1086 704.56l-2.67 10.063z"/><path fill="#1E40AF" fill-opacity=".4" d="m950.568 1203.03-9.634 1.58 2.77 12 9.634-1.58z"/><path fill="#1E3A8A" fill-opacity=".4" d="m751.588 1150.56 12.844-1.13-3.657-20.94-12.843 1.14z"/><path fill="#1E40AF" fill-opacity=".4" d="m285.287 330.021 5.59-2.431-8.911-12.405-5.59 2.431z"/><path fill="#1E3A8A" fill-opacity=".4" d="m1069.85 793.355-1.96-7.417-20.57 7.866 1.95 7.418zM954.123 277.251l-3.295-6.403-13.253 6.109 3.294 6.404zM1649.77 798.145l-11.33-3.088.36 10.771 11.34 3.089z"/><path fill="#1E40AF" fill-opacity=".4" d="m1854.16 1614.29 8.61-2.8-7.24-12.73-8.61 2.8z"/><path fill="#1D4ED8" fill-opacity="1" d="m2145.88 1289.26-9.07-.31 4.51 22.99 9.06.31z"/><path fill="#1E40AF" fill-opacity=".4" d="m393.114 707.303 4.708-4.381-10.116-9.276-4.709 4.381zM1930.87 488.67l11.96-6.549-10.94-24.431-11.96 6.549z"/><path fill="#2563EB" fill-opacity="0" d="m1746.76 291.397-12.09-4.676-8.55 22.491 12.09 4.677zM941.262 560.386l3.006-10.376-22.096-7.897-3.006 10.376z"/><path fill="#1E3A8A" fill-opacity=".4" d="m831.364 1416.79-3.614-11.71-32.835 9.79 3.615 11.72z"/><path fill="#1E40AF" fill-opacity=".4" d="m2078.16 896.012-2.78-7-6.61.983 2.79 7z"/><path fill="#2563EB" fill-opacity="0" d="m1716.21 372.174-5.59-4.213-12.03 15.975 5.59 4.213zM599.846 1414.33l10.883-7.48-12.506-18.88-10.882 7.47z"/><path fill="#1E3A8A" fill-opacity=".4" d="m840.982 1422.11 7.995-1.15-13.663-25.05-7.995 1.16z"/><path fill="#1E40AF" fill-opacity=".4" d="m1501.21 1017.19-7.45-7.72-8.81 7.79 7.45 7.72zM1639.94 1491.92l8.64-5.15-12.58-14.73-8.64 5.15z"/><path fill="#2563EB" fill-opacity="0" d="m486.606 1566.56-7.012-10.76-15.289 9.06 7.012 10.76zM258.617 434.833l-5.135-8.593-11.973 7.228 5.135 8.593zM2232.65 1150.9l-8.61-3.39-3.74 12.12 8.6 3.39z"/><path fill="#1E40AF" fill-opacity=".4" d="m1088.94 1674.87-2.39-12.23-26.8 3.5 2.39 12.23z"/><path fill="#2563EB" fill-opacity="0" d="m924.004 1169.68-5.721-8.38-6.834 1.18 5.721 8.38z"/><path fill="#1E3A8A" fill-opacity=".4" d="m2064.36 1109.65-11.74-10.98-12.09 15.28 11.74 10.98z"/><path fill="#2563EB" fill-opacity="0" d="m2302.99 1723.79 9.2-3.99-9.92-16.02-9.21 3.98z"/><path fill="#1D4ED8" fill-opacity="1" d="m304.287 1129.23 11.774-5.69-8.713-29.42-11.774 5.69z"/><path fill="#1E40AF" fill-opacity=".4" d="m2079.18 739.172-4.09-7.574-8.8 3.26 4.09 7.574z"/><path fill="#1E3A8A" fill-opacity=".4" d="m678.608 463.237 5.603-8.286-22.379-17.947-5.604 8.286z"/><path fill="#1D4ED8" fill-opacity="1" d="m272.985 1461.54 10.62-4.35-7.207-15.13-10.62 4.36z"/><path fill="#2563EB" fill-opacity="0" d="m2056 302.149-11.31-4.93-18.33 35.672 11.32 4.931zM922.044 1024.38l-7.847-11.93-17.175 7.53 7.847 11.93zM209.665 357.775l9.192-5.759-14.784-20.762-9.192 5.76z"/><path fill="#1E3A8A" fill-opacity=".4" d="m1432.81 395.349-6.57-1.714-5.15 15.718 6.56 1.715z"/><path fill="#1E40AF" fill-opacity=".4" d="m1991.33 1163.25-7.89.42 1.28 23.25 7.89-.42z"/><path fill="#1D4ED8" fill-opacity="1" d="m829.058 870.878 1.284-7.38-20.117-8.998-1.283 7.38z"/><path fill="#2563EB" fill-opacity="0" d="m1157.6 616.552 3.41-9.294-18.77-7.511-3.41 9.295zM737.849 866.972l-3.693-11.451-19.656 7.294 3.693 11.45z"/><path fill="#1E3A8A" fill-opacity=".4" d="m1203.27 604.765-7.68-5.66-4.18 7.857 7.68 5.659z"/><path fill="#1E40AF" fill-opacity=".4" d="m1866.65 1919.64-6.39-3.94-6.28 14.76 6.38 3.94zM1581.91 785.215l-4.12-13.096-25.66.457 4.11 13.096z"/><path fill="#2563EB" fill-opacity="0" d="m1498.09 431.711-8.72-9.539-7.65 5.507 8.73 9.54zM1669.37 1429.91l5.06-10.84-31.17-20.6-5.06 10.84z"/><path fill="#1D4ED8" fill-opacity="1" d="m614.661 1515.23 1.827-13-28.791-8.6-1.827 13zM1938.85 1810.74l-6.44-8.95-10.44 5.07 6.45 8.94zM1129.52 557.969l7.36-1.813-7.62-17.67-7.37 1.813zM1145.26 332.949l5.39-3.179-11.74-15.157-5.39 3.18z"/><path fill="#2563EB" fill-opacity="0" d="m1158.84 751.568-10.85-8.644-6.69 9.043 10.85 8.644z"/><path fill="#1E3A8A" fill-opacity=".4" d="m981.012 1413.79 7.043.38-6.096-12.25-7.043-.38z"/><path fill="#2563EB" fill-opacity="0" d="M977.68 1222.41h9.986l-1.753-10.01h-9.986z"/><path fill="#1E3A8A" fill-opacity=".4" d="m324.746 966.241-10.812-.194-5.321 19.234 10.812.194z"/><path fill="#1E40AF" fill-opacity=".4" d="m1472.22 199.37 8.62-5.192-19.39-26.635-8.61 5.193z"/><path fill="#1D4ED8" fill-opacity="1" d="m2207.81 1436.62 7.56-2.93-15.24-22.69-7.55 2.93zM889.841 1606.48l-8.476-2.94-3.899 11.39 8.475 2.94z"/><path fill="#1E3A8A" fill-opacity=".4" d="m376.496 977.41-6.217-4.709-5.034 6.481 6.217 4.709z"/><path fill="#1E40AF" fill-opacity=".4" d="m1204.36 148.349-6.82-5.097-8.28 12.589 6.82 5.098z"/><path fill="#2563EB" fill-opacity="0" d="m323.894 631.241-8.835-8.005-20.362 21.28 8.835 8.005z"/><path fill="#1E40AF" fill-opacity=".4" d="m1921.17 250.849-7.89.559 3.88 20 7.9-.559z"/><path fill="#1D4ED8" fill-opacity="1" d="m1391.62 568.478-7.09-6.115-8.94 11.319 7.1 6.115z"/><path fill="#1E40AF" fill-opacity=".4" d="m2023.18 396.552-2.79-5.818-11.22 6.727 2.79 5.818z"/><path fill="#1D4ED8" fill-opacity="1" d="m2101.77 596.964 1.57-12.747-19.89-4.169-1.56 12.747zM1697.02 1414.56l3.59-8-9.79-6.02-3.6 7.99z"/><path fill="#1E40AF" fill-opacity=".4" d="m1106.48 1548.55 8.85-6.65-12.45-14.17-8.84 6.65z"/><path fill="#1E3A8A" fill-opacity=".4" d="m1623.38 553.321 9.49-7.11-16.08-23.878-9.49 7.11z"/><path fill="#1E40AF" fill-opacity=".4" d="m1812.6 1731.74-9.67-4.03-4.33 19.93 9.67 4.02z"/><path fill="#1D4ED8" fill-opacity="1" d="m1101.32 1508.3 11.12-1.15 1.05-11.98-11.12 1.15z"/><path fill="#1E40AF" fill-opacity=".4" d="m1643.44 849.383 7.53-1.664-4.18-10.766-7.52 1.664z"/><path fill="#2563EB" fill-opacity="0" d="m1652.31 1502.04-1.99-12.42-19.21.72 1.98 12.42z"/><path fill="#1D4ED8" fill-opacity="1" d="m749.552 666.014-4.12-11.618-22.253 1.329 4.121 11.618z"/><path fill="#2563EB" fill-opacity="0" d="m1717.88 510.502-4.89-11.203-13.72 5.375 4.89 11.203z"/><path fill="#1D4ED8" fill-opacity="1" d="m1327.51 1049.51-3.46-11.25-16.54.3 3.46 11.25zM2070.89 421.516l-13-.68-.31 17.978 13 .68z"/><path fill="#1E3A8A" fill-opacity=".4" d="m1166.63 200.921 4.98-9.878-19.94-4.619-4.99 9.878z"/><path fill="#1D4ED8" fill-opacity="1" d="m1301.68 1497.07-5.83-7.64-13.14 9.02 5.83 7.64z"/><path fill="#2563EB" fill-opacity="0" d="m570.244 631.644 6.295-1.63-4.388-11.096-6.295 1.63zM2305.23 1729.77l5.55-3.27-15.44-18.28-5.55 3.26z"/><path fill="#1E40AF" fill-opacity=".4" d="m1612.13 713.164 8.3-2.494-8.61-21.264-8.31 2.494z"/><path fill="#1E3A8A" fill-opacity=".4" d="m639.36 927.337 9.218-1.927-10.735-23.79-9.218 1.926zM1241.89 1366.67l6.92-7.91-11.83-11.92-6.92 7.92zM1545.6 305.749l-6.95.124-1.97 7.086 6.95-.123z"/><path fill="#2563EB" fill-opacity="0" d="m1812.15 1622.87 7.71-5.92-13.07-14.85-7.71 5.92zM2072.03 572.204l4.25-8.477-11.56-4.458-4.25 8.478z"/><path fill="#1E40AF" fill-opacity=".4" d="m1093.41 1170.3 2.03-11.6-19.72-5.55-2.03 11.6z"/><path fill="#2563EB" fill-opacity="0" d="m932.853 1474.19 3.36-12.61-14.431-3.9-3.361 12.61zM1264.86 1588.25l-5.62-11.32-20.79 1.18 5.62 11.32z"/><path fill="#1D4ED8" fill-opacity="1" d="m1581.54 1204.24.04-12.2-33.41-1.82-.05 12.21z"/><path fill="#1E3A8A" fill-opacity=".4" d="m2097.23 744.32-10.7-4.695-6.83 13.827 10.7 4.695zM1902.98 1444.51l-3.31-7.88-12.14 2.49 3.31 7.88z"/><path fill="#1E40AF" fill-opacity=".4" d="m1258.22 1372.35-11.85-7.04-8.52 19.07 11.85 7.05zM1128.65 1381.69l-8.2-10.65-12.46 9.18 8.2 10.66z"/><path fill="#1E3A8A" fill-opacity=".4" d="m619.299 1526.28 5.312-4.73-11.303-14.03-5.312 4.73z"/><path fill="#1E40AF" fill-opacity=".4" d="m1702.06 1422.6 7.2-4.9-14.48-20.12-7.2 4.9z"/><path fill="#1E3A8A" fill-opacity=".4" d="m1244.79 1137.09-7.78-8.61-20.53 19.05 7.77 8.62z"/><path fill="#1E40AF" fill-opacity=".4" d="m1026.94 513.502-5.88-11.203-13.24 5.375 5.87 11.203z"/><path fill="#1D4ED8" fill-opacity="1" d="m946.076 1246.54 11.334-3.37-21.166-33.85-11.333 3.37z"/><path fill="#1E40AF" fill-opacity=".4" d="m1488.4 691.495 6.56-.743-6.62-13.128-6.56.743zM1351.34 196.779l9.06-4.451-4.65-10.952-9.07 4.452z"/><path fill="#1E3A8A" fill-opacity=".4" d="m1641.32 944.486-4.61-4.863-10.6 10.071 4.61 4.862z"/><path fill="#1D4ED8" fill-opacity="1" d="m1661.62 1154.7-7.06-6.13-4.09 5.52 7.07 6.12z"/><path fill="#1E3A8A" fill-opacity=".4" d="m1775.21 1720.01-8.55-5.68-2.11 6.09 8.54 5.67z"/><path fill="#2563EB" fill-opacity="0" d="m2319.44 1365.63 6.88-4.51-6.03-7.82-6.89 4.51z"/><path fill="#1D4ED8" fill-opacity="1" d="m1421.08 1912.93 13.33 2.62-7.08-22.84-13.34-2.62zM639.565 1438.14l13.453 2.58-10.284-36.77-13.452-2.58z"/><path fill="#2563EB" fill-opacity="0" d="m985.686 849.349-1.118-7.681-18.875 6.281 1.117 7.681z"/><path fill="#1E40AF" fill-opacity=".4" d="m1608.19 481.17-9.08-10.301-15.76 13.619 9.08 10.301z"/><path fill="#1D4ED8" fill-opacity="1" d="m2070.85 1241.17 6.4-3.76-13.11-18.55-6.4 3.75zM2151.7 446.471l1.21-10.678-18.97-5.289-1.21 10.678z"/><path fill="#2563EB" fill-opacity="0" d="m1487.96 847.75-6.81-10.891-14.23 7.195 6.81 10.89z"/><path fill="#1E3A8A" fill-opacity=".4" d="m2139.24 496.467-10.66-2.262 5.5 27.433 10.66 2.262z"/><path fill="#1D4ED8" fill-opacity="1" d="m659.235 296.85-6.846.248 2.523 12.177 6.846-.248zM974.036 698.122l-12.22-2.495-.549 29.349 12.22 2.495z"/><path fill="#1E3A8A" fill-opacity=".4" d="m2306.04 1694.09 9.39-2.2-15.42-26.84-9.39 2.21z"/><path fill="#2563EB" fill-opacity="0" d="m1508.16 1950.08 12.81 1.17-1.88-22.5-12.82-1.16z"/><path fill="#1D4ED8" fill-opacity="1" d="m1413.13 1620.84-8.64-6.75-5.72 8.25 8.65 6.76zM2082.4 1091.39l6.74-.73-2.7-6.97-6.75.73z"/><path fill="#2563EB" fill-opacity="0" d="m1472.72 557.951-5.61-7.873-12.76 7.758 5.6 7.873z"/><path fill="#1E3A8A" fill-opacity=".4" d="m1547.8 743.606-2.07-8.04-16.37 2.098 2.06 8.039z"/><path fill="#1D4ED8" fill-opacity="1" d="m1548.93 987.579 10.08-7.843-23.27-29.622-10.08 7.843zM1106.85 582.648l-2.12-6.992-13.79.733 2.11 6.991z"/><path fill="#1E40AF" fill-opacity=".4" d="m1878.56 544.219-2.28-11.731-12.68 3.169 2.28 11.731zM443.545 504.933l-2.272-11.503-18.72 5.568 2.272 11.504z"/><path fill="#1E3A8A" fill-opacity=".4" d="m1500.67 569.877.94-8.565-12.2-3.71-.94 8.565z"/><path fill="#2563EB" fill-opacity="0" d="m1911.46 582.554-6.26-5.706-7.91 8.612 6.25 5.707z"/><path fill="#1D4ED8" fill-opacity="1" d="m595.033 1406.02-3.193-12.97-15.764 1.11 3.193 12.97zM1859.04 1422.04l-1.67-12.36-32.68-4.78 1.67 12.36zM723.619 898.088l12.018 2.394-4.352-31.82-12.018-2.395z"/><path fill="#1E40AF" fill-opacity=".4" d="m944.966 1101.32 5.024-5.68-8.588-7.81-5.025 5.68z"/><path fill="#1D4ED8" fill-opacity="1" d="m502.914 1459.95-8.184-7.48-13.895 15.16 8.184 7.48zM297.367 645.835l4.092-7.69-20.214-15.777-4.092 7.69zM2128.15 318.362l7.44-4.089-9.83-15.156-7.44 4.089z"/><path fill="#2563EB" fill-opacity="0" d="m1698.8 916.622 4.33-7.464-16.5-11.034-4.33 7.465z"/><path fill="#1E40AF" fill-opacity=".4" d="m2147.01 777.139 1.15-10.633-30.95-10.318-1.15 10.633z"/><path fill="#1D4ED8" fill-opacity="1" d="m1901.06 968.36-2.83-10.438-24.96 8.98 2.83 10.438z"/><path fill="#2563EB" fill-opacity="0" d="m586.155 478.395-3.385-7.446-15.359 6.393 3.385 7.446z"/><path fill="#1E40AF" fill-opacity=".4" d="m1338.95 640.611 6.07-7.076-15.33-13.443-6.07 7.075z"/><path fill="#1E3A8A" fill-opacity=".4" d="m1067.63 1490.1-7.51-4.6-7.99 16.43 7.51 4.6z"/><path fill="#1E40AF" fill-opacity=".4" d="m1405.26 1374.79 4.06-9.21-18.26-7.82-4.06 9.22zM859.361 1156.09l-6.091-5.28-7.04 8.35 6.091 5.28zM2366.05 1399.77l6.82-6.88-33.43-31.14-6.81 6.87zM952.541 1418.48l-.939-8.95-8.922 1.26.94 8.95z"/><path fill="#1D4ED8" fill-opacity="1" d="m997.023 1506.81 5.207-4.32-5.358-6.31-5.208 4.32zM809.446 1343.93l5.566-6.82-14.025-13.35-5.565 6.82z"/><path fill="#2563EB" fill-opacity="0" d="m2185.8 820.713-1.72-7.967-12.32-1.256 1.72 7.967z"/><path fill="#1E3A8A" fill-opacity=".4" d="m1561.48 454.711 12.35-3.543-.58-27.04-12.35 3.543z"/><path fill="#1D4ED8" fill-opacity="1" d="m1072.63 1310 7.95-1.8-2.1-14.62-7.94 1.8z"/><path fill="#1E40AF" fill-opacity=".4" d="m642.848 319.626 6.047-8.206-12.684-10.075-6.047 8.205z"/><path fill="#2563EB" fill-opacity="0" d="m424.677 1124.87 3.077-11.49-28.998-12.6-3.078 11.49z"/><path fill="#1E40AF" fill-opacity=".4" d="m1962.6 367.164-9.19-6.422-10.29 13.702 9.19 6.422z"/><path fill="#1E3A8A" fill-opacity=".4" d="m400.499 461.489 7.183-7.452-10.513-10.533-7.182 7.452z"/><path fill="#2563EB" fill-opacity="0" d="m1490.03 1429.1 11.44-4.88-7.31-13.92-11.45 4.87z"/><path fill="#1D4ED8" fill-opacity="1" d="m2124.47 1299.99-8.35-3.82-3.1 20.62 8.35 3.82z"/><path fill="#2563EB" fill-opacity="0" d="m1648.84 1274.05 5.93-2.85-6.63-10.98-5.93 2.85zM983.436 1439.93l-4.239-9.48-20.909 7.5 4.238 9.48zM736.296 399.315l4.362-4.702-14.339-13.427-4.363 4.701zM359.187 590.835l5.555-2.407-13.09-17.008-5.556 2.407z"/><path fill="#1D4ED8" fill-opacity="1" d="m855.02 208.954-6.161-4.425-13.071 17.884 6.16 4.424z"/><path fill="#1E40AF" fill-opacity=".4" d="m1316.49 1356.92-9.15-2.96-.9 9.55 9.14 2.96zM1685.41 1578.32l-8.98-7.38-10.56 15.37 8.98 7.38z"/><path fill="#1D4ED8" fill-opacity="1" d="m1636.73 1571.51-2.26-9.91-21.52 3.07 2.26 9.9z"/><path fill="#2563EB" fill-opacity="0" d="m1421.46 213.073.7-9.964-17.95-1.569-.7 9.964z"/><path fill="#1D4ED8" fill-opacity="1" d="m1641.86 1862.21-10.24-11.44-11.28 8.99 10.23 11.44zM2026.58 1174.17l2.09-11.38-26.73-9.33-2.1 11.39z"/><path fill="#1E40AF" fill-opacity=".4" d="m1854.68 815.664-5.6-5.523-6.42 6.165 5.6 5.523z"/><path fill="#1E3A8A" fill-opacity=".4" d="m267.131 1009.6-3.604-11.995-29.947 12.145 3.603 11.99z"/><path fill="#1E40AF" fill-opacity=".4" d="m1282.26 1019.43 3.01-7.67-19.32-10.64-3.01 7.67zM2111.4 889.19l7.33-8.885-27.33-24.168-7.33 8.886zM1169.46 713.221l6.46-1.366-5.97-16.056-6.46 1.365z"/><path fill="#1D4ED8" fill-opacity="1" d="m967.276 1337.7-13.008-.23.84 24 13.008.23zM1107.65 484.666l13.14.688-13.58-38.321-13.14-.687z"/><path fill="#2563EB" fill-opacity="0" d="m1968.39 1227.92 1.24-5.93-17.94-10.1-1.24 5.94z"/><path fill="#1E3A8A" fill-opacity=".4" d="m369.239 450.677-.309-11.259-21.556-8.751.309 11.26z"/><path fill="#1E40AF" fill-opacity=".4" d="m996.197 354.551 3.532-7.725-17.657-9.799-3.531 7.725z"/><path fill="#1E3A8A" fill-opacity=".4" d="m302.547 722.863-.182-9.818-21.315 4.008.181 9.817zM1331.63 1160.23l1.92-7.64-11.64-3.72-1.91 7.63zM361.766 917.535l10.701-2.488-2.699-12.737-10.7 2.488zM487.178 301.348l-12.332-2.948 1.28 24.632 12.333 2.948zM2025.68 459.554l6.66-1.335-6.92-19.633-6.66 1.336zM777.61 397.599l6.113-4.24-5.314-6.784-6.113 4.239zM1820.83 1307.92l-7.11-10.49-26.89 16 7.11 10.49z"/><path fill="#1E40AF" fill-opacity=".4" d="m1976.84 1796.5-11.08-6.46-10.89 30.47 11.08 6.47z"/><path fill="#1E3A8A" fill-opacity=".4" d="m554.049 764.818 10.088-4.498-7.045-11.133-10.088 4.498zM417.099 771.795l-11.663-7.686-3.808 9.838 11.664 7.685z"/><path fill="#1D4ED8" fill-opacity="1" d="m2193.19 882.718 2.26-10.357-26.43-10.27-2.26 10.356z"/><path fill="#1E3A8A" fill-opacity=".4" d="m1947.5 1054.64 7.05 1-1.69-12.15-7.05-1z"/><path fill="#1E40AF" fill-opacity=".4" d="m352.088 652.158-3.063-6.83-6.411 1.703 3.062 6.829z"/><path fill="#2563EB" fill-opacity="0" d="m1770.06 1285.13 6.41-2.07-2.72-6.76-6.41 2.07z"/><path fill="#1E40AF" fill-opacity=".4" d="m1272.95 1472.29-10.76-3.9-4.28 30.16 10.76 3.9zM1873.29 251.095l9.57-2.757-8.48-27.881-9.57 2.757z"/><path fill="#1E3A8A" fill-opacity=".4" d="m1166.11 1362.57-2.67-8.85-27.69 13.17 2.66 8.84zM1294.26 583.767l-7.92-1.55-.56 7.974 7.92 1.55z"/><path fill="#1D4ED8" fill-opacity="1" d="m333.981 550.85.009-6.871-18.33-4.08-.009 6.872zM437.656 935.548l.83-7.81-22.643-8.619-.831 7.81zM1060.76 1263.93l-10.32-6.59-9.1 19.78 10.31 6.59z"/><path fill="#1E40AF" fill-opacity=".4" d="m1899.28 1168.05 8.2-9.32-18.32-15.74-8.21 9.33zM584.609 897.227l-3.459-6.75-11.142 4.563 3.459 6.751zM1796.93 409.3l-7.16-10.255-8.9 4.143 7.15 10.256zM2194.74 1521.87l-2.16-9-9.11-.47 2.16 9zM977.323 1002.38l2.693-5.843-17.818-10.704-2.693 5.846z"/><path fill="#1D4ED8" fill-opacity="1" d="m2048.54 881.61 2.58-6.633-19.77-11.186-2.58 6.633zM1573.35 1290.83l-6.75-5.05-7.3 11.14 6.75 5.05zM1151.46 600.93l-.76-10.94-28.5-4.91.76 10.94zM2234.07 850.847l-7.79-7.917-14.8 12.686 7.79 7.917zM1173.19 1448.61l9.9.36.02-13.12-9.9-.36zM1805.18 806.118l-10.1-5.415-11.99 28.42 10.1 5.415z"/><path fill="#2563EB" fill-opacity="0" d="m1694.79 868.005 8.44-4.997-15.29-19.614-8.45 4.997zM2148.15 1495.47l6.38-3.15-12.61-17.62-6.37 3.14z"/><path fill="#1D4ED8" fill-opacity="1" d="m429.061 804.023-10.641-4.162-3.239 12.172 10.642 4.161zM2108.53 115.694l-1.72-8.897-10.75 1.917 1.72 8.897zM1174.4 783.805l2.5-5.215-7.05-4.863-2.51 5.215z"/><path fill="#2563EB" fill-opacity="0" d="m1406.26 692.64-9.16-10.779-16.81 12.864 9.17 10.779z"/><path fill="#1E40AF" fill-opacity=".4" d="m2108.25 1354.3-3.45-7.32-20.71-3.3 3.45 7.31zM2119.84 1314.6l9.03-7.66-26.01-28.35-9.03 7.65z"/><path fill="#1D4ED8" fill-opacity="1" d="m669.916 1078.02-6.879-8.71-14.696 11.76 6.878 8.71z"/><path fill="#1E3A8A" fill-opacity=".4" d="m2210.87 884.406-1.69-7.039h-7.96l1.69 7.039z"/><path fill="#1D4ED8" fill-opacity="1" d="m711.979 1017.77-7.956-9.1-16.02 9.33 7.956 9.1z"/><path fill="#1E3A8A" fill-opacity=".4" d="m2058.63 769.922-6.89-3.143-8.27 14.81 6.88 3.143z"/><path fill="#1D4ED8" fill-opacity="1" d="m2456.32 1803.73 8.41 1.29-10.06-23.42-8.42-1.29zM198.341 236.773l-7.591-10.066-21.879 15.252 7.591 10.066z"/><path fill="#1E3A8A" fill-opacity=".4" d="m72.456 1588.25-3.999-4.88-8.445 7.21 3.999 4.88z"/><path fill="#2563EB" fill-opacity="0" d="m316.955 1567.42 8.063-8.05-16.392-16.38-8.063 8.05z"/><path fill="#1E40AF" fill-opacity=".4" d="m717.794 627.668-.804-8.262-13.654-1.011.804 8.262z"/><path fill="#1E3A8A" fill-opacity=".4" d="m1040.36 348.856-7.45-7.198-7.52 7.232 7.44 7.197z"/><path fill="#1D4ED8" fill-opacity="1" d="m1060.85 173.15 8.54-7.718-8.69-9.715-8.54 7.718zM286.714 774.628l-6.472-4.679-4.76 8.457 6.472 4.679z"/><path fill="#1E40AF" fill-opacity=".4" d="m411.506 946.308 2.973-12.554-30.758-10.041-2.973 12.554zM194.378 1565.4l6.364-6.69-6.364-6.04-6.364 6.7z"/><path fill="#1E3A8A" fill-opacity=".4" d="m363.105 486.539 5.793-4.43-7.815-10.94-5.794 4.43z"/><path fill="#1E40AF" fill-opacity=".4" d="m722.144 1512.27 4.858-5.71-15.863-14.28-4.858 5.71z"/><path fill="#1D4ED8" fill-opacity="1" d="m871.08 268.384-9.848-1.046-3.454 17.912 9.847 1.046z"/><path fill="#1E40AF" fill-opacity=".4" d="m1002.72 1247.45 10.9-1.92-13.995-27.27-10.899 1.92zM2024.91 641.451l1.36-11.482-29-13.219-1.36 11.482z"/><path fill="#1D4ED8" fill-opacity="1" d="m807.218 1333.57 1.788-7.5-22.379-11.81-1.787 7.5z"/><path fill="#2563EB" fill-opacity="0" d="m1961.31 930.658-3.01-11.799-14.91 6.348 3 11.799z"/><path fill="#1E40AF" fill-opacity=".4" d="m224.887 296.418 12.631-3.406-4.563-23.472-12.63 3.407z"/><path fill="#2563EB" fill-opacity="0" d="m285.752 1465.11-6.432-7.43-15.33 13.38 6.432 7.43z"/><path fill="#1D4ED8" fill-opacity="1" d="m2153.53 1147.25 2.97-8.48-27.18-16.63-2.98 8.48z"/><path fill="#1E40AF" fill-opacity=".4" d="m978.527 569.678 9.284-1.069-12.078-23.385-9.284 1.069z"/><path fill="#1D4ED8" fill-opacity="1" d="m1917.47 1246.2-6.59-4.39-11.08 16.9 6.59 4.39z"/><path fill="#2563EB" fill-opacity="0" d="m597.819 656.012-12.854-3.678-1.996 22.691 12.853 3.677zM667.296 542.125l4.003-4.709-16.732-14.292-4.002 4.709z"/><path fill="#1E3A8A" fill-opacity=".4" d="m2078.84 1236.1 2.72-7.84-11.23-2.93-2.72 7.83z"/><path fill="#1D4ED8" fill-opacity="1" d="m1169.5 822.599-5.31-7.79-20.01 13.002 5.31 7.79z"/><path fill="#1E3A8A" fill-opacity=".4" d="m691.019 1196.09.12-9.23-26.956-11.25-.12 9.23z"/><path fill="#2563EB" fill-opacity="0" d="m154.103 879.131-8.687-2.94-5.603 9.616 8.687 2.94z"/><path fill="#1E40AF" fill-opacity=".4" d="m1903.64 1181.55-7.02-5.21-3.3 6.67 7.01 5.21z"/><path fill="#1D4ED8" fill-opacity="1" d="m1759.95 295.934-7.87-1.391-3.98 22.682 7.87 1.391z"/><path fill="#1E3A8A" fill-opacity=".4" d="m552.064 1026.46-8.38-7.59-14.733 16.49 8.38 7.59z"/><path fill="#2563EB" fill-opacity="0" d="m1746.56 1842.22-14-4.7 7.36 37.77 14 4.7zM1466.55 296.645l-12.99-4.264-3.53 22.863 12.99 4.264zM1788.22 964.575l-11.34-3.358-9.4 33.187 11.34 3.359zM1657.14 1653.83l7.15-1.28-5.31-9.13-7.15 1.29z"/><path fill="#1E3A8A" fill-opacity=".4" d="m915.296 1456.45 4.188-3.82-7.861-7.87-4.188 3.82z"/><path fill="#1E40AF" fill-opacity=".4" d="m460.072 498.596 8.733-4.506-3.8-10.407-8.733 4.507z"/><path fill="#1E3A8A" fill-opacity=".4" d="m920.926 1228.54-2.729-6.31-9.182 4.4 2.729 6.31z"/><path fill="#2563EB" fill-opacity="0" d="m1877.19 1681.25-7.58-7.06-11.26 12.07 7.58 7.06zM1751.55 1809.99l4.43-8.36-26.69-20.1-4.43 8.36zM1867.32 1724.66l8.73-7.78-12.19-13.89-8.73 7.77z"/><path fill="#1E40AF" fill-opacity=".4" d="m1115.23 775.894-4.43-12.228-24.24 9.388 4.43 12.227zM2003.38 331.013l-7.5-8.046-8.78 8.185 7.5 8.046z"/><path fill="#2563EB" fill-opacity="0" d="m843.914 713.806 1.104-8.068-20.673-1.11-1.104 8.068zM271.371 1565.75l-6.961-4.83-15.652 21.46 6.961 4.83z"/><path fill="#1D4ED8" fill-opacity="1" d="m945.66 1437.87 2.819-10.01-21.554-9.33-2.818 10.01z"/><path fill="#1E40AF" fill-opacity=".4" d="m1724.27 1115.89-5.24-5.3-11.38 11.19 5.25 5.31z"/><path fill="#2563EB" fill-opacity="0" d="m1610.79 1648.76-10.91-10.23-15.37 16.57 10.92 10.23z"/><path fill="#1D4ED8" fill-opacity="1" d="m1462.85 1244.33-4.55-9.45-16.44 7.62 4.55 9.45zM313.562 1021.95l3.641-13.16-17.693-.32-3.641 13.16z"/><path fill="#1E40AF" fill-opacity=".4" d="m577.164 1301.01 9.029-3.92-5.069-11.09-9.029 3.92z"/><path fill="#1E3A8A" fill-opacity=".4" d="m1294.96 596.705 4.42-9.777-24.12-13.855-4.42 9.776z"/><path fill="#1D4ED8" fill-opacity="1" d="m1265.42 1299.02-7.56-4.9-6.79 8.83 7.56 4.9z"/><path fill="#1E3A8A" fill-opacity=".4" d="m791.043 1381.76-3.096-6.82-14.857 5.71 3.096 6.82z"/><path fill="#1D4ED8" fill-opacity="1" d="m1147.88 787.705 4.2-6.443-21.91-17.793-4.2 6.443z"/><path fill="#1E40AF" fill-opacity=".4" d="m157.428 840.258-7.727-2.6-1.892 18 7.727 2.6z"/><path fill="#2563EB" fill-opacity="0" d="m1607.88 1246.1 9.28-4.78-20.04-27.19-9.28 4.77z"/><path fill="#1E3A8A" fill-opacity=".4" d="m932.5 445.906-5.219-10.873-12.507 3.451 5.218 10.873z"/><path fill="#1D4ED8" fill-opacity="1" d="m241.546 515.242 4.763-7.308-13.55-9.441-4.763 7.309zM321.873 1320.19l-12.687-1.36-10.059 35.81 12.688 1.36zM1634.46 527.833l2.21-9.878-14.48-3.149-2.21 9.877z"/><path fill="#1E3A8A" fill-opacity=".4" d="m1898.76 1546.34 10.54.2-6.74-16.82-10.55-.21zM1964.53 440.746l11.55-2.303-3.66-13.818-11.55 2.302z"/><path fill="#1E40AF" fill-opacity=".4" d="m2447.67 1099.53-14.32-8.76-8.28 29.44 14.32 8.75z"/><path fill="#2563EB" fill-opacity="0" d="m1121.38 1479.78 7.77-9.2-11.9-11-7.78 9.2zM539.428 785.44l-2.711-7.665-12.722 7.19 2.711 7.664z"/><path fill="#1E40AF" fill-opacity=".4" d="m1104.1 1065.6-7.58-9.66-27.28 23.55 7.58 9.65zM1080.3 936.918l-.31-11.381-10.66-1.196.31 11.381z"/><path fill="#2563EB" fill-opacity="0" d="m577.593 452.074 7.245-6.476-19.741-22.383-7.245 6.477z"/><path fill="#1E40AF" fill-opacity=".4" d="m979.048 1116.15 5.606-4.07-6.359-9.12-5.607 4.06z"/><path fill="#2563EB" fill-opacity="0" d="m1403.28 885.19-3.15-7.219-18.16-1.624 3.15 7.219z"/><path fill="#1E40AF" fill-opacity=".4" d="m1987.13 1078.67-7.87.43.89 23.32 7.87-.43z"/><path fill="#1D4ED8" fill-opacity="1" d="m1948.15 1490.31-13.4-7.78-3.25 16.02 13.41 7.78z"/><path fill="#1E40AF" fill-opacity=".4" d="m1389.2 1088.56 1.59-9.98-17.48 2.69-1.58 9.97z"/><path fill="#1D4ED8" fill-opacity="1" d="m1076.57 1461.75.73-8.14-19.26-4.33-.73 8.14zM20.236 1296.46l-1.13-7.61L0 1294.72l1.13 7.61z"/><path fill="#2563EB" fill-opacity="0" d="m1422.29 339.399-3.91-7.469-16.78 6.81 3.91 7.469z"/><path fill="#1E40AF" fill-opacity=".4" d="m948.23 1178.39-5.457-6.15-12.408 10.96 5.457 6.14z"/><path fill="#1D4ED8" fill-opacity="1" d="m1534.63 189.5-10.06-.35 5.65 28.052 10.06.349zM1387.68 272.245l5.62-8.716-10.34-7.428-5.63 8.716z"/><path fill="#1E40AF" fill-opacity=".4" d="m1173.75 1086.71-6.94-4.84-8.01 12.85 6.94 4.84zM1417.01 884.199l4.77-9.801-22.92-12.84-4.78 9.8z"/><path fill="#1E3A8A" fill-opacity=".4" d="m611.3 1284.22-3.898-10.04-14.722.52 3.897 10.05z"/><path fill="#1E40AF" fill-opacity=".4" d="m2156.57 742.165 7.51-2.757-4.22-12.308-7.51 2.757z"/><path fill="#1D4ED8" fill-opacity="1" d="m1808.28 1866.6 2.96-7.35-11.48-7.94-2.96 7.35z"/><path fill="#1E3A8A" fill-opacity=".4" d="m1612.92 1394.43 6.67-.38-3.95-8.17-6.68.38z"/><path fill="#1E40AF" fill-opacity=".4" d="m364.821 849.935 11.169 1.165-2.33-11.077-11.169-1.164z"/><path fill="#1D4ED8" fill-opacity="1" d="m1261.79 1521.34-6.46-8.79-18.01 6.16 6.46 8.78zM984.272 1094.85l-3.37-8.97-18.447 1.66 3.369 8.96z"/><path fill="#1E40AF" fill-opacity=".4" d="m388.236 1138.53.942-11.07-10.884-.58-.942 11.07z"/><path fill="#1D4ED8" fill-opacity="1" d="m324.749 857.82 4.3-11.205-22.403-8.602-4.3 11.205z"/><path fill="#2563EB" fill-opacity="0" d="m1791.34 1824.17 4.79-6.84-10.22-8.36-4.79 6.85z"/><path fill="#1E40AF" fill-opacity=".4" d="m2218.57 584.635-10.3-3.422-1.19 12.223 10.3 3.423z"/><path fill="#1D4ED8" fill-opacity="1" d="m1492.62 1351.38-7.1-5.16-7.39 11.54 7.1 5.16zM322.341 401.985l.257-7.059-12.866-.687-.257 7.059z"/><path fill="#2563EB" fill-opacity="0" d="m2010.33 966.191-11.16-5.265-.86 18.403 11.17 5.265zM1658.28 819.022l3.67-5.497-18.3-14-3.67 5.497z"/><path fill="#1D4ED8" fill-opacity="1" d="m2078.73 1187.26-5.04-7.19-18.26 13.24 5.04 7.19zM296.533 824.158l9.467-9.215-11.524-11.598-9.467 9.215z"/><path fill="#1E40AF" fill-opacity=".4" d="m1754.19 1487.49 1.32-10.41-33.63-16.79-1.32 10.4z"/><path fill="#1D4ED8" fill-opacity="1" d="m738.806 998.617 11.772 3.233 1.32-25.124-11.772-3.231z"/><path fill="#2563EB" fill-opacity="0" d="m2031.12 695.046-4.54-10.253-25.22 14.415 4.53 10.253zM821.729 535.112l-6.131-6.514-6.846 4.143 6.132 6.515z"/><path fill="#1E3A8A" fill-opacity=".4" d="m1339.12 741.266 5.57-3.625-10.3-14.653-5.57 3.626zM695.379 903.217l-6.977-4.694-12.552 17.357 6.976 4.694zM218.225 244.522l8.07-1.542-.004-9.912-8.07 1.541z"/><path fill="#1D4ED8" fill-opacity="1" d="m1326.39 949.042 4.1-11.708-13.15-3.406-4.11 11.708z"/><path fill="#2563EB" fill-opacity="0" d="m2090.82 784.576 1.18-6.197-11.35-5.623-1.18 6.198z"/><path fill="#1E3A8A" fill-opacity=".4" d="m1099.66 1330.36-7.19-3.67-6.18 13.53 7.19 3.67z"/><path fill="#1D4ED8" fill-opacity="1" d="m1648.92 560.956-9.99-.704 2.2 22.162 10 .704z"/><path fill="#1E40AF" fill-opacity=".4" d="m2172.68 849.001-6.99-4.544-3.16 6.962 6.99 4.544z"/><path fill="#1E3A8A" fill-opacity=".4" d="m1507.97 1735.29 5.82-4.92-13.52-14.86-5.83 4.92z"/><path fill="#1E40AF" fill-opacity=".4" d="m224.645 765.635-7.168-6.34-13.148 14.877 7.168 6.34zM2199.93 1244.46l-5.77-10.19-11.25 7.17 5.77 10.19z"/><path fill="#2563EB" fill-opacity="0" d="m1075.36 443.942-.24-7.069-17.89-1.91.24 7.069z"/><path fill="#1E40AF" fill-opacity=".4" d="m1376.95 808.771-6.32-6.957-14.88 13.687 6.32 6.956zM1602.29 657.548l12.49-3.618-3.86-15.532-12.49 3.619z"/><path fill="#1E3A8A" fill-opacity=".4" d="m2027.59 458.973-4.64-6.694-8.3 3.107 4.64 6.695z"/><path fill="#1D4ED8" fill-opacity="1" d="m1198.71 422.709 1.83-10.699-24.97-11.378-1.83 10.699z"/><path fill="#1E40AF" fill-opacity=".4" d="m1691.19 1648.54-8.36-2.09 1.15 16.55 8.36 2.08z"/><path fill="#1E3A8A" fill-opacity=".4" d="m1532.58 1313.21 10.38-5.23-10.83-17.08-10.38 5.24z"/><path fill="#1D4ED8" fill-opacity="1" d="m1802.42 1718.85-10.05-3.41-.19 10.88 10.05 3.4zM844.485 911.472l-10.95-.193-.779 15.055 10.95.193z"/><path fill="#1E3A8A" fill-opacity=".4" d="m839.659 877.36 8.933.63 1.317-15.02-8.933-.63z"/><path fill="#2563EB" fill-opacity="0" d="m382.44 1371.53 6.013-2.4-4.265-9.94-6.013 2.4zM495.908 1462.69l-2.594-9.46-27.095 9.12 2.594 9.46z"/><path fill="#1D4ED8" fill-opacity="1" d="m2211.08 1051.3 11.02.78-6.92-23.45-11.02-.79z"/><path fill="#1E3A8A" fill-opacity=".4" d="m1909.03 958.487-9.66-4.251-.27 23.173 9.66 4.251zM400.988 1441.47l8.951-2.05-1.531-21.77-8.952 2.05z"/><path fill="#1D4ED8" fill-opacity="1" d="m1934.53 1021.23-5.72-9.22-21.9 10.17 5.72 9.22z"/><path fill="#1E3A8A" fill-opacity=".4" d="m1944.56 1569.58 9.92-1.22-1.83-14.9-9.92 1.22z"/><path fill="#2563EB" fill-opacity="0" d="m1384.61 1660.3 11.12-2.62-14.97-28.03-11.12 2.62z"/><path fill="#1D4ED8" fill-opacity="1" d="m2117.48 919.665-7.59-9.958-10.6 3.228 7.59 9.958z"/><path fill="#2563EB" fill-opacity="0" d="m2348.57 1730.37 1.77-6.12-9.96-6.21-1.77 6.13z"/><path fill="#1D4ED8" fill-opacity="1" d="m844.452 987.979 8.025-8.782-10.401-9.553-8.025 8.781z"/><path fill="#1E3A8A" fill-opacity=".4" d="m1204.52 563.263 3.05-3.923-14.12-11.66-3.05 3.923z"/><path fill="#2563EB" fill-opacity="0" d="m1606.81 1253.54-6.25-7.47-8.63 6.97 6.25 7.47z"/><path fill="#1D4ED8" fill-opacity="1" d="m550.626 763.133 8.546-2.186-11.078-20.57-8.546 2.187zM1933.33 712.809l10.44-6.799-16.68-25.242-10.44 6.799z"/><path fill="#1E40AF" fill-opacity=".4" d="m1214.83 703.432-1.27-8.065-16.41-3.428 1.26 8.065z"/><path fill="#1E3A8A" fill-opacity=".4" d="m768.95 904.107-5.649-6.214-17.052 16.29 5.649 6.214z"/><path fill="#1E40AF" fill-opacity=".4" d="m1760.2 511.439-.6-6.746-19.13-4.973.61 6.745zM1683.53 1059.47l-11.46-1.54 3.52 13.92 11.46 1.54z"/><path fill="#1E3A8A" fill-opacity=".4" d="m775.325 1294.2-4.47-10.06-25.542 11.4 4.469 10.07z"/><path fill="#1D4ED8" fill-opacity="1" d="m1495.66 957.736-8.28-6.509-6.92 9.778 8.28 6.51z"/><path fill="#2563EB" fill-opacity="0" d="m682.096 1560.21-3.489-6.33-10.361 5.29 3.489 6.32z"/><path fill="#1E3A8A" fill-opacity=".4" d="m1215.22 156.352-6.11-3.217-8.3 16.238 6.11 3.217z"/><path fill="#2563EB" fill-opacity="0" d="m1097 886.409 13.12-2.505-.01-25.773-13.12 2.505z"/><path fill="#1E3A8A" fill-opacity=".4" d="m1824.44 1303.88-6.33-10.55-13.52 7.8 6.33 10.55z"/><path fill="#1E40AF" fill-opacity=".4" d="m643.106 911.286 1.548-9.682-22.799-5.968-1.548 9.683z"/><path fill="#2563EB" fill-opacity="0" d="m859.32 567.722 2.492-8.865-24.16-4.341-2.493 8.864z"/><path fill="#1D4ED8" fill-opacity="1" d="m1491.64 650.387-7.85-12.196-23.13 5.334 7.85 12.195zM1162.61 1292.06l9.92 1.44-1.05-12.25-9.92-1.43z"/><path fill="#1E40AF" fill-opacity=".4" d="m1297.15 988.158-9.58-7.045-9.37 17.215 9.58 7.042zM1027.87 323.088h-9v13h9z"/><path fill="#2563EB" fill-opacity="0" d="m1022.48 270.674 1.21-9.104-23.44-2.124-1.211 9.104zM1835.57 548.672l-3.61-6.988-13.26 1.469 3.6 6.988z"/><path fill="#1E40AF" fill-opacity=".4" d="m1850.24 1530.39-13.04-.22 3.19 20 13.03.22zM767.779 780.294l-12.965-4.7-.25 29.528 12.964 4.7zM359.756 1121.15l7.277-6.19-6.839-7.93-7.277 6.19z"/><path fill="#1E3A8A" fill-opacity=".4" d="m613.903 785.86 8.24-11.026-16.443-11.13-8.239 11.026z"/><path fill="#2563EB" fill-opacity="0" d="m557.028 1252.14-9.874-4.08-3.276 25.99 9.874 4.08z"/><path fill="#1E3A8A" fill-opacity=".4" d="m1656.31 361.614 8.79-3.975-4.72-16.3-8.79 3.975z"/><path fill="#1D4ED8" fill-opacity="1" d="m312.309 404.939-13.307-2.519 3.253 30.9 13.307 2.519zM1565.8 1545.8l-4.17-13.09-37.56-2.61 4.17 13.09z"/><path fill="#2563EB" fill-opacity="0" d="m1161.98 1478.34 12.64.96-10.18-30.6-12.64-.95z"/><path fill="#1E40AF" fill-opacity=".4" d="m1805.64 1153.34 4.77-4.09-18.46-17.71-4.77 4.09zM1776.71 1524.38l-1.9-11-30.34 3.8 1.89 11z"/><path fill="#1D4ED8" fill-opacity="1" d="m356.199 1409.23-4.219-11.91-22.09 5.94 4.219 11.9zM1744.9 839.774l-2.47-10.042-18.16-.947 2.48 10.042zM656.676 690.162l-7.145-12.791-19.567 4.998 7.145 12.791z"/><path fill="#1E40AF" fill-opacity=".4" d="m651.738 1566.56-4.123-6.45-9.183 4.3 4.123 6.45z"/><path fill="#1D4ED8" fill-opacity="1" d="m1728.81 725.187-3.21-10.255-29.6 11.676 3.21 10.256z"/><path fill="#2563EB" fill-opacity="0" d="m2053.96 644.042-5.53-4.065-9.49 13.269 5.54 4.065z"/><path fill="#1E3A8A" fill-opacity=".4" d="m922.135 1451.91-6.795-5.92-9.793 10.6 6.795 5.92z"/><path fill="#1D4ED8" fill-opacity="1" d="m719.642 999.258-8.423-1.84 2.975 13.942 8.424 1.84zM1313.65 1238.44l-.3-8.86-20.43-3.83.3 8.86z"/><path fill="#1E40AF" fill-opacity=".4" d="m1631.28 604.613-6.56-9.894-17.19 4.568 6.56 9.894z"/><path fill="#1D4ED8" fill-opacity="1" d="m1283.84 372.396-6.54-6.308-14.78 14.802 6.54 6.308z"/><path fill="#1E40AF" fill-opacity=".4" d="m638.771 1257.32 11.752-1.67-14.547-34.44-11.753 1.67z"/><path fill="#2563EB" fill-opacity="0" d="m2002.1 1459.32-7.68-8.23-8.56 6.06 7.68 8.23zM1613.4 1497.47l12.58-1.38-3.53-19.25-12.58 1.38zM712.948 372.749l.411-12.013-24.928-1.311-.412 12.013z"/><path fill="#1E40AF" fill-opacity=".4" d="m498.223 703.002 2.007-8.231-25.528-14.885-2.007 8.231z"/><path fill="#2563EB" fill-opacity="0" d="m1356.89 1625.98-1.85-7.19-7.98-.72 1.85 7.19z"/><path fill="#1E3A8A" fill-opacity=".4" d="m1555.31 950.175-.64-8.613-25.6-7.021.64 8.612zM855.96 1370.5l-4.231-7.03-9.982 6.09 4.232 7.03z"/><path fill="#1E40AF" fill-opacity=".4" d="m1642.81 781.995 9.8-1.395-2.49-12.905-9.8 1.395z"/><path fill="#2563EB" fill-opacity="0" d="m545.235 416.147-6.409-6.793-8.8 6.898 6.409 6.794z"/><path fill="#1E3A8A" fill-opacity=".4" d="m407.056 1162.15 9.858.17-.895-18.27-9.858-.18z"/><path fill="#2563EB" fill-opacity="0" d="m634.333 1116.65-8.032-12.19-18.521 6.26 8.032 12.19z"/><path fill="#1E40AF" fill-opacity=".4" d="m545.408 1511.58-7.178-6.08-20.097 23.39 7.177 6.08z"/><path fill="#1D4ED8" fill-opacity="1" d="m1282.32 947.502-6.68-8.506-21.36 17.721 6.68 8.506z"/><path fill="#1E40AF" fill-opacity=".4" d="m1892.3 361.109-7.76-3.255-3.6 11.883 7.76 3.256zM1840.06 1293.51l-12.81-2.54 8.63 29.8 12.82 2.53z"/><path fill="#2563EB" fill-opacity="0" d="m1446.3 1224.94 1.67-7.59-7.86-2.62-1.67 7.6zM409.454 959.125l9.757-1.932-3.296-20.871-9.756 1.932zM1095.55 834.03l1.1-6.745-17.82-5.302-1.1 6.744z"/><path fill="#1D4ED8" fill-opacity="1" d="m1706.55 451.407-5.45-7.518-13.06 5.473 5.46 7.519z"/><path fill="#1E3A8A" fill-opacity=".4" d="m1774.57 1623.66 7.52-3.12-14.59-23.86-7.52 3.13z"/><path fill="#1D4ED8" fill-opacity="1" d="m1885.98 886.446 6.55-3.938-17.4-22.519-6.55 3.938zM1490.56 757.084l8.04-5.873-21.13-25.633-8.03 5.873z"/><path fill="#2563EB" fill-opacity="0" d="m1860.81 740.566-10.69-9.295-7.24 9.427 10.69 9.295z"/><path fill="#1E3A8A" fill-opacity=".4" d="m1443.11 1977.51 3.73-9.49-29.79-18.62-3.73 9.49z"/><path fill="#2563EB" fill-opacity="0" d="m2097.41 1395.52-13.85-5.81 1.37 27.8 13.85 5.81z"/><path fill="#1E3A8A" fill-opacity=".4" d="m1683.09 547.105 4.4-11.085-35.56-19.716-4.4 11.086z"/><path fill="#1E40AF" fill-opacity=".4" d="m359.22 365.921 2.089-9.927-12.763-1.584-2.088 9.927z"/><path fill="#1D4ED8" fill-opacity="1" d="m398.337 750.818 3.765-13-23.724-4.408-3.765 13z"/><path fill="#1E3A8A" fill-opacity=".4" d="m542.876 1030.18 6.472-4.48-6.468-9.12-6.471 4.47z"/><path fill="#2563EB" fill-opacity="0" d="m1055.08 508.948-1.89-8.05-17.22 2.869 1.89 8.049z"/><path fill="#1E40AF" fill-opacity=".4" d="m1824.18 1968.6-9.53-9.23-11.76 15.06 9.53 9.23z"/><path fill="#1E3A8A" fill-opacity=".4" d="m622.644 1202.95-1.679-12.18-34.917-3.1 1.68 12.17zM558.777 767.014l-9.613-7.385-8.237 12.397 9.613 7.385z"/><path fill="#2563EB" fill-opacity="0" d="m158.251 991.758-7.626-11.147-16.493 11.693 7.626 11.146z"/><path fill="#1E40AF" fill-opacity=".4" d="m1693.35 1258.92-5.52-6.54-7.06 6.31 5.52 6.54z"/><path fill="#2563EB" fill-opacity="0" d="m1510.29 1175.04-8.29-9.62-16.68 11.15 8.29 9.62z"/><path fill="#1D4ED8" fill-opacity="1" d="m2029.55 1392.16 5.06-10.4-21.06-13.26-5.06 10.4z"/><path fill="#1E40AF" fill-opacity=".4" d="m1019.83 488.004 10.08-7.297-17.68-23.302-10.08 7.298z"/><path fill="#1D4ED8" fill-opacity="1" d="m799.515 1240.16 6.51-2.32-12.855-21.22-6.511 2.32zM2059.41 2024.9l13.78 2.86-7.45-17.59-13.77-2.86z"/><path fill="#1E40AF" fill-opacity=".4" d="m1426.21 198.972-.75-7.091-11.93-.85.74 7.091zM1900.56 1851.95l-6.63-8.37-12.16 7.71 6.64 8.38zM355.946 1013.53l7.454-.72-3.458-8.25-7.454.72z"/><path fill="#1E3A8A" fill-opacity=".4" d="m1016.84 1084.88-9.82-9.85-12.892 11.49 9.822 9.86zM1185.51 574.138l-6.04-6.097-5.25 5.3 6.04 6.097z"/><path fill="#1E40AF" fill-opacity=".4" d="m231.932 683.969.121-6.895-12.22 2.084-.121 6.895z"/><path fill="#1D4ED8" fill-opacity="1" d="m1101.57 419.92 3.97-5.402-6.56-5.181-3.97 5.402z"/><path fill="#1E3A8A" fill-opacity=".4" d="m349.967 1178.85-2.422-9.8-26.146 5.62 2.423 9.81z"/><path fill="#2563EB" fill-opacity="0" d="m854.027 1180.57.524-12.3-38.458-15.58-.524 12.3z"/><path fill="#1E3A8A" fill-opacity=".4" d="m1413.46 1221.37 1.47-6.59-14.78-5.14-1.47 6.59z"/><path fill="#2563EB" fill-opacity="0" d="m357.379 591.65-11.971-1.046-1.534 21.919 11.971 1.046z"/><path fill="#1E3A8A" fill-opacity=".4" d="m2152.65 698.933-9.43-9.904-19.19 16.759 9.42 9.903z"/><path fill="#2563EB" fill-opacity="0" d="m1500.06 1015.98-9.43-7-4.2 8.55 9.43 6.99z"/><path fill="#1E3A8A" fill-opacity=".4" d="m1108.12 1265.82 8.23-2.08-.06-21.37-8.23 2.08z"/><path fill="#1E40AF" fill-opacity=".4" d="m1661.43 872.25-4.14-6.582-13.58 5.476 4.15 6.582z"/><path fill="#1E3A8A" fill-opacity=".4" d="m420.521 812.467-9.541-2.19 2.812 19.513 9.54 2.189zM1849.83 340.232l-5.44-6.584-16.87 14.325 5.45 6.583z"/><path fill="#1D4ED8" fill-opacity="1" d="m1122.55 1384.19-5.7-7.61-20.08 14.27 5.71 7.6z"/><path fill="#1E40AF" fill-opacity=".4" d="m1924.97 807.545-6.54-3.641-9.49 14.291 6.54 3.641z"/><path fill="#1D4ED8" fill-opacity="1" d="m1256.84 1270.5 10.94-2.97-8.89-22.81-10.94 2.96z"/><path fill="#2563EB" fill-opacity="0" d="m1782.78 1320.88 7.39-6.47-9.55-11.12-7.39 6.48zM1069.24 555.462l-3.07-6.353-17.95 8.464 3.07 6.353z"/><path fill="#1E3A8A" fill-opacity=".4" d="m1866.09 1290.16 9.58-7.56-9.62-12.45-9.58 7.56z"/><path fill="#1E40AF" fill-opacity=".4" d="m920.74 1737.47-2.535-11.22-24.515-4.31 2.535 11.21z"/><path fill="#1E3A8A" fill-opacity=".4" d="m868.36 1184.88 2.869-10.87-15.529-2.5-2.869 10.87zM1117.23 900.299l11.82-3.147-17.35-34.952-11.82 3.147z"/><path fill="#1E40AF" fill-opacity=".4" d="m1435.59 656.179-10.9-2.741-10.62 23.745 10.9 2.741zM2216.9 715.664l-9.47-5.408-2.37 9.098 9.47 5.408zM2053.48 400.588l4.11-10.213-12.96-5.252-4.12 10.213zM723.487 1490.79l-7.637-13.15-18.744 1.77 7.638 13.15z"/><path fill="#1D4ED8" fill-opacity="1" d="m465.959 1594.44-9.307-6.35-14.191 22.24 9.307 6.34zM1707.2 651.822l3.57-12.148-19.65-.354-3.58 12.148z"/><path fill="#1E3A8A" fill-opacity=".4" d="m444.322 1377.71-6.08-2.96-6.025 10.88 6.08 2.96zM2315.94 2026.21l-11.48-8.92-5.73 10.88 11.48 8.91z"/><path fill="#1D4ED8" fill-opacity="1" d="M1896.43 10.01 1891.81 0l-28.61 14.203 4.63 10.01z"/><path fill="#1E40AF" fill-opacity=".4" d="m1343.42 1142.96-8.51-2.63-5.22 15.31 8.51 2.64z"/><path fill="#1E3A8A" fill-opacity=".4" d="m910.964 427.247-9.771-1.22-4.136 16.884 9.77 1.219z"/><path fill="#1D4ED8" fill-opacity="1" d="m1816.17 420.126-1.86-8.019-20.35 2.585 1.86 8.018zM1263.38 1532.65l-9.81-3.26-4.18 18.98 9.82 3.27z"/><path fill="#1E40AF" fill-opacity=".4" d="m1842.45 584.935 4.39-9.953-23.74-14.518-4.39 9.952z"/><path fill="#1E3A8A" fill-opacity=".4" d="m1849.61 741.63 5.5-6.06-20.33-20.138-5.51 6.06zM1176.81 712.643l7.17-5.477-6.49-9.544-7.17 5.477z"/><path fill="#1E40AF" fill-opacity=".4" d="m408.416 621.371 4.477-12.898-17.049-3.149-4.477 12.898z"/><path fill="#1D4ED8" fill-opacity="1" d="m1176.71 964.645-5.91-11.721-15.47 3.833 5.91 11.721z"/><path fill="#2563EB" fill-opacity="0" d="m1185.96 1242.25-7.52-1.96 1.93 10.74 7.52 1.96z"/><path fill="#1E3A8A" fill-opacity=".4" d="m972.698 892.248 7.39-.852-10.236-17.223-7.39.852z"/><path fill="#1E40AF" fill-opacity=".4" d="m1261.46 846.423-1.98-8.241-12.07-1.738 1.98 8.242zM859.315 965.747l9.732 1.077.463-20.499-9.732-1.077z"/><path fill="#1D4ED8" fill-opacity="1" d="m1737.81 931.993 8.23-3.116-4.51-11.417-8.23 3.117z"/><path fill="#1E3A8A" fill-opacity=".4" d="m1526.9 779.184 7.77-.561-4.05-11.034-7.77.562zM322.737 755.88l7.331-7.314-12.306-12.276-7.331 7.314z"/><path fill="#1E40AF" fill-opacity=".4" d="m1289.29 448.639-3.06-10.86-23.13 4.178 3.06 10.859z"/><path fill="#1D4ED8" fill-opacity="1" d="m2103.69 612.084-.78-9.004-26.03-.454.79 9.004zM1487.7 1583.59l10.28-4.52-11.23-19.58-10.28 4.52z"/><path fill="#1E3A8A" fill-opacity=".4" d="m1192.76 754.635-9.29-8.93-18.11 18.761 9.29 8.93zM1013.63 1260.95l8.47-.17-8.52-15.77-8.48.17zM634.65 213.78l-.634-11.77-21.113 5.519.635 11.77z"/><path fill="#1E40AF" fill-opacity=".4" d="m1578.47 741.128-9.84-1.919-1.99 12.831 9.83 1.919z"/></svg>