<?xml version="1.0" standalone="no"?>
<!DOCTYPE svg PUBLIC "-//W3C//DTD SVG 20010904//EN"
 "http://www.w3.org/TR/2001/REC-SVG-20010904/DTD/svg10.dtd">
<svg version="1.0" xmlns="http://www.w3.org/2000/svg"
 width="1024.000000pt" height="1024.000000pt" viewBox="0 0 1024.000000 1024.000000"
 preserveAspectRatio="xMidYMid meet">
<metadata>
Created by potrace 1.14, written by Peter Selinger 2001-2017
</metadata>
<g transform="translate(0.000000,1024.000000) scale(0.100000,-0.100000)"
fill="#000000" stroke="none">
<path d="M4035 8040 c-4 -6 -10 -8 -15 -5 -15 9 -129 -24 -190 -55 -106 -54
-203 -140 -309 -276 -34 -43 -66 -84 -71 -91 -6 -7 -10 -17 -10 -23 0 -5 -4
-10 -10 -10 -5 0 -10 -4 -10 -9 0 -5 -17 -38 -39 -73 -34 -57 -123 -225 -126
-238 0 -3 -11 -24 -23 -47 -12 -24 -20 -43 -17 -43 2 0 -4 -15 -14 -32 -10
-18 -24 -51 -31 -73 -7 -22 -20 -50 -28 -62 -8 -13 -11 -23 -7 -23 4 0 0 -11
-9 -25 -9 -14 -14 -25 -11 -25 2 0 -6 -25 -20 -55 -13 -31 -24 -58 -25 -60 0
-3 0 -6 -1 -7 0 -2 -2 -10 -4 -18 -2 -8 -22 -68 -44 -132 -22 -65 -37 -118
-34 -118 3 0 1 -6 -5 -12 -5 -7 -17 -44 -27 -83 -9 -38 -20 -74 -23 -80 -4 -5
-7 -14 -8 -20 -3 -16 -55 -218 -61 -235 -3 -8 -7 -23 -9 -32 -2 -10 -6 -26 -8
-35 -2 -10 -6 -25 -9 -33 -13 -35 -57 -242 -52 -249 4 -7 143 -60 158 -61 1 0
40 -13 87 -28 47 -16 88 -30 93 -31 4 0 8 -1 10 -2 1 0 9 -2 17 -4 8 -2 40
-11 70 -20 30 -9 68 -18 84 -21 16 -3 40 -10 54 -15 14 -5 27 -7 30 -5 2 3 12
1 22 -4 9 -5 32 -12 51 -15 19 -3 54 -11 79 -17 25 -6 54 -12 65 -14 11 -1 29
-5 40 -7 11 -3 54 -10 95 -16 41 -7 82 -15 90 -18 8 -3 35 -7 60 -8 25 -2 54
-6 65 -9 18 -3 50 -8 164 -22 14 -2 49 -5 76 -8 28 -3 75 -8 105 -11 135 -14
302 -25 465 -30 139 -5 619 -5 705 0 205 11 280 16 320 20 25 2 81 6 125 10
124 11 240 23 275 30 9 2 41 6 71 10 30 3 77 10 104 15 49 9 79 14 160 26 22
4 42 9 45 13 3 3 16 6 30 7 29 1 78 10 135 24 41 11 69 17 108 24 12 2 29 7
37 10 8 3 26 8 40 10 50 10 179 48 348 103 l173 57 -5 36 c-3 19 -14 73 -26
120 -11 47 -22 96 -24 110 -3 14 -17 72 -31 130 -15 58 -28 110 -29 115 -1 6
-5 16 -9 23 -5 6 -6 12 -3 12 3 0 -2 23 -10 52 -9 28 -17 59 -19 67 -2 9 -10
36 -19 61 -9 25 -16 53 -16 63 0 9 -4 25 -9 35 -6 9 -19 49 -31 87 -11 39 -24
77 -27 85 -3 8 -7 20 -9 27 -6 30 -110 302 -126 331 -10 18 -18 38 -18 44 0
22 -142 301 -203 397 -119 192 -240 324 -367 403 -40 25 -130 69 -130 64 0 -2
-19 2 -42 9 -24 7 -51 11 -60 9 -10 -1 -20 2 -24 7 -3 5 -9 7 -14 4 -5 -3 -39
-8 -77 -10 -69 -5 -76 -6 -128 -19 -85 -21 -248 -99 -310 -148 -51 -41 -106
-78 -114 -78 -6 0 -11 -4 -11 -9 0 -11 -141 -74 -210 -94 -179 -52 -381 -37
-550 41 -30 14 -58 24 -62 24 -5 -1 -8 2 -8 8 0 6 -7 10 -15 10 -8 0 -15 5
-15 10 0 6 -6 10 -13 10 -8 0 -22 9 -32 20 -10 11 -24 20 -31 20 -7 0 -14 4
-16 8 -6 15 -123 89 -188 119 -89 41 -114 50 -200 70 -8 2 -45 5 -82 7 -37 3
-72 7 -77 10 -5 4 -12 2 -16 -4z"/>
<path d="M919 6115 c-3 -2 -16 -6 -30 -8 -50 -10 -115 -50 -166 -104 -29 -30
-52 -58 -51 -61 1 -4 -4 -20 -10 -35 -27 -65 -22 -203 8 -242 5 -5 9 -14 10
-20 4 -16 20 -58 36 -89 8 -16 14 -35 14 -43 0 -7 5 -13 10 -13 6 0 10 -6 10
-13 0 -13 50 -114 118 -237 36 -65 199 -321 211 -330 3 -3 22 -27 41 -55 19
-27 41 -58 50 -69 18 -23 71 -87 125 -152 133 -161 380 -403 565 -553 66 -54
159 -128 181 -144 36 -27 192 -136 209 -147 8 -5 41 -28 73 -50 32 -22 60 -40
62 -40 6 0 108 -62 115 -69 3 -4 23 -16 45 -28 22 -12 69 -37 105 -57 100 -55
402 -203 433 -211 4 -2 9 -4 12 -5 3 -1 8 -3 13 -4 4 -1 27 -12 52 -23 25 -12
72 -31 105 -43 33 -13 69 -26 80 -30 68 -26 91 -35 100 -37 19 -4 110 -35 130
-43 18 -8 87 -27 125 -35 8 -2 35 -10 60 -18 25 -8 86 -25 135 -37 50 -12 97
-24 105 -27 8 -3 18 -5 23 -5 4 1 26 -2 50 -7 23 -6 56 -12 72 -15 17 -3 41
-8 55 -11 14 -3 41 -8 60 -11 19 -3 46 -7 60 -10 14 -2 43 -6 65 -9 22 -3 51
-8 65 -10 14 -3 50 -8 80 -10 30 -3 71 -7 90 -10 65 -9 195 -17 277 -19 46 0
83 -4 83 -8 0 -4 7 -5 15 -1 27 10 155 9 155 -2 0 -7 3 -7 8 0 4 6 56 10 117
11 102 0 269 10 340 18 17 2 59 7 95 11 36 3 79 9 95 12 17 3 44 7 60 8 17 2
44 6 60 9 37 7 90 17 130 23 17 2 71 14 120 25 50 11 99 21 110 22 11 2 27 6
35 9 8 3 40 11 70 18 30 6 62 15 70 19 8 5 29 11 45 14 56 10 369 112 420 136
11 5 65 27 120 49 130 51 197 81 325 144 136 67 370 195 392 215 10 8 18 12
18 8 0 -4 6 -2 13 4 6 6 68 47 137 91 69 45 127 84 130 88 3 3 25 19 50 35
244 157 664 547 880 815 19 24 46 57 59 73 13 16 57 75 97 131 41 56 78 107
84 114 5 7 10 17 10 23 0 5 3 10 8 10 4 0 12 9 17 20 6 10 29 50 51 87 68 111
145 256 187 353 13 30 33 75 44 100 56 126 66 218 31 300 -8 19 -17 40 -18 45
-7 19 -65 78 -105 105 -56 38 -129 58 -206 55 -119 -4 -188 -36 -267 -124
-167 -186 -313 -312 -504 -436 -57 -37 -114 -75 -128 -85 -14 -9 -35 -20 -48
-24 -12 -4 -22 -12 -22 -17 0 -5 -9 -9 -19 -9 -11 0 -21 -4 -23 -8 -1 -5 -30
-22 -63 -38 -33 -17 -71 -37 -85 -44 -14 -8 -27 -15 -30 -15 -3 -1 -45 -20
-94 -43 -49 -23 -92 -42 -95 -42 -3 -1 -24 -9 -46 -20 -22 -11 -43 -19 -46
-20 -4 0 -24 -8 -45 -17 -22 -9 -43 -18 -49 -19 -5 -2 -55 -19 -110 -39 -55
-20 -107 -39 -115 -41 -8 -2 -53 -15 -100 -30 -87 -26 -183 -54 -210 -59 -8
-2 -51 -12 -95 -24 -144 -36 -318 -73 -352 -74 -7 0 -13 -3 -13 -6 0 -3 -10
-6 -22 -7 -27 0 -116 -13 -138 -19 -27 -7 -296 -46 -308 -44 -4 1 -9 0 -12 -1
-3 -1 -21 -4 -40 -5 -19 -2 -57 -6 -85 -9 -27 -3 -84 -8 -125 -11 -41 -4 -91
-8 -110 -10 -49 -5 -258 -17 -365 -21 -173 -6 -830 -2 -830 5 0 1 -47 4 -105
7 -58 2 -127 6 -155 9 -207 16 -251 20 -310 28 -16 3 -59 8 -95 11 -36 4 -76
9 -90 11 -43 7 -84 13 -130 20 -57 8 -89 13 -120 20 -14 3 -41 8 -61 9 -20 2
-45 6 -55 10 -11 3 -32 7 -49 10 -64 11 -235 50 -340 78 -60 16 -121 31 -135
34 -14 3 -34 8 -45 11 -11 4 -22 7 -25 8 -6 1 -148 44 -170 52 -8 3 -58 21
-110 40 -52 19 -99 35 -105 37 -5 1 -27 10 -49 19 -21 9 -44 17 -52 17 -7 0
-15 4 -19 9 -3 5 -22 15 -43 22 -20 7 -88 36 -151 66 -62 29 -116 53 -120 53
-3 0 -17 9 -31 20 -14 11 -32 20 -42 20 -9 0 -18 4 -20 8 -1 5 -37 27 -78 50
-117 66 -323 200 -340 222 -3 3 -32 27 -65 52 -70 53 -194 173 -280 271 -80
91 -157 129 -266 133 -42 2 -78 1 -80 -1z"/>
</g>
</svg>
