<svg fill="none" xmlns="http://www.w3.org/2000/svg" viewBox="0 0 1171 371"><g clip-path="url(#a)"><path d="M779.25 261.482c-20.123 0-37.348-3.984-51.676-11.953-14.328-8.049-25.315-19.238-32.962-33.565-7.647-14.408-11.47-31.111-11.47-50.107s3.823-35.658 11.47-49.986c7.647-14.408 18.634-25.5962 32.962-33.5649 14.328-8.0492 31.553-12.0739 51.676-12.0739s37.348 4.0247 51.676 12.0739c14.328 7.9687 25.315 19.1569 32.962 33.5649 7.647 14.328 11.47 30.99 11.47 49.986s-3.823 35.699-11.47 50.107c-7.647 14.327-18.634 25.516-32.962 33.565-14.328 7.969-31.553 11.953-51.676 11.953m.483-49.261c5.634 0 10.504-1.892 14.609-5.675s7.285-9.176 9.539-16.179c2.253-7.003 3.38-15.334 3.38-24.993 0-9.739-1.127-18.07-3.38-24.993-2.254-7.002-5.434-12.395-9.539-16.179-4.105-3.783-8.975-5.674-14.609-5.674-5.956 0-11.068 1.891-15.334 5.674q-6.399 5.676-9.78 16.179c-2.253 6.923-3.38 15.254-3.38 24.993 0 9.659 1.127 17.99 3.38 24.993q3.381 10.5045 9.78 16.179c4.266 3.783 9.378 5.675 15.334 5.675" fill="#fff"/><path d="M68.3015 378.77 5.0273 170.403h64.9503L99.31 298.597h1.676l34.78-128.194h51.122l34.78 128.601h1.676l29.333-128.601h64.95L254.353 378.77h-55.732l-36.456-116.393h-1.676L124.033 378.77zm274.4815 2.442c-10.267 0-19.346-1.628-27.238-4.884-7.822-3.323-13.968-8.342-18.437-15.057-4.47-6.716-6.705-15.262-6.705-25.64 0-8.546 1.502-15.837 4.505-21.874 3.003-6.104 7.193-11.09 12.571-14.956 5.377-3.866 11.628-6.817 18.752-8.852 7.193-2.034 14.945-3.357 23.256-3.968 9.009-.678 16.238-1.492 21.685-2.441 5.517-1.018 9.498-2.408 11.943-4.172 2.444-1.832 3.666-4.239 3.666-7.224v-.407c0-4.069-1.606-7.189-4.819-9.36-3.212-2.171-7.333-3.256-12.361-3.256-5.518 0-10.022 1.187-13.514 3.562-3.422 2.306-5.483 5.867-6.181 10.682h-53.217c.698-9.495 3.806-18.246 9.323-26.25 5.587-8.07 13.724-14.514 24.409-19.33 10.685-4.884 24.025-7.325 40.018-7.325 11.523 0 21.859 1.323 31.008 3.967 9.149 2.578 16.936 6.207 23.361 10.886 6.426 4.614 11.314 10.04 14.667 16.28 3.422 6.172 5.133 12.887 5.133 20.144V378.77h-54.056v-21.976h-1.257q-4.818 8.7495-11.733 14.142c-4.539 3.595-9.742 6.206-15.609 7.834-5.796 1.628-12.187 2.442-19.17 2.442m18.856-35.407c4.4 0 8.52-.882 12.362-2.644 3.911-1.764 7.088-4.308 9.533-7.631 2.444-3.323 3.666-7.36 3.666-12.108v-13.023c-1.536.611-3.178 1.187-4.924 1.73-1.676.543-3.491 1.052-5.447 1.527-1.886.473-3.911.914-6.076 1.321-2.095.407-4.295.781-6.6 1.12-4.469.678-8.136 1.797-10.999 3.358-2.794 1.491-4.889 3.357-6.286 5.596-1.327 2.169-1.99 4.612-1.99 7.325 0 4.341 1.571 7.664 4.714 9.97 3.143 2.307 7.158 3.459 12.047 3.459m237.03-72.44h-53.217c-.28-3.187-1.432-5.935-3.458-8.241-2.025-2.306-4.644-4.07-7.856-5.291q-4.7145-1.932-10.476-1.932c-4.959 0-9.219.882-12.781 2.645s-5.308 4.273-5.238 7.529c-.07 2.306.943 4.442 3.038 6.41 2.165 1.967 6.321 3.492 12.467 4.578l32.684 5.697c16.482 2.917 28.739 7.835 36.77 14.753 8.102 6.851 12.187 16.041 12.257 27.572-.07 11.124-3.492 20.789-10.266 28.997q-10.0575 12.2085-27.552 18.924c-11.593 4.408-24.827 6.613-39.703 6.613-24.583 0-43.824-4.884-57.722-14.651-13.828-9.768-21.545-22.654-23.152-38.662h57.408c.768 4.951 3.282 8.784 7.543 11.496 4.33 2.646 9.777 3.969 16.342 3.969q7.962 0 13.095-2.646c3.492-1.763 5.273-4.273 5.342-7.529-.069-2.984-1.606-5.358-4.609-7.122-2.933-1.763-7.543-3.187-13.828-4.273l-28.494-4.883c-16.413-2.782-28.704-8.072-36.875-15.871-8.172-7.801-12.222-17.84-12.152-30.117-.07-10.852 2.863-20.042 8.799-27.572 6.006-7.597 14.562-13.362 25.666-17.296 11.174-4.002 24.409-6.002 39.704-6.002 23.256 0 41.589 4.68 54.998 14.04 13.479 9.36 20.567 22.315 21.266 38.865m63.523 17.5v87.905h-57.826V170.403h55.731v81.8h1.676c3.632-9.971 9.673-17.737 18.123-23.299 8.451-5.63 18.613-8.444 30.485-8.444 11.384 0 21.266 2.509 29.647 7.529 8.45 5.019 14.98 11.938 19.59 20.755 4.679 8.818 6.984 18.924 6.914 30.319v99.707h-57.827v-87.905c.07-7.732-1.921-13.803-5.971-18.212-3.981-4.409-9.673-6.613-17.076-6.613-4.679 0-8.8 1.017-12.361 3.052-3.492 1.968-6.216 4.816-8.171 8.546q-2.829 5.4945-2.934 13.227m112.236 87.905V222.494h57.827V378.77zm28.914-172.554c-7.822 0-14.527-2.51-20.114-7.53-5.587-5.019-8.38-11.055-8.38-18.11 0-7.054 2.793-13.091 8.38-18.11s12.292-7.528 20.114-7.528c7.892 0 14.596 2.509 20.113 7.528 5.588 5.019 8.381 11.056 8.381 18.11 0 7.055-2.793 13.091-8.381 18.11-5.517 5.02-12.221 7.53-20.113 7.53m95.553 84.649v87.905h-57.826V222.494h54.893v29.709h1.676c3.492-9.903 9.638-17.67 18.438-23.299 8.869-5.63 19.205-8.444 31.008-8.444 11.384 0 21.266 2.543 29.647 7.631q12.675 7.5285 19.59 20.754c4.679 8.818 6.989 18.891 6.919 30.218v99.707h-57.832v-87.905c.07-7.732-1.955-13.803-6.076-18.212-4.051-4.409-9.708-6.613-16.971-6.613-4.749 0-8.904 1.017-12.466 3.052-3.492 1.968-6.181 4.816-8.067 8.546-1.885 3.663-2.863 8.072-2.933 13.227m189.755 149.764c-16.13 0-29.96-2.239-41.48-6.715-11.45-4.408-20.36-10.513-26.71-18.313-6.29-7.733-9.82-16.618-10.58-26.657h55.73c.56 3.324 1.95 6.003 4.19 8.038 2.23 2.035 5.1 3.492 8.59 4.374q5.34 1.425 11.94 1.425c7.47 0 13.65-1.764 18.54-5.29 4.96-3.528 7.44-9.903 7.44-19.128V351.91h-1.68c-2.09 5.29-5.3 9.801-9.63 13.532-4.33 3.663-9.54 6.477-15.61 8.445-6.08 1.898-12.75 2.848-20.01 2.848-11.46 0-22-2.577-31.64-7.732-9.57-5.156-17.25-13.328-23.05-24.52-5.72-11.192-8.59-25.808-8.59-43.851 0-18.856 3.01-34.185 9.01-45.987 6.08-11.802 13.9-20.45 23.47-25.945 9.64-5.494 19.76-8.24 30.38-8.24 7.96 0 14.94 1.357 20.95 4.069 6.01 2.646 11.04 6.206 15.09 10.683 4.05 4.409 7.12 9.259 9.21 14.549h1.26v-27.267h57.83v155.869c0 13.227-3.53 24.452-10.58 33.677-6.99 9.292-16.83 16.38-29.54 21.264-12.71 4.883-27.56 7.325-44.53 7.325m2.1-103.777c5.31 0 9.85-1.424 13.62-4.273 3.84-2.916 6.77-7.054 8.8-12.412 2.09-5.427 3.14-11.939 3.14-19.535 0-7.732-1.05-14.346-3.14-19.839-2.03-5.562-4.96-9.801-8.8-12.718-3.77-2.984-8.31-4.477-13.62-4.477s-9.85 1.493-13.62 4.477c-3.7 2.917-6.56 7.156-8.59 12.718-1.96 5.493-2.93 12.107-2.93 19.839s.97 14.311 2.93 19.738c2.03 5.359 4.89 9.462 8.59 12.31 3.77 2.782 8.31 4.172 13.62 4.172" fill="#32BBFE"/><path d="M160.609 249.599V14.3906h65.749V198.147h97.913v51.452zm218.488 2.756c-11.589 0-21.837-1.838-30.746-5.513-8.829-3.751-15.767-9.417-20.812-16.997-5.046-7.58-7.569-17.227-7.569-28.942 0-9.647 1.695-17.878 5.085-24.692 3.39-6.891 8.12-12.518 14.191-16.883 6.07-4.364 13.126-7.695 21.167-9.992 8.12-2.297 16.871-3.789 26.252-4.479 10.17-.765 18.329-1.684 24.478-2.756 6.228-1.148 10.722-2.718 13.481-4.709 2.759-2.067 4.139-4.785 4.139-8.154v-.459c0-4.594-1.813-8.117-5.44-10.566q-5.439-3.675-13.953-3.675c-6.228 0-11.313 1.339-15.255 4.02-3.863 2.603-6.189 6.623-6.977 12.058h-60.072c.788-10.719 4.296-20.596 10.524-29.63 6.307-9.1119 15.491-16.3852 27.553-21.8213 12.062-5.5127 27.119-8.269 45.173-8.269 13.007 0 24.675 1.493 35.002 4.479 10.328 2.9095 19.118 7.0058 26.371 12.2882 7.253 5.2067 12.771 11.332 16.555 18.3761 3.863 6.968 5.795 14.548 5.795 22.74v120.82H433.02v-24.808h-1.419c-3.626 6.585-8.041 11.906-13.244 15.965-5.124 4.057-10.998 7.005-17.62 8.843-6.543 1.837-13.757 2.756-21.64 2.756m21.285-39.967c4.967 0 9.618-.996 13.954-2.986q6.6225-2.9865 10.761-8.613c2.759-3.752 4.139-8.308 4.139-13.668v-14.7c-1.734.689-3.587 1.34-5.558 1.952-1.892.613-3.942 1.187-6.149 1.723-2.129.536-4.415 1.033-6.859 1.493-2.365.459-4.848.881-7.45 1.263-5.045.766-9.184 2.029-12.416 3.791-3.154 1.684-5.519 3.789-7.095 6.316-1.498 2.45-2.247 5.206-2.247 8.269 0 4.9 1.774 8.652 5.321 11.255 3.548 2.603 8.081 3.905 13.599 3.905m189.043 107.038c-18.211 0-33.82-2.527-46.828-7.58-12.929-4.976-22.981-11.867-30.155-20.672-7.095-8.729-11.076-18.759-11.943-30.091h62.91c.631 3.752 2.208 6.776 4.73 9.073 2.523 2.297 5.755 3.943 9.697 4.939 4.021 1.072 8.514 1.608 13.481 1.608 8.435 0 15.412-1.991 20.931-5.972 5.597-3.982 8.396-11.179 8.396-21.592v-29.86h-1.892c-2.365 5.972-5.992 11.064-10.88 15.275-4.887 4.134-10.761 7.312-17.619 9.532-6.859 2.143-14.388 3.216-22.587 3.216-12.929 0-24.833-2.91-35.712-8.729-10.8-5.819-19.472-15.044-26.016-27.678-6.464-12.633-9.696-29.133-9.696-49.499 0-21.285 3.39-38.589 10.169-51.911C513.27 96.1619 522.1 86.4001 532.9 80.1984q16.3185-9.3028 34.293-9.3027c8.988 0 16.871 1.5313 23.651 4.5939q10.17 4.479 17.028 12.0587c4.573 4.9774 8.042 10.4512 10.407 16.4227h1.419V73.1926h65.275V249.139c0 14.931-3.981 27.602-11.943 38.015q-11.826 15.7335-33.348 24.003c-14.348 5.513-31.1 8.269-50.257 8.269m2.365-117.144c5.991 0 11.116-1.609 15.373-4.824 4.336-3.293 7.647-7.963 9.933-14.012 2.365-6.124 3.548-13.475 3.548-22.05 0-8.728-1.183-16.194-3.548-22.395-2.286-6.279-5.597-11.064-9.933-14.357-4.257-3.369-9.382-5.053-15.373-5.053s-11.116 1.684-15.373 5.053c-4.178 3.293-7.41 8.078-9.697 14.357-2.207 6.201-3.311 13.667-3.311 22.395s1.104 16.155 3.311 22.28c2.287 6.049 5.519 10.68 9.697 13.896 4.257 3.14 9.382 4.71 15.373 4.71m441.22-71.666h-60.073c-.316-3.598-1.616-6.699-3.903-9.302-2.286-2.604-5.242-4.595-8.869-5.973-3.547-1.454-7.489-2.181-11.825-2.181-5.597 0-10.406.994-14.427 2.985-4.02 1.991-5.991 4.824-5.912 8.499-.079 2.603 1.064 5.016 3.429 7.236 2.444 2.22 7.134 3.943 14.072 5.168l36.895 6.431c18.603 3.292 32.443 8.844 41.503 16.653 9.15 7.733 13.76 18.108 13.84 31.124-.08 12.557-3.94 23.468-11.59 32.732-7.57 9.188-17.93 16.308-31.1 21.362-13.087 4.976-28.026 7.464-44.818 7.464-27.75 0-49.469-5.512-65.157-16.537-15.61-11.026-24.321-25.573-26.134-43.642h64.802c.868 5.589 3.706 9.915 8.515 12.977 4.887 2.986 11.037 4.479 18.447 4.479 5.992 0 10.919-.996 14.782-2.986 3.941-1.99 5.952-4.823 6.031-8.499-.079-3.369-1.814-6.048-5.204-8.039-3.311-1.991-8.514-3.598-15.609-4.824l-32.165-5.513c-18.526-3.139-32.401-9.111-41.625-17.915-9.223-8.805-13.796-20.137-13.717-33.996-.079-12.25 3.232-22.625 9.933-31.1237 6.78-8.5748 16.437-15.0829 28.972-19.5236 12.614-4.5174 27.553-6.776 44.818-6.776 26.252 0 46.946 5.2829 62.079 15.8485 15.22 10.5667 23.22 25.1898 24.01 43.8718" fill="#fff"/><path d="M563.989 64.5796c-49.871 8.917-57.313 16.145-66.495 64.5794-9.181-48.4344-16.623-55.6624-66.494-64.5794C480.871 55.663 488.313 48.4346 497.494 0c9.182 48.4346 16.624 55.663 66.495 64.5796" fill="#B8E6FF"/><path d="M547.998 33.9906c-7.499 1.3408-8.618 2.4278-9.999 9.7111-1.38-7.2833-2.5-8.3703-9.999-9.7111 7.499-1.3409 8.619-2.4279 9.999-9.7113 1.381 7.2834 2.5 8.3704 9.999 9.7113" fill="#32BBFE"/></g><defs><clipPath id="a"><path fill="#fff" d="M0 0h1171v371H0z"/></clipPath></defs></svg>