<svg xmlns="http://www.w3.org/2000/svg" width="548" height="496" fill="none"><g fill-rule="evenodd" clip-path="url(#a)" clip-rule="evenodd"><path fill="#32bbfe" d="M262.828 26.175c-.73.371-3.501 1.228-6.158 1.903s-5.386 1.782-6.063 2.46c-1.413 1.412-8.666 5.237-9.994 5.27-.489.011-1.164.45-1.5.972-.337.523-2.412 1.935-4.612 3.138-5.876 3.211-11.858 6.806-13 7.812-.55.484-3.25 1.98-6 3.324s-5.225 2.696-5.5 3.004c-.46.516-3.902 2.526-14.5 8.468-2.2 1.233-6.25 3.505-9 5.05-2.75 1.542-5.331 3.282-5.735 3.865-.404.582-.741.704-.75.27-.008-.435-.577-.286-1.265.33-1.315 1.18-11.849 7.262-27.75 16.024-5.225 2.88-9.831 5.73-10.235 6.335-.428.641-.747.683-.765.1-.017-.569-.347-.52-.765.116-.404.613-2.693 2.188-5.086 3.5a474 474 0 0 0-8.646 4.884 401 401 0 0 1-9.649 5.381c-2.945 1.585-5.579 3.212-5.854 3.616-.527.774-7.968 4.712-9.25 4.896-2.44.349-15.75 13.416-17.934 17.607-1.146 2.2-2.421 4.225-2.833 4.5-.892.597-3.983 9.482-3.983 11.452 0 .76-.337 1.531-.75 1.715-.412.183-.616 11.36-.452 24.836l.298 24.504 4.5-.358 4.502-.358-.135-21.646c-.075-11.905.07-22.32.322-23.145.253-.825 1.214-4.088 2.138-7.25s2.18-5.75 2.795-5.75c.613 0 .842-.273.509-.607-.334-.333-.18-1.121.342-1.75.522-.628 2.755-3.469 4.96-6.313 2.208-2.843 6.141-6.544 8.742-8.224 2.601-1.679 5.292-3.533 5.979-4.119s1.25-.805 1.25-.487.562.077 1.25-.536c1.556-1.387 7.959-5.241 13.25-7.974 2.2-1.136 6.925-3.828 10.5-5.983s8.075-4.725 10-5.712 3.831-2.245 4.235-2.795q.734-1 .765 0c.017.57.347.52.765-.116.404-.613 2.76-2.136 5.235-3.384s4.725-2.599 5-3.003c.696-1.022 10.856-6.083 11.564-5.76.317.144 1.017-.524 1.556-1.487s1.6-1.75 2.358-1.75c.759 0 1.974-.582 2.701-1.293 1.306-1.279 8.512-5.557 14.321-8.502 1.65-.837 4.238-2.38 5.75-3.43 1.512-1.052 2.75-1.638 2.75-1.304s.563.106 1.25-.507c1.519-1.354 7.98-5.246 12.75-7.679 1.925-.982 3.725-2.062 4-2.4s2.525-1.637 5-2.885 4.831-2.77 5.235-3.384c.418-.636.748-.685.765-.116s.347.52.765-.116c.875-1.328 9.41-5.876 10.485-5.586.412.111.75-.18.75-.646 0-.467 1.8-1.66 4-2.652s4-2.234 4-2.759.675-.696 1.5-.379 1.5.161 1.5-.346c0-1.756 7.55-3.005 18.201-3.01 11.522-.006 20.006 1.344 22.195 3.532.751.752 1.644 1.088 1.985.748.34-.34.619-.094.619.547 0 .642.495 1.167 1.099 1.167 1.244 0 13.073 7.03 14.013 8.326.336.465.907.792 1.268.728.58-.103 7.474 3.476 11.62 6.032.825.508 3.413 1.912 5.75 3.118 2.337 1.207 4.25 2.581 4.25 3.054s.45.582 1 .242 1-.196 1 .32c0 .515 1.35 1.497 3 2.18s3 1.638 3 2.121.337.783.75.667c.704-.2 1.775.331 8.411 4.172 1.464.847 5.064 2.837 8 4.421s5.564 3.16 5.84 3.5c.275.341 2.075 1.485 4 2.543 4.129 2.27 14.294 8.05 20.364 11.576a385 385 0 0 0 8.718 4.884c2.43 1.312 4.748 2.887 5.152 3.5.418.636.748.685.765.116.017-.567.349-.515.765.119.404.615 2.985 2.319 5.735 3.787s7.25 3.97 10 5.561a377 377 0 0 0 9.25 5.162c2.337 1.248 4.25 2.656 4.25 3.129s.45.582 1 .242 1-.251 1 .197 1.246 1.366 2.768 2.04c6.748 2.987 18.072 16.301 20.423 24.013.713 2.338 1.667 4.25 2.12 4.25s.55.862.216 1.916-.14 2.205.432 2.559c.67.414 1.041 8.431 1.041 22.479v21.836l4.052.386c2.229.213 4.254.185 4.5-.061 1.036-1.036.419-48.015-.639-48.669-.598-.369-.865-1.521-.594-2.559.272-1.038.168-1.887-.23-1.887s-1.504-2.475-2.457-5.5c-.954-3.025-2.131-5.5-2.616-5.5s-1.2-1.005-1.59-2.234c-.999-3.147-11.978-14.338-15.496-15.795-1.611-.667-2.93-1.565-2.93-1.994s-1.35-1.252-3-1.827-3-1.519-3-2.098-.337-.961-.75-.85c-1.075.29-9.61-4.258-10.485-5.586-.404-.614-.741-.709-.75-.211-.008.498-.803.228-1.765-.599s-5.35-3.452-9.75-5.833c-4.4-2.38-8.331-4.812-8.735-5.4-.445-.65-.746-.679-.765-.073s-.32.578-.765-.072c-.404-.589-4.196-2.969-8.427-5.288-7.491-4.106-17.784-10.115-20.808-12.147-.825-.555-3.075-1.832-5-2.838s-6.425-3.545-10-5.643-8.3-4.818-10.5-6.047c-11.812-6.596-14.043-7.9-14.5-8.48-.275-.35-4.775-2.997-10-5.884-12.35-6.825-17.213-9.694-18.75-11.065-.687-.613-1.25-.858-1.25-.545 0 .314-2.475-1.013-5.5-2.948s-5.507-3.186-5.515-2.78c-.009.405-.357.2-.774-.456-.418-.657-2.998-1.774-5.735-2.484-2.737-.709-5.201-1.522-5.476-1.806-.743-.768-20.631-.626-22.173.158m3.803 44.075c-.95 3.545-.73 8.75.37 8.75.583 0 1 3.333 1 8v8h3.375c6.209 0 9.625-1.109 9.625-3.125 0-1.52-.756-1.875-4-1.875-3.905 0-4-.083-4-3.5 0-3.222.238-3.5 3-3.5 2.333 0 3-.444 3-2s-.667-2-3-2c-2.762 0-3-.278-3-3.5s.238-3.5 3-3.5c2.333 0 3-.444 3-2 0-1.773-.667-2-5.883-2-5.256 0-5.948.24-6.487 2.25m33.623 10.35c.299 6.928.927 12.945 1.396 13.37s2.089 1.063 3.601 1.42c2.306.543 2.75.322 2.75-1.37 0-1.11.436-2.02.969-2.02s.709-.675.393-1.5c-.317-.825-.109-1.5.461-1.5s1.233-1.013 1.471-2.25c.239-1.237.495.145.57 3.071s.715 5.901 1.423 6.61c1.748 1.747 7.763.864 7.035-1.034-.295-.768-.008-1.397.638-1.397.72 0 .929-.775.54-2-.349-1.1-.226-2 .273-2 .5 0 1.472-2.588 2.161-5.75.688-3.162 1.862-7.01 2.608-8.55 1.252-2.588 1.187-2.868-.843-3.659-2.856-1.114-4.406.825-5.272 6.594-.36 2.401-1.011 4.365-1.447 4.365s-.571.85-.299 1.887c.271 1.038.004 2.19-.594 2.56-.75.463-1.087-1.97-1.087-7.853 0-7.404-.254-8.66-1.934-9.559-3.208-1.717-3.696-1.267-5.014 4.623-.696 3.112-1.861 7.275-2.589 9.25-1.257 3.414-1.326 3.11-1.393-6.158l-.07-9.75h-6.291zM248.033 69.89c-4.2.573-4.521.84-5.376 4.472-.671 2.856-.577 4.068.363 4.65.827.51 1.055 1.87.651 3.886-.354 1.772-.202 3.101.355 3.101.536 0 .981 1.463.989 3.25.022 5.26 1.007 7.521 3.483 7.994 1.927.37 2.419-.075 2.933-2.643.354-1.773.182-3.23-.407-3.427-1.352-.45-1.318-4.874.044-5.715 1.635-1.01 3.934 2.694 3.669 5.913-.263 3.196 2.008 5.324 4.614 4.324 1.309-.502 1.505-1.546 1.016-5.409-.333-2.633-1.221-5.776-1.975-6.985-.858-1.378-1-2.426-.38-2.809 1.486-.918 1.062-4.619-.915-7.993-1.94-3.31-2.577-3.494-9.064-2.609m1.968 3.968c0 .692-.423.997-.941.678-.561-.347-.705.941-.358 3.191.708 4.585.622 4.47 2.707 3.67 1.31-.504 1.546-1.362 1.038-3.775-.692-3.289-2.446-5.988-2.446-3.764m-22.466 1.086c-.706 1.143 2.352 14.036 3.754 15.83.549.7.712 1.56.363 1.907-.348.35-.117 1.257.515 2.018.83 1 .846 1.688.059 2.475-1.527 1.527-4.327.254-3.601-1.637.333-.868.057-1.538-.634-1.538-.731 0-1.013-.805-.7-2 .287-1.1.197-2-.2-2-.398 0-1.298-2.893-2.001-6.429-1.339-6.739-2.856-8.358-5.994-6.398-1.826 1.14-1.796 4.053.067 6.45.48.618.592 1.856.248 2.75-.343.895-.197 1.627.324 1.627s1.519 2.588 2.218 5.75 1.726 6.313 2.282 7c1.248 1.543 6.413 1.617 10.617.152 2.636-.919 3.148-1.61 3.143-4.25-.005-2.968-1.363-9.315-2.707-12.652-.333-.825-.517-1.885-.411-2.355s-.322-1.477-.953-2.238-.9-2.025-.598-2.812c.837-2.182-4.519-3.708-5.791-1.65m109.298 1.89c-.917 1.098-1.416 2.248-1.107 2.556.308.31.059 1.165-.554 1.903s-1.614 3.674-2.225 6.524c-.612 2.85-1.51 5.182-1.997 5.182s-.61.72-.272 1.601c.338.88.015 1.971-.717 2.424-1.107.684-1.104 1.097.017 2.447 2.272 2.738 5.349 1.483 6.303-2.57.734-3.12 1.173-3.538 3.284-3.135 2.412.462 3.253 1.756 1.558 2.4-.483.183-1.164 1.683-1.513 3.333-.53 2.507-.244 3.179 1.738 4.09 3.044 1.398 3.85.171 6.175-9.394.961-3.958 2.091-7.196 2.509-7.196 1.422 0 .373-7.739-1.272-9.384-.901-.9-3.578-1.894-5.948-2.208-3.521-.465-4.617-.204-5.979 1.427m4.691 3.415c-1.644 4.962-2.239 8.807-1.44 9.301 2.35 1.453 5.449-4.296 4.453-8.262-.62-2.47-2.342-3.065-3.013-1.039m-142.77 4.108c-2.583 1.476-3.748 2.841-3.75 4.392-.002 1.237.447 2.25.997 2.25s1 .494 1 1.1c0 .603.749 2.675 1.663 4.603 1.484 3.127 1.998 3.45 4.75 2.986 1.698-.285 3.819-.809 4.714-1.164 1.19-.47 1.808.081 2.305 2.06.844 3.364-.723 5.249-2.877 3.461-1.665-1.382-6.555-.656-6.555.973 0 .54.525.981 1.167.981.641 0 .904.263.583.583-.85.85 2.987 4.417 4.75 4.417.825 0 1.5-.401 1.5-.892 0-.49 1.238-1.201 2.75-1.581 3.979-.997 6.547-4.033 5.296-6.257-.548-.974-1.662-3.464-2.476-5.534-1.769-4.499-3.585-5.374-8.212-3.954-3.221.99-3.533.888-4.412-1.424-1.221-3.21-1.27-3.04 1.054-3.648 1.1-.287 2-.115 2 .384 0 1.46 2.722 1.042 4.448-.685 1.454-1.454 1.383-1.754-.836-3.5-3.018-2.373-5.085-2.279-9.859.45m165.247-.395c-1.375.331-2.944 1.6-3.487 2.82S359.157 89 358.705 89s-.563.42-.247.931c.317.512.118 1.213-.441 1.56-2.338 1.444-1.028 5.57 2.412 7.6 3.152 1.859 3.349 2.252 2.437 4.868-1.17 3.356-4.501 3.543-4.137.231.276-2.512-3.155-3.911-5.276-2.15-3.518 2.919.636 8.228 7.514 9.603 3.034.607 6.029-1.176 6.96-4.143.172-.55.71-2.042 1.194-3.315s.88-2.961.88-3.75c0-1.548-3.547-5.554-4.274-4.828-1.131 1.131-2.423-2.298-1.643-4.357.898-2.37 3.906-3.136 3.932-1 .024 1.97 1.302 3.423 3.652 4.156 1.823.57 2.083.352 1.633-1.365-.306-1.173-.049-2.04.606-2.04 1.852 0-1.82-4.84-4.245-5.597-1.189-.37-2.386-.982-2.661-1.359-.275-.376-1.625-.413-3-.082m-182.904 8.751c-6.307 2.496-9.195 7.096-6.346 10.107.688.727 1.25 1.884 1.25 2.57 0 .687 1.193 2.286 2.652 3.554 2.527 2.197 2.782 2.23 5.404.681 1.514-.894 3.149-1.626 3.633-1.626 1.228 0 4.401 5.577 3.618 6.36-.988.988-4.497.757-3.872-.255.305-.493-.119-1.153-.941-1.469-.822-.315-1.494-.137-1.494.395 0 .533-.675.969-1.5.969-1.96 0-1.92 2.437.071 4.429 2.023 2.022 4.49 1.987 8.926-.129 5.651-2.695 5.655-7.4.012-14.106-3.016-3.585-3.992-3.854-6.152-1.694-2.109 2.109-5.092 1.864-6.37-.524-.838-1.566-.732-2.374.468-3.574 1.401-1.4 1.609-1.399 2.155.024.764 1.99 1.485 1.978 4.007-.068l2.024-1.642-2.185-2.358c-2.234-2.41-2.904-2.616-5.36-1.644m202.904 1.215c0 .51-.627 1.555-1.392 2.321-.766.765-2.594 3.61-4.062 6.321a785 785 0 0 1-5.153 9.342c-1.942 3.448-2.201 4.592-1.189 5.234 2.262 1.435 4.64.92 5.296-1.147.349-1.1 1.081-2 1.626-2 .546 0 .734-.418.418-.928-.838-1.357 3.468-2.46 4.719-1.209.749.749.215 2.283-1.812 5.208-2.794 4.031-2.82 4.186-.953 5.551 2.613 1.911 3.637 1.381 6.177-3.2 1.196-2.157 2.567-4.372 3.046-4.922s2.319-3.678 4.088-6.951c2.795-5.171 3.029-6.14 1.781-7.387-2.027-2.027-3.843-.997-6.12 3.472-1.084 2.126-1.99 3.961-2.014 4.076-.024.116-1.036-.049-2.25-.366-2.559-.67-2.845-2.562-.71-4.697 2.863-2.864 3.551-6.294 1.613-8.048-1.992-1.803-3.109-2.044-3.109-.67m-224.803 13.158c-2.308 1.697-4.197 3.252-4.197 3.455 0 .58 4.803 7.794 6.298 9.458.741.825 2.312 3.105 3.492 5.066s2.982 4.323 4.004 5.248c1.757 1.59 2.112 1.503 6.452-1.583 3.751-2.667 4.416-3.584 3.624-4.999-1.242-2.219-3.497-2.22-4.738-.003-.909 1.625-1.094 1.615-3.05-.155-2.62-2.371-2.647-4.201-.082-5.574 1.1-.589 2-1.519 2-2.067 0-1.725-3.179-2.302-5.321-.965-1.787 1.117-2.293.992-3.868-.953-2.404-2.968-2.288-3.84.689-5.197 2.809-1.28 3.028-1.89 1.3-3.618-1.657-1.657-1.864-1.598-6.603 1.887m243.515 5.073c-2.042 2.289-3.717 4.426-3.723 4.75-.005.325-1.801 2.84-3.989 5.59-4.378 5.502-4.816 6.973-2.359 7.916 1.902.73 5.359-.163 5.359-1.384 0-.98 8.962-13.193 10.469-14.267.567-.404.607-.741.09-.75-.518-.008-.068-.69 1-1.515 1.921-1.485 1.921-1.515 0-3-2.648-2.046-2.649-2.045-6.847 2.66m13.365 7.939c-1.692 1.029-3.081 2.216-3.085 2.636-.005.421-2.48 3.456-5.5 6.745-5.828 6.345-6.349 7.564-4.045 9.476 1.185.983 2.442.172 6.959-4.492 3.032-3.13 6.217-6.765 7.077-8.078 1.492-2.278 4.429-3.141 5.85-1.72.367.367.017 1.379-.776 2.25-9.592 10.528-13.557 15.179-13.557 15.904 0 .478.828 1.62 1.841 2.536 1.985 1.796.973 2.698 15.407-13.729 3.523-4.01 3.462-5.696-.344-9.417-4.039-3.948-6.083-4.387-9.827-2.111m-276.328 2.794-4.174 3.893 3.463 4.11c8.578 10.181 14.293 15.385 15.83 14.415 2.466-1.555 2.309-2.672-.861-6.143-3.241-3.547-3.617-4.673-1.917-5.724.6-.37 2.769.965 4.82 2.969 3.593 3.508 3.792 3.574 5.4 1.797 1.572-1.737 1.49-2.088-1.409-6.03-1.694-2.303-4.134-4.451-5.423-4.775-1.29-.324-2.145-1.11-1.901-1.747.722-1.883-4.411-6.658-7.156-6.658-1.522 0-4.13 1.522-6.672 3.893m3.768 2.079c-.803 1.3 2.365 6.028 4.039 6.028 2.483 0 2.659-2.142.374-4.574-2.469-2.629-3.481-2.962-4.413-1.454m-20.11 14.674-4.736 4.735 7.915 7.353c10.671 9.914 12.038 10.823 13.919 9.262 2.31-1.917 1.801-3.667-1.935-6.647l-3.43-2.737 1.93-2.71c2.721-3.821 2.414-6.05-1.32-9.596-5.376-5.104-6.942-5.061-12.343.34m308.978-1.484c-5.66 4.242-13.385 12.298-13.385 13.959 0 2.524 6.205 9.379 8.489 9.379 1.094 0 3.965-1.84 6.379-4.089l4.39-4.088-1.774-2.707c-2.159-3.295-4.875-3.037-5.287.502-.452 3.887-7.197 6.629-7.197 2.926 0-1.818 14.029-13.247 15.546-12.665 1.244.477 1.32 1.002.4 2.723-1.553 2.9 1.167 5.944 3.823 4.279 3.019-1.893 2.684-5.318-.881-8.996-3.807-3.928-6.478-4.239-10.503-1.223m-305.953 3.949c-.859 1.388 4.553 5.832 6.29 5.165 2.032-.779 1.489-2.907-1.187-4.661-2.899-1.9-4.164-2.025-5.103-.504m208.068 88.644c-5.948.989-9.303 2.19-13.08 4.685-5.328 3.519-10.805 10.89-11.933 16.06-.36 1.65-.888 3.675-1.174 4.5-.754 2.177-.927 19.998-.194 19.999.341 0 .877 1.59 1.192 3.533 1.389 8.559 11.566 18.249 20.187 19.221 2.476.279 4.502.899 4.502 1.377 0 .479 1.8.87 4 .87s4-.387 4-.861c0-.473 2.245-1.126 4.989-1.451 2.745-.325 7.024-1.784 9.511-3.241 4.596-2.693 10.5-8.93 10.5-11.092 0-.653.45-1.338 1-1.522 1.304-.434 3.96-13.042 3.983-18.899.068-18.057-8.074-29.737-23.057-33.077-5.457-1.217-7.632-1.232-14.426-.102m-67.841.342c-11.131 1.627-19.786 7.746-24.659 17.433-2.284 4.54-2.5 6.095-2.5 17.97 0 13.691.457 15.464 5.866 22.781 3.081 4.167 10.699 8.629 15.965 9.351 2.568.352 4.669 1.029 4.669 1.504 0 1.154 9.563 1.109 11.764-.054.955-.506 4.974-1.442 8.931-2.081 3.957-.64 7.683-1.752 8.28-2.471.692-.834.984-5.976.806-14.158l-.281-12.849-8.5-.012-8.5-.011-.294 7.867-.294 7.867-5.959-.431c-7.911-.572-9.879-2.653-10.996-11.625-1.458-11.701 1.633-25.786 5.177-23.595.476.294.866.011.866-.63 0-1.506 15.777-.903 16.792.643 1.977 3.007 10.605 3.473 8.75.472-.393-.636-.292-1.698.223-2.362 1.363-1.754 3.38-12.963 2.491-13.842-.846-.836-16.305-2.931-20.23-2.742-1.389.067-5.155.506-8.367.975m135.284.267c-3.057.659-6.207 1.73-7 2.382-7.254 5.956-8.747 7.631-9.889 11.091-.756 2.289-1.129 6.637-.892 10.372.371 5.821.757 6.776 4.078 10.098 2.017 2.017 7.459 5.469 12.092 7.67 9.011 4.281 12.423 7.594 10.077 9.785-2.503 2.339-16.409.665-16.409-1.976 0-.615-.287-.833-.637-.482-.351.35-1.942-.292-3.536-1.427-3.667-2.611-5.827-1.836-5.827 2.092 0 1.667-.439 3.031-.975 3.031-.557 0-.709 1.329-.355 3.101.405 2.026.176 3.376-.66 3.893-.801.495-1.044 1.736-.647 3.315.519 2.07 1.543 2.72 5.684 3.608 2.778.596 6.154 1.083 7.502 1.083s2.451.45 2.451 1 2.25 1 5 1 5-.45 5-1 1.238-1.003 2.75-1.006c5.459-.011 10.163-2.126 15.16-6.817 2.799-2.628 5.09-5.543 5.09-6.478s.337-1.699.75-1.699c1.112 0 .591-10.436-.718-14.404-1.237-3.748-5.904-7.812-11.782-10.26-2.063-.858-3.975-1.86-4.25-2.226s-2.402-1.504-4.728-2.529c-9.825-4.333-4.597-10.987 5.829-7.417 1.869.64 3.624 1.437 3.899 1.77.988 1.199 5.533 2.679 7.136 2.325 1.211-.268 1.959-2.444 2.884-8.39 1.539-9.889 1.156-10.42-8.525-11.819-8.655-1.25-11.511-1.202-18.552.314m-283.598 33.635.155 33.999 19.649.001 19.65.001.627-4.75c.345-2.613.728-6.325.851-8.25l.223-3.5-10.5-.5-10.5-.5.391-25.25.391-25.25h-21.092zM186.001 233c0 1.1-.477 2-1.059 2s-.769.47-.414 1.044.215 1.586-.31 2.25-1.527 3.681-2.227 6.706c-.699 3.025-1.746 6.625-2.326 8s-1.123 2.95-1.206 3.5-.426 1.675-.762 2.5-1.345 4.425-2.243 8-1.98 6.95-2.406 7.5c-.425.55-1.559 4.262-2.518 8.25s-2.176 7.25-2.704 7.25-.686.862-.352 1.916.14 2.205-.432 2.559-1.041 1.516-1.041 2.584c0 1.792.768 1.941 10 1.941 9.333 0 10-.133 10-2 0-1.1.437-2 .97-2 .534 0 .871-1.687.75-3.75l-.22-3.75 9.416-.29c10.055-.309 11.496.3 10.461 4.423-.296 1.182-.053 2.449.542 2.817.595.367 1.081 1.541 1.081 2.609 0 1.798.773 1.941 10.5 1.941 8.476 0 10.5-.278 10.5-1.441 0-.793-.468-1.73-1.041-2.084-.572-.354-.767-1.505-.432-2.559.365-1.152.135-1.916-.576-1.916-.692 0-.967-.832-.661-2 .287-1.1.205-2-.184-2-.388 0-1.286-2.812-1.995-6.25-.708-3.437-1.749-6.807-2.312-7.487-.562-.681-.762-1.918-.442-2.75.319-.832.206-1.513-.252-1.513s-1.655-4.05-2.66-9-2.243-9-2.752-9c-.51 0-.691-.9-.403-2s.173-2-.254-2c-.426 0-1.319-2.762-1.983-6.137-1.981-10.07-1.65-9.863-15.794-9.863-11.592 0-12.259.109-12.259 2M332.7 248.231c-2.636 1.927-3.983 13.335-2.812 23.806 1.149 10.265 2.648 11.963 10.569 11.963 8.36 0 9.044-1.326 9.044-17.535 0-11.975-.212-13.606-2.102-16.143-1.785-2.397-2.915-2.866-7.501-3.114-3.32-.18-6.091.214-7.198 1.023M196.001 257c-.726 3.85-1.729 7-2.228 7s-.621.9-.272 2c.364 1.147.18 2-.433 2-.587 0-1.067.9-1.067 2 0 1.778.667 2 6 2 3.333 0 6-.444 6-1 0-.55-.439-1-.975-1-.55 0-.713-1.308-.375-3 .397-1.986.199-3-.588-3-.653 0-1.088-.788-.966-1.75s-.075-2.988-.437-4.5a214 214 0 0 1-1.178-5.25c-.897-4.32-2.113-2.748-3.481 4.5M74.825 334.719c-.178 4.829-.052 9.006.28 9.281.333.275 1.17 2.879 1.859 5.787s1.81 5.844 2.492 6.525c.68.681 2.03 2.907 2.998 4.948 2.192 4.619 13.058 14.898 19.338 18.294 6.579 3.558 12.501 7.111 13.852 8.311.629.558 1.417.742 1.75.408.334-.333.607-.081.607.56 0 .642.675 1.167 1.5 1.167s2.362.862 3.417 1.917c1.054 1.054 2.203 1.629 2.554 1.279s.951-.148 1.333.452c.383.599 3.105 2.386 6.05 3.971a408 408 0 0 1 9.649 5.381 465 465 0 0 0 8.646 4.884c2.393 1.312 4.682 2.887 5.086 3.5.418.636.748.685.765.116.018-.583.337-.541.765.1.404.605 5.01 3.455 10.235 6.333 11.277 6.213 17.132 9.613 18.5 10.742.55.454 3.164 1.845 5.809 3.091s5.345 2.742 6 3.325c1.728 1.538 8.528 5.554 13.441 7.939 2.337 1.135 4.25 2.493 4.25 3.017s.338.862.75.751c.891-.24 9.53 4.147 10.25 5.205.275.404 2.75 1.935 5.5 3.403s7.25 3.977 10 5.577c8.034 4.676 12.875 6.972 14.75 6.995.962.012 1.75.43 1.75.928s.849.685 1.887.413c1.038-.271 2.19-.004 2.559.594.902 1.459 20.203 1.465 21.104.006.368-.595 1.744-.811 3.059-.481 1.35.339 2.391.156 2.391-.419 0-.56.563-1.029 1.25-1.041 1.416-.025 6.889-2.698 14.25-6.962a361 361 0 0 1 9.25-5.155c2.337-1.243 4.25-2.646 4.25-3.119s.45-.582 1-.242 1 .21 1-.289 1.912-1.757 4.25-2.796 4.7-2.247 5.25-2.686c1.658-1.32 12.465-7.601 21.5-12.495 4.675-2.532 8.725-4.885 9-5.228.53-.662 8.477-5.254 13.5-7.801 1.65-.837 4.176-2.337 5.613-3.334s2.899-1.525 3.25-1.175c.35.351.637.167.637-.408s1.35-1.605 3-2.288 3-1.583 3-1.998 2.31-1.749 5.133-2.964 5.636-2.654 6.25-3.198c2.726-2.418 20.743-12.336 21.867-12.039.413.11.75-.221.75-.734s.897-1.217 1.994-1.565 2.591-1.23 3.321-1.96 3.72-2.613 6.644-4.184 6.979-3.758 9.011-4.858c12.111-6.556 21.336-17.314 26.581-31 .422-1.1.666-2.425.543-2.945-.123-.519.277-1.88.89-3.024.623-1.165.982-5.368.814-9.556l-.298-7.475-4 .349c-2.2.192-4.161.503-4.358.692s-.32 3.069-.273 6.401c.052 3.737-.33 6.058-.999 6.058-.596 0-.83.661-.52 1.469s-.089 2.721-.887 4.25c-.798 1.53-1.453 3.284-1.457 3.899-.01 1.905-8.792 14.329-12.142 17.179-1.747 1.487-6.369 4.598-10.271 6.915-3.901 2.316-7.543 4.583-8.093 5.038-1.125.929-8.723 5.314-15.5 8.947-2.475 1.326-7.425 4.167-11 6.312s-8.075 4.709-10 5.696-3.725 2.047-4 2.354c-.505.566-6.748 4.177-15 8.679-2.475 1.35-5.062 2.916-5.75 3.481-.687.564-1.257.633-1.265.153-.009-.479-.346-.372-.75.238-.404.611-2.268 1.897-4.141 2.857s-3.898 2.182-4.5 2.715c-1.828 1.619-8.78 5.591-14.56 8.319-3.006 1.419-5.706 2.951-6 3.405-.568.878-9.19 5.443-10.034 5.313-.275-.042-.841.532-1.258 1.277-.416.745-2.329 1.873-4.25 2.507-1.92.633-3.492 1.49-3.492 1.904s-2.25 1.805-5 3.093-5 2.742-5 3.23-.45.61-1 .27-1-.231-1 .242c0 .94-9.037 5.737-10.25 5.441-.413-.101-.75.232-.75.739 0 .508-1.688 1.442-3.75 2.076s-4.425 1.391-5.25 1.682c-1.897.667-23.987.696-26 .034-7.314-2.407-11-4.034-11-4.856 0-.537-.45-.698-1-.358s-1 .232-1-.24-1.57-1.426-3.49-2.12c-1.919-.694-4.056-1.816-4.75-2.494-1.157-1.132-4.445-3.108-15.26-9.172-2.2-1.233-6.25-3.505-9-5.049-2.75-1.543-5.331-3.283-5.735-3.866-.453-.653-.746-.676-.765-.059-.019.616-.313.593-.765-.06-.404-.584-4.785-3.332-9.735-6.108-16.117-9.038-18.993-10.705-19.5-11.3-.275-.323-2.412-1.431-4.75-2.461-2.338-1.031-4.25-2.283-4.25-2.782s-.45-.629-1-.289-1 .218-1-.27-2.25-1.942-5-3.23-5-2.666-5-3.062c0-.397-1.8-1.441-4-2.321s-4.002-1.942-4.004-2.359-2.027-1.59-4.5-2.607-4.496-2.281-4.496-2.809-.412-.706-.915-.395-1.065.17-1.25-.313c-.184-.484-2.585-2.078-5.335-3.543a376 376 0 0 1-9.676-5.378 577 577 0 0 0-9-5.097c-2.378-1.312-4.655-2.887-5.059-3.5-.404-.614-.741-.757-.75-.318-.026 1.386-8.392-4.899-12.608-9.472-2.225-2.415-4.687-5.838-5.471-7.608S89.146 353 88.697 353c-.447 0-.536-.45-.196-1s.2-1-.311-1-1.504-2.137-2.206-4.75c-.703-2.613-1.615-5.131-2.027-5.596-.412-.466-.514-3.442-.226-6.613.57-6.302.458-6.474-4.906-7.441l-3.675-.663zM241 409v16h14v-3c0-2.762-.278-3-3.5-3h-3.5v-26h-7zm19 0v16h7.5c5.808 0 7.5-.32 7.5-1.418 0-3.31-1.279-4.582-4.607-4.582h-3.393v-26h-7zm22.455-13.545c-2.311 2.311-2.455 3.103-2.455 13.547 0 10.712.091 11.178 2.646 13.546 3.553 3.293 10.879 3.525 11.878.377.803-2.53.897-2.446-4.024-3.59-3.335-.776-3.948-1.297-3.687-3.133.172-1.211-.166-2.202-.75-2.202-1.31 0-1.415-8.367-.136-10.764.51-.955 1.171-2.524 1.469-3.486.356-1.153 1.556-1.75 3.514-1.75 3.479 0 4.761-1.487 3.054-3.544-2.008-2.419-8.67-1.841-11.509.999m16.545 26.045c0 3.333.167 3.5 3.5 3.5s3.5-.167 3.5-3.5-.167-3.5-3.5-3.5-3.5.167-3.5 3.5"/><path fill="#32bbfe" d="M259.001 1.377c-8.188 2.468-12.667 4.399-20.124 8.677-4.057 2.328-9.97 5.722-13.14 7.543s-11.27 6.555-18 10.521a6009 6009 0 0 1-36.236 21.197c-3.85 2.233-10.15 5.936-14 8.228s-8.8 5.152-11 6.355-6.925 3.964-10.5 6.134-7.85 4.634-9.5 5.476-5.475 3.074-8.5 4.961-7.3 4.405-9.5 5.595c-7.682 4.156-23.042 13.269-28.382 16.839-12.211 8.162-24.115 24.987-27.31 38.597-.698 2.977-1.314 16.429-1.52 33.25L50.94 203l-2.22.031c-1.221.017-9.195.705-17.72 1.529-8.525.823-18.532 1.769-22.238 2.102-6.554.588-9.603 2.168-8.29 4.294.447.721 85.189 1.044 273.98 1.044 252.623 0 273.382-.125 273.965-1.643.346-.904.411-1.862.144-2.129-.267-.268-3.99-.873-8.273-1.347-11.988-1.324-38.527-3.819-40.972-3.852l-2.184-.029-.378-30.25-.379-30.25-2.995-7.5c-6.704-16.788-16.595-27.559-35.024-38.14-3.642-2.091-30.961-18.024-38.856-22.661-3.3-1.939-7.35-4.256-9-5.149a125 125 0 0 1-5.5-3.187c-2.318-1.448-26.372-15.583-35.5-20.86l-10-5.78c-6.553-3.787-8.983-5.207-18-10.52-3.3-1.944-10.275-5.975-15.5-8.957a5399 5399 0 0 1-16.704-9.575C295.985 2.496 290.097.763 276.001.37c-8.564-.239-13.917.078-17 1.007m6.226 17.683c-5.961 1.052-10.068 2.998-26.895 12.744-6.507 3.769-13.327 7.718-15.156 8.774-1.829 1.057-7.454 4.33-12.5 7.272s-12.1 7.048-15.675 9.123c-8.678 5.037-20.366 11.86-38.5 22.478-8.25 4.83-18.15 10.606-22 12.835s-8.575 4.987-10.5 6.127a259 259 0 0 1-6.257 3.58c-10.892 5.953-28.47 16.772-31.888 19.628-5.547 4.635-9.653 10.477-13.268 18.879l-3.012 7-.36 26.75c-.357 26.511-.342 26.75 1.712 26.75 2.036 0 2.073-.405 2.073-22.441 0-13.882.38-22.677 1-23.059.656-.405 1 7.432 1 22.768v23.386l2.75-.319c7.229-.837 32.997-4.407 34.89-4.835 5.237-1.182 2.443-7.5-3.317-7.5-3.655 0-5.99-1.606-7.142-4.911-1.996-5.725 1.072-10.862 7.816-13.088 3.519-1.161 4.583-1.061 10.215.966 6.797 2.445 9.346 4.133 18.995 12.575 7.756 6.787 12.81 8.458 25.578 8.458 7.367 0 11.26.573 17.849 2.627 7.585 2.365 9.496 2.574 19.146 2.091 12.718-.637 17.12-1.813 21.642-5.783 4.143-3.638 5.049-6.873 3.178-11.349-1.935-4.631-4.914-6.36-13.937-8.086-9.011-1.724-11.278-2.957-12.645-6.879-4.168-11.955 6.771-22.178 19.937-18.633 4.994 1.345 13.55 9.342 16.384 15.315 2.072 4.366 7.248 12.268 10.738 16.394 7.028 8.307 16.946 11.239 31.334 9.264 8.047-1.105 9.777-1.051 15.089.477 3.3.948 8.064 3.038 10.588 4.643 3.791 2.413 5.655 2.919 10.746 2.919 13.474 0 27.363-7.199 44.166-22.892 8.638-8.068 19.877-15.981 27.386-19.281 6.14-2.699 7.71-2.982 14.5-2.619 9.685.518 15.178 3.773 17.756 10.524 1.574 4.123 1.575 4.74.001 9.732-2.022 6.415-4.221 8.059-13.331 9.969-3.984.835-7.251 2.13-8.018 3.179-1.687 2.307-1.643 2.736.556 5.451 1.845 2.279 1.865 2.28 7.816.611 10.519-2.952 16.255-2.13 29.834 4.271 6.691 3.154 9.473 3.878 17 4.422 4.95.358 10.35.866 12 1.127 1.65.262 5.624.647 8.831.855l5.831.379-.331-27.614-.331-27.614-4.14-8.618c-5.247-10.92-11.23-16.809-25.555-25.153-5.882-3.426-11.957-6.967-13.5-7.869-7.56-4.419-33.508-19.545-38.805-22.621a2100 2100 0 0 1-18-10.548 1512 1512 0 0 0-20-11.614c-6.512-3.71-22.801-13.253-25.5-14.94a125 125 0 0 0-5.5-3.187c-1.65-.893-5.925-3.346-9.5-5.449-15.223-8.958-26.998-15.342-30.136-16.339-5.012-1.591-16.651-2.158-22.638-1.102m1.274 5.94c-.393.635 2.343 1 7.5 1s7.893-.365 7.5-1c-.34-.55-3.715-1-7.5-1s-7.16.45-7.5 1m-21.736 7.868c-2.604 1.447-4.742 2.938-4.75 3.312s2.123-.49 4.736-1.919c5.578-3.052 5.71-3.145 5.167-3.643-.229-.211-2.548.802-5.153 2.25m53.236-2.453c0 .227 2.25 1.798 5 3.49s4.994 2.743 4.986 2.336c-.015-.758-9.986-6.576-9.986-5.826m-4.573 9.106c1.06.802 2.172 1.214 2.471.914.628-.627-1.912-2.412-3.398-2.388-.55.009-.133.673.927 1.474m23.688 2.293c3.053 2.322 15.053 8.775 12.385 6.66C327.199 46.649 316.013 40 315.245 40c-.283 0 .559.816 1.871 1.814m-90.374 1.56c-5.393 3.316-5.938 4.223-1.059 1.763 2.3-1.16 4.464-2.565 4.809-3.123.863-1.396.544-1.281-3.75 1.36m75.737 1.175c2.066 1.403 3.952 2.354 4.192 2.114.482-.482-5.953-4.663-7.178-4.663-.424 0 .919 1.147 2.986 2.549m-64.725 3.399c-2.611 1.404-4.749 2.858-4.75 3.232-.002.373 2.134-.49 4.747-1.919 5.509-3.014 5.721-3.161 5.167-3.563-.229-.166-2.553.846-5.164 2.25m-19.326.531c-1.06.801-1.477 1.465-.927 1.474 1.486.024 4.026-1.761 3.398-2.388-.299-.3-1.411.112-2.471.914m95.573 2.337c0 .475 1.125 1.376 2.5 2.002 1.375.627 2.5.976 2.5.776s-1.125-1.101-2.5-2.002-2.5-1.25-2.5-.776m-107 4.234-2.5 2.005 2.75-1.188c1.512-.653 2.75-1.566 2.75-2.028 0-1.14-.139-1.084-3 1.211m131-1.132c0 .595.364 1.082.809 1.082s3.437 1.583 6.649 3.517c3.213 1.935 6.022 3.336 6.244 3.114s-1.195-1.354-3.149-2.517l-7.053-4.196c-1.925-1.144-3.5-1.594-3.5-1m-114.75 2.302c-1.238.597-2.25 1.483-2.25 1.968 0 1.026 3.596-.725 4.503-2.193.731-1.182.648-1.174-2.253.225m99.25-.352c1.909 1.884 13.5 8.019 13.5 7.145 0-.483-.866-1.153-1.924-1.489-1.059-.336-3.421-1.626-5.25-2.866-3.728-2.528-7.945-4.387-6.326-2.79m-125.472 4.681C195.12 61.897 193.942 63 194.411 63c1.008 0 7.59-3.973 7.59-4.582 0-.917-1.665-.203-4.972 2.131m18.222.44c-1.787 1.09-3.25 2.25-3.25 2.578 0 .471 6.016-2.752 7.917-4.241 1.568-1.228-2.025.052-4.667 1.663m-26 4c-3.35 2.043-4.617 3.833-1.5 2.119 2.322-1.276 5.881-4.037 5.25-4.072-.275-.016-1.963.863-3.75 1.953m167.25-.502c2.262 1.888 10.544 6.265 9 4.756-.55-.537-3.25-2.203-6-3.701s-4.1-1.973-3-1.055m-84.491 2.492c-4.306.409-5.526.903-5.649 2.291-.102 1.151.005 1.254.306.296.328-1.044 2.268-1.56 6.648-1.77 3.403-.163 5.736-.53 5.186-.817s-3.471-.286-6.491 0m-72.009 3.071-2.5 2.005 2.75-1.188c1.512-.653 2.75-1.566 2.75-2.028 0-1.14-.139-1.084-3 1.211m106.247 7.45c-.104 9.825-.081 9.931 1.34 6.05.796-2.172 1.25-4.422 1.009-5-.241-.577-.553-.15-.694.95s-.546-1.15-.902-5c-.638-6.905-.648-6.864-.753 3m38.753-8.684c0 .475 1.125 1.376 2.5 2.002 1.375.627 2.5.976 2.5.776s-1.125-1.101-2.5-2.002-2.5-1.25-2.5-.776m-88.361 3.146c.988 1.991 1.906 2.903 2.158 2.146.242-.724-.532-2.282-1.719-3.462L254.92 68.5zm22.361-1.692c0 1.059-1.102 1.74-3.25 2.007l-3.25.403 3.281.16c3.118.152 5.419-1.973 3.843-3.55-.343-.343-.624.098-.624.98m36.25-.257c1.444.897 1.75 2.572 1.75 9.596 0 5.873.337 8.301 1.087 7.837.598-.369.865-1.521.594-2.559-.272-1.038-.086-1.887.413-1.887.498 0 .899-1.013.891-2.25-.012-1.774-.212-1.939-.944-.782-.645 1.02-1.022-.349-1.235-4.491-.26-5.068-.605-6.002-2.306-6.254-1.828-.271-1.85-.203-.25.79m-73.583.654c-.98.98-.813 4.333.216 4.333.486 0 1.099-1.125 1.362-2.5.463-2.422-.209-3.202-1.578-1.833m80 0c-.367.366-.653 1.379-.637 2.25.027 1.361.171 1.343 1.03-.131.795-1.363 1.518-1.517 3.535-.75 3.447 1.311 3.861 1.218 2.405-.536-1.27-1.53-5.129-2.038-6.333-.833m45.333-.249c0 .58 6.558 4.582 7.508 4.582.424 0-.887-1.125-2.913-2.5-3.635-2.467-4.595-2.902-4.595-2.082m-194.5 4.308c-8.555 4.863-9.375 6.289-1 1.738 7.943-4.315 7.983-4.341 7.417-4.806-.229-.188-3.117 1.193-6.417 3.068m181.715-.226c2.023 1.375 4.015 2.5 4.426 2.5s-.777-1.125-2.641-2.5-3.856-2.5-4.426-2.5.617 1.125 2.641 2.5m-164.187 1.049C188.12 76.897 186.942 78 187.411 78c1.008 0 7.59-3.973 7.59-4.582 0-.917-1.665-.203-4.972 2.131m136 .877c-1.567 4.121-1.066 5.536.604 1.708.808-1.852 1.234-3.602.946-3.889-.287-.287-.985.694-1.55 2.181m21.972-.01c0 .4.708 1.434 1.572 2.299.986.986 1.352 2.451.981 3.929-.331 1.32-.143 2.356.428 2.356 1.818 0 1.081-5.634-.981-7.5-1.1-.995-2-1.483-2-1.084m30 .388c0 .481 1.154 1.401 2.564 2.043 1.464.667 2.298.738 1.944.166-.907-1.468-4.508-3.232-4.508-2.209m-105 1.409c0 .433 1.35.787 3 .787 2.333 0 3 .444 3 2s-.667 2-3 2c-2.762 0-3 .278-3 3.5 0 3.425.087 3.5 4.059 3.5 2.52 0 3.819-.389 3.425-1.026-.349-.564-1.838-.902-3.309-.75-2.116.218-2.742-.194-2.995-1.974-.258-1.821.16-2.25 2.191-2.25 3.073 0 4.011-1.341 3.201-4.571-.502-1.997-1.175-2.415-3.595-2.23-1.637.124-2.977.581-2.977 1.014m-89.75 1.007c-1.238.597-2.25 1.483-2.25 1.968 0 1.026 3.596-.725 4.503-2.193.731-1.182.648-1.174-2.253.225m179.242-.233c.907 1.468 4.508 3.232 4.508 2.209 0-.481-1.154-1.401-2.564-2.043-1.464-.667-2.298-.738-1.944-.166M242.016 80.25c.009.688.452 1.925.985 2.75.755 1.169.973.893.985-1.25.008-1.513-.435-2.75-.985-2.75s-.993.563-.985 1.25m24.555 6c.38 3.987.857 7.437 1.06 7.667s.37-3.034.37-7.25c0-4.737-.405-7.667-1.061-7.667-.713 0-.834 2.373-.369 7.25m75.097-6.583c-1.215 1.214-.691 2.28.833 1.695.825-.317 1.5-.978 1.5-1.469 0-1.048-1.378-1.182-2.333-.226m-83.906.91c-.321.52.051 1.814.828 2.875 1.515 2.072 1.74 1.246.513-1.886-.416-1.063-1.02-1.508-1.341-.989m129.257 1.735c4.821 3.201 15.936 9.107 13.482 7.163C397.752 87.298 385.292 80 384.324 80c-.433 0 .78 1.04 2.695 2.312M154.674 84.92c-9.196 5.165-10.974 7.227-2.173 2.519 6.06-3.242 10.925-6.53 9.464-6.397-.255.024-3.536 1.768-7.291 3.878m49.827-3.201c1.1.268 2.787 1.186 3.75 2.039 2.175 1.929 2.322.957.179-1.187-.865-.864-2.552-1.519-3.75-1.455-2.027.108-2.04.15-.179.603m-6.639 2.33-2.361 2.05 3.25-1.575c3.198-1.55 4.109-2.524 2.361-2.524-.489 0-1.952.922-3.25 2.049m169.806-1.382c-1.017 1.016-.795 2.333.392 2.333.582 0 .781-.45.441-1-.794-1.284.078-1.267 2.816.055 2.11 1.019 2.118 1.002.243-.5-2.139-1.713-2.895-1.886-3.892-.888m-6.86 2.083c-2.205 2.568-3.038 4.25-2.103 4.25.452 0 1.266-.998 1.809-2.217s2.112-2.525 3.487-2.901c2.155-.588 2.211-.696.405-.782-1.152-.055-2.771.687-3.598 1.65m-193.054 3.626c-3.161 1.718-5.749 3.418-5.75 3.778-.004.834 10.765-4.97 11.537-6.219.705-1.141 1.147-1.328-5.787 2.441m82.914-2.709c-1.106 1.105-.749 5.333.45 5.333.624 0 .886-.882.593-2-.287-1.1-.115-2 .384-2 .498 0 .906.873.906 1.941s.45 2.219 1 2.559c1.46.902 1.162-2.702-.392-4.75-1.452-1.912-1.935-2.09-2.941-1.083m123.913.463c.306.494 2.438 1.847 4.738 3.007 5.408 2.727 5.211 2.407 3.294 5.332-.912 1.392-1.198 2.531-.635 2.531s1.03-.338 1.038-.75.431-1.407.939-2.21c.793-1.254 1.206-1.205 2.918.344 1.096.992 1.785 2.549 1.53 3.46s.076.627.736-.631c1.048-1.997.898-2.505-1.182-4-3.627-2.608-14.007-8.104-13.376-7.083M243.756 88.5c.263 1.375.651 2.5.862 2.5s.383-1.125.383-2.5-.388-2.5-.861-2.5c-.474 0-.647 1.125-.384 2.5m99.245-1.667c0 .642-.99 1.167-2.2 1.167-1.718 0-1.936.264-.993 1.207s1.576.839 2.891-.476c.925-.926 1.372-1.994.992-2.374-.379-.38-.69-.165-.69.476M300.358 91c.135 4.254.307 4.511 3.143 4.696 2.79.183 2.825.145.5-.54-1.947-.574-2.642-1.613-3.143-4.697l-.643-3.959zm48.203-1.382c-.922 3.674-.191 3.893 1.148.344.615-1.629.756-2.962.314-2.962-.443 0-1.101 1.178-1.462 2.618m-153.56 2.191c0 .445.712 1.682 1.582 2.75 1.447 1.776 1.532 1.785 1 .109-.32-1.007-.582-2.245-.582-2.75s-.45-.918-1-.918-1 .364-1 .809m-9 2.191c.589 1.1 1.574 2 2.19 2s.305-.9-.69-2-1.981-2-2.19-2 .101.9.69 2m-10.139 1.056c-2.237 1.949-2.246 2.001-.167.995 1.207-.584 2.471-1.509 2.809-2.056.983-1.591-.094-1.158-2.642 1.061m-39.861.994-2.5 2.005 2.75-1.188c1.512-.653 2.75-1.566 2.75-2.028 0-1.14-.139-1.084-3 1.211m95.347-.735c.526 1.492.263 1.696-1.479 1.143-1.424-.452-1.894-.31-1.434.435.876 1.417 3.249 1.429 4.12.02.369-.598.105-1.611-.588-2.25-.988-.911-1.122-.77-.619.652m13.769.376c-.145 2.746 1.339 3.726 3.626 2.394 1.587-.925 1.547-1.027-.419-1.055-1.214-.017-2.379-.804-2.634-1.78-.353-1.351-.483-1.251-.573.441m5.884.309c0 1.867.267 2.133 1.2 1.2s.933-1.467 0-2.4-1.2-.667-1.2 1.2m3-.977c0 .572.694 1.306 1.543 1.632 2.346.9 2.621-.072.412-1.451-1.238-.773-1.955-.839-1.955-.181m155.017-.219c.009.383 3.272 2.435 7.25 4.56s6.783 3.395 6.233 2.822c-1.559-1.623-13.502-8.162-13.483-7.382M393.501 97c.34.55.214 1-.28 1-.495 0-1.418 1.237-2.051 2.75-1.137 2.711-1.13 2.718.461.5 1.859-2.592 3.617-2.862 5.314-.817.933 1.124.828 2.041-.486 4.25l-1.675 2.817 2.029-2.263c1.117-1.245 2.213-2.811 2.435-3.479.294-.881 1.142-.733 3.079.536 1.471.964 2.674 1.36 2.674.881s-1.803-1.684-4.006-2.678c-2.203-.993-4.508-2.411-5.122-3.151-1.287-1.551-3.298-1.844-2.372-.346m-178 2c.399 1.375 1.175 2.95 1.725 3.5q1 1 .275-1.5c-.399-1.375-1.175-2.95-1.725-3.5q-1-1-.275 1.5m101.5-1c1.939 1.253 3 1.253 3 0 0-.55-1.012-.993-2.25-.985-1.819.013-1.963.201-.75.985m40.503.005c.67 1.084 6.497 4.33 6.497 3.619 0-.234-1.602-1.372-3.56-2.527s-3.28-1.646-2.937-1.092m-228.761 1.909c-3.476 2.229-4.338 3.086-3.103 3.086.535 0 2.497-1.125 4.361-2.5 3.848-2.839 2.926-3.268-1.258-.586m50.258-.296c0 .55.661 1.873 1.468 2.941.808 1.067 1.468 1.491 1.468.941s-.66-1.874-1.468-2.941c-.807-1.068-1.468-1.491-1.468-.941m174.2.582c-1.751 1.751-1.47 3.269.33 1.775 1.19-.988 2.132-1.011 4.25-.106l2.72 1.163-2.361-2.016c-2.746-2.345-3.316-2.439-4.939-.816m-208.95 1.789c-1.787 1.09-3.25 2.25-3.25 2.578 0 .471 6.016-2.752 7.917-4.241 1.568-1.228-2.025.052-4.667 1.663m80.409-.049c1.768 1.901 2.674 2.171 5 1.487l2.841-.836-3.496-.377c-1.923-.208-4.173-.877-5-1.487s-.532-.065.655 1.213m-31.662 2.81c1.308 1.787 2.535 3.25 2.726 3.25.76 0-1.72-3.751-3.36-5.082-1.08-.878-.838-.179.634 1.832m13.367-1.244c3.618 1.887 4.17 1.885 2.279-.006-.825-.825-2.32-1.497-3.322-1.494-1.301.005-1.003.433 1.043 1.5m133.077.044c2.15 1.606 3.979 1.939 3.134.571-.299-.484-1.563-1.137-2.809-1.451-2.186-.55-2.198-.519-.325.88m45.035.525c-.755 2.38-.709 2.452 2.15 3.329 1.594.489 2.255.16 2.641-1.316.444-1.698.261-1.81-1.331-.816-2.324 1.452-3.638.278-1.956-1.748.777-.936.858-1.524.21-1.524-.58 0-1.352.934-1.714 2.075m-223.726.683c-1.512.938-2.75 2.064-2.75 2.504s1.331-.186 2.958-1.389c2.475-1.83 3.214-1.975 4.523-.889 1.325 1.1 1.468 1.047.935-.343-.794-2.068-2.188-2.039-5.666.117m-44.5 2.347c-2.888 1.683-5.25 3.256-5.25 3.494 0 .731 9.816-4.492 10.488-5.58.889-1.438.631-1.335-5.238 2.086m260.028-1.855c-1.954 2.527-2.621 4.08-1.438 3.349 1.184-.732 3.553-4.599 2.818-4.599-.227 0-.848.563-1.38 1.25m-242.463 2.785c-2.027 1.07-3.989 2.438-4.36 3.038-.761 1.231 3.99-1.106 7.045-3.465 2.683-2.072 1.772-1.927-2.685.427m269.138 2.708-3.152 4.757 3.405-3.889c3.103-3.545 3.61-3.78 5.72-2.651 1.464.784 2.067.837 1.639.145-.372-.602-1.528-1.55-2.568-2.107-1.613-.863-2.356-.311-5.044 3.745m27.055-3.884c.005.352 2.255 1.83 5 3.282 2.746 1.453 4.988 2.353 4.984 2-.005-.352-2.255-1.83-5-3.282-2.746-1.453-4.988-2.353-4.984-2m-265.258 1.713c-3.255 1.766-3.362 2.451-.865 5.535 1.614 1.992 2.118 2.136 3.495.993.885-.735 2.585-1.081 3.778-.769 2.006.525 2.046.445.537-1.065-1.51-1.51-1.771-1.507-3.47.03-1.714 1.551-1.951 1.549-3.53-.03-1.591-1.59-1.527-1.829 1.056-3.943 3.192-2.614 2.873-2.853-1.001-.751m188.972.502c1.222 1.273 2.474 2.063 2.781 1.756.308-.308-.692-1.349-2.222-2.315l-2.781-1.756zm58.731-1.149c.371.599 2.045 1.798 3.72 2.665 1.676.866 2.744 1.085 2.374.485-.371-.599-2.045-1.798-3.72-2.665-1.676-.866-2.744-1.085-2.374-.485m-257.31.965c-1.711 1.084-.861 3.695 2.477 7.61 2.266 2.658 2.419 2.715 1.34.5-.669-1.375-1.896-3.279-2.727-4.231-1.225-1.406-1.272-2.017-.249-3.25 1.416-1.706 1.161-1.897-.841-.629m29.298.578c-2.486 1.88-.713 1.902 2.559.032 1.602-.916 1.94-1.442.941-1.465-.857-.019-2.432.626-3.5 1.433m26.309-.779c-.963.252-1.75.875-1.75 1.384 0 1.343 1.337 1.139 3.559-.541 1.945-1.471 1.461-1.697-1.809-.843m-21.107 2.97c.387 1.542.016 2.294-1.3 2.634-1.538.396-1.48.494.348.591 2.892.153 3.574-1.149 1.827-3.487-1.362-1.822-1.397-1.811-.875.262m-84.879 2.209c-2.604 1.447-4.742 2.938-4.75 3.312s2.124-.49 4.736-1.919c5.578-3.052 5.71-3.145 5.167-3.643-.229-.211-2.548.802-5.153 2.25m278.091-2.07c1.124.787 1.062 1.443-.358 3.826l-1.714 2.876 2.141-2.401c2.304-2.584 2.309-4.242.014-4.863-1.182-.319-1.197-.219-.083.562m-11.762 2.424c-1.153 1.847-1.089 2.308.479 3.455.996.727 2.737 1.282 3.869 1.233q2.065-.09-1.191-1.029c-3.488-1.007-3.934-1.797-2.067-3.664.651-.651.972-1.396.712-1.655-.259-.259-1.07.488-1.802 1.66m48.99-1.896c1.901 1.489 7.917 4.712 7.917 4.241 0-.753-6.186-4.558-7.417-4.563-.504-.002-.729.143-.5.322M121.001 115.5c-1.864 1.375-3.017 2.5-2.562 2.5.988 0 7.562-3.983 7.562-4.582 0-1.01-1.858-.236-5 2.082m268.182 1c-.627 1.375-.976 2.5-.776 2.5s1.101-1.125 2.002-2.5 1.25-2.5.776-2.5c-.475 0-1.376 1.125-2.002 2.5m57.818.304c0 .481 1.154 1.401 2.564 2.043 1.464.667 2.298.738 1.944.166-.907-1.468-4.508-3.232-4.508-2.209m-352.5 3.532C90.727 123.258 83.256 131 84.21 131c.243 0 2.884-2.363 5.87-5.25s6.327-5.76 7.425-6.383 1.77-1.356 1.496-1.63c-.275-.274-2.3.896-4.5 2.599m45.608 1.257c-2.809 2.526-5.089 4.888-5.065 5.25.062.958 7.951 9.795 7.954 8.91.002-.411-1.668-2.597-3.71-4.857l-3.712-4.109 4.284-3.997c3.439-3.208 4.862-3.911 7.213-3.566 3.113.457 3.994-.601 1.346-1.617-2.588-.993-2.984-.803-8.31 3.986m30.642-3.513c-2.251 1.311-2.223 3.182.079 5.265 2.107 1.907 3.171 2.107 3.171.596 0-.582-.427-.795-.95-.472s-1.458-.362-2.079-1.523c-.923-1.725-.796-2.363.7-3.496 2.139-1.621 1.599-1.838-.921-.37m244.556 1.446-2.806 2.527 3.5-1.931c4.035-2.225 6.131-1.736 10.25 2.394 1.512 1.516 2.75 2.321 2.75 1.788 0-1.391-7.598-7.304-9.386-7.304-.826 0-2.765 1.137-4.308 2.526m15.694-1.12c0 .2 1.125 1.101 2.5 2.002s2.5 1.25 2.5.776c0-.475-1.125-1.376-2.5-2.002-1.375-.627-2.5-.976-2.5-.776m-245.949 2.342c1.431 1.003 2.423 1.068 3.932.261 1.109-.594 2.016-1.176 2.014-1.294s-1.771-.236-3.932-.261c-3.565-.042-3.751.077-2.014 1.294m194.422-.704c-.739 1.196 1.243 3.956 2.841 3.956.587 0 .239-.607-.776-1.348-1.014-.742-1.523-1.867-1.132-2.5.392-.634.487-1.152.212-1.152s-.79.47-1.145 1.044M161.501 122c.995 1.1 1.981 2 2.19 2s-.101-.9-.69-2-1.574-2-2.19-2-.305.9.69 2m240.198 1.25c-2.809 3.8-3.972 5.75-3.427 5.75.215 0 1.844-2.025 3.622-4.5s3.001-4.5 2.72-4.5-1.593 1.463-2.915 3.25m56.268 2.133c5.411 5.561 7.554 7.248 4.911 3.867-3.263-4.173-6.519-7.45-8.377-8.429-1.1-.58.46 1.473 3.466 4.562m-305.523-2.446c.964 1.065 1.457 2.415 1.096 3s-.18 1.063.402 1.063 1.059-.48 1.059-1.066c0-1.819-2.014-4.934-3.19-4.934-.616 0-.331.872.633 1.937m253.807 6.142c-2.887 3.246-5.25 6.512-5.25 7.257s.908 2.176 2.017 3.18c1.967 1.779 2.095 1.752 5.092-1.095 1.69-1.607 3.984-4.271 5.096-5.921s-.283-.586-3.1 2.365c-4.272 4.475-5.37 5.16-6.614 4.128-2.114-1.755-1.854-3.563.892-6.203 3.959-3.806 8.881-9.796 7.971-9.701-.47.048-3.217 2.744-6.104 5.99m-262.733-4.107c-.803 1.3 2.365 6.028 4.039 6.028 2.282 0 2.76-2.119.867-3.846-1.701-1.551-1.73-1.544-.476.12.736.976 1.052 2.061.702 2.411-1.004 1.003-4.777-2.91-4.216-4.372.587-1.528-.038-1.761-.916-.341m274.761.278c-2.444 3.16-2.346 4.023.198 1.75 1.924-1.719 2.938-2.108 3.247-1.244.246.691.867.998 1.379.681s.672-.994.355-1.506c-.83-1.343-4.047-1.145-5.179.319m-319.706 5.221c-3.01 3.009-5.98 6.497-6.602 7.75-.623 1.253.128.704 1.669-1.221s4.839-5.408 7.331-7.739c2.491-2.332 4.202-4.244 3.802-4.25-.401-.006-3.191 2.451-6.2 5.46m66.283-3.971c1.399 2.518 4.784 6.5 5.526 6.5.971 0 9.608-6.344 9.197-6.755-.216-.216-2.346 1.027-4.735 2.762l-4.343 3.154-3.378-3.83c-1.858-2.107-2.878-2.931-2.267-1.831m249.627 8.123c-3.29 3.642-6.111 7.158-6.269 7.811-.158.654.742 2.061 2 3.128l2.287 1.938-1.75-2.079c-.962-1.143-1.75-2.392-1.75-2.775s2.7-3.599 6-7.146c5.299-5.696 6.678-7.5 5.732-7.5-.148 0-2.96 2.98-6.25 6.623m-22.48-3.908c-.001.118.851.671 1.893 1.229 1.377.737 2.198.649 3.003-.322.885-1.066.504-1.314-1.892-1.229-1.651.059-3.002.204-3.004.322m-230.146 2.689c2.052 2.741 2.079 3.01.48 4.778-1.643 1.815-1.812 1.76-5.426-1.769-2.051-2.004-4.22-3.339-4.82-2.969-1.7 1.051-1.324 2.177 1.917 5.724 3.237 3.545 3.342 4.594.63 6.261-1.359.835-1.962.687-2.733-.667-.544-.955-1.983-2.251-3.197-2.879-1.817-.941-1.689-.59.73 1.987 3.386 3.609 4.611 3.839 6.908 1.301 2.185-2.414 2.159-2.527-1.478-6.67-1.723-1.962-2.803-3.891-2.4-4.285s2.283 1.069 4.177 3.251c3.603 4.152 5.271 4.2 7.777.227.838-1.328.458-2.241-1.842-4.433l-2.897-2.761zm-79.475-.154a148 148 0 0 1-2.174 3.5c-.79 1.238-1.02 2.25-.507 2.25.51 0 1.68-1.575 2.599-3.5 1.587-3.33 1.645-4.902.082-2.25m382.772 1.186c.642 1.41 1.562 2.564 2.043 2.564 1.023 0-.741-3.601-2.209-4.508-.572-.354-.501.48.166 1.944m-12.522.758c1.146 1.269 3.273 4.098 4.727 6.288 1.453 2.19 2.642 3.572 2.642 3.07 0-1.545-6.411-10.443-7.976-11.071-.916-.367-.686.283.607 1.713M123.501 138c-2.148 2.2-3.575 4-3.17 4s2.331-1.594 4.28-3.543c2.694-2.695 4.063-3.387 5.716-2.89 3.008.904 8.487 6.287 8.988 8.83.374 1.903.427 1.878.55-.263.165-2.86-7.307-10.134-10.411-10.134-1.126 0-3.805 1.8-5.953 4m309.072-1.057c-5.298 4.21-10.838 9.349-12.518 11.61-.795 1.071 1.005-.343 4-3.141 11.364-10.617 13.405-11.298 18.648-6.216 1.814 1.758 3.298 2.875 3.298 2.483 0-1.223-7.103-7.679-8.448-7.679-.702 0-2.943 1.324-4.98 2.943m-12.626 1.807-3.446 3.75 3.75-3.446c2.063-1.896 3.75-3.583 3.75-3.75 0-.764-.846-.044-4.054 3.446m-252.946 1.954c-2.601.912-4 3.548-4 7.535 0 3.265.728 4.587 4.75 8.622 4.718 4.733 6.294 7.114 8.205 12.389 2.264 6.253 7.045 1.351 7.044-7.223-.001-11.633-9.09-23.746-15.999-21.323m-36 2.902c1.375 1.592 2.613 3.082 2.75 3.311s.25-.282.25-1.135c0-.854-1.238-2.344-2.75-3.311l-2.75-1.759zm222.5-.947c-7.266 3.824-13.256 12.344-14.132 20.102-.646 5.731 1.116 8.855 4.407 7.81 1.168-.37 2.379-1.482 2.693-2.47.867-2.733 7.669-7.762 12.425-9.187 4.641-1.39 7.118-4.749 7.092-9.614-.02-3.563-1.001-5.077-4.449-6.866-3.425-1.777-4.278-1.753-8.036.225m77 4.786c-5.58 5.095-6.751 6.647-5.77 7.653.989 1.015 1.722.998 3.75-.087 1.386-.742 2.52-1.793 2.52-2.335s-.872-.197-1.937.767-2.452 1.434-3.082 1.045c-1.81-1.118 3.931-6.485 6.956-6.503 1.67-.01 2.124-.295 1.302-.816-1.803-1.145 3.11-5.633 5.262-4.807.93.357 1.346.2.992-.373-1.178-1.906-3.05-.883-9.993 5.456m-342.917-2.802c-.952 2.483.098 2.822 1.37.443.615-1.148.7-2.086.189-2.086s-1.212.739-1.56 1.643m30.875-.575c-.363.587 1.298 2.719 3.691 4.736 7.461 6.292 9.851 8.972 9.851 11.046 0 1.103 1.109 2.825 2.463 3.827 1.355 1.003 4.457 3.301 6.893 5.108s4.983 4.619 5.658 6.25c2.335 5.635 6.997 2.815 6.976-4.219-.013-4.357-3.967-12.593-7.752-16.146-3.014-2.83-9.818-5.159-10.735-3.675-.475.768 4.465 4.6 5.539 4.297.299-.085.615.807.704 1.981.166 2.212-1.35 4.727-2.851 4.727-1.546 0-19.896-17.189-19.329-18.106.304-.492.327-.894.052-.894s-.797.48-1.16 1.068m352.125.932c.741 2.785 1.214 3.536 1.835 2.915.23-.23-.239-1.542-1.042-2.917l-1.459-2.498zm-32.11.044c-.355.574.063 2.126.93 3.448.874 1.334 1.165 2.657.655 2.972-.506.313-1.202.111-1.548-.448-.345-.559-1.107-1.016-1.691-1.016-.633 0-.516.661.29 1.631 1.183 1.426.804 2.118-3.006 5.5-2.398 2.128-3.879 3.869-3.291 3.869s1.365-.477 1.725-1.06c.421-.681 1.077-.483 1.837.556 1.074 1.469 1.451 1.475 4.154.067 1.848-.963 4.169-1.326 6.137-.961 2.611.486 3.445.16 4.772-1.866 2.027-3.093 1.236-5.215-2.525-6.772-2.49-1.032-2.749-1.457-1.678-2.753 1.121-1.356 1.017-1.377-.903-.182-1.821 1.134-2.43 1.134-3.795.001-.895-.743-1.396-1.953-1.113-2.69.609-1.587-.029-1.786-.95-.296m-271.047.837c.7 1.132 5.574 2.083 5.574 1.087 0-.889-2.544-1.968-4.641-1.968-.812 0-1.232.396-.933.881m151.737 3.967c-3.301 3.083-4.506 6.317-3.991 10.704.403 3.429 2.754 4.447 3.519 1.522.307-1.175 2.527-3.29 4.934-4.7 3.555-2.083 4.375-3.102 4.375-5.434 0-1.814-.712-3.251-1.934-3.905-2.832-1.515-3.539-1.33-6.903 1.813m-66.892-.753c-4.079 1.509-5.585 5.297-5.04 12.682.591 8.031 4.54 15.601 9.713 18.622 3.265 1.907 3.358 1.908 4.715.052.762-1.041 1.094-2.582.738-3.422-1.593-3.762-2.23-10.091-1.689-16.787.486-6.005.291-7.585-1.125-9.151-2.145-2.369-4.537-3.022-7.312-1.996m219.729 1.287c0 .825.45 1.778 1 2.118s1-.057 1-.882-.45-1.778-1-2.118-1 .057-1 .882M98.618 151.87c-1.414 1.564-1.496 2.303-.494 4.5.659 1.447 1.688 2.677 2.288 2.734.599.058 2.784.211 4.855.34s4.893.838 6.27 1.575c5.687 3.044 5.276-3.475-.527-8.358-3.873-3.259-9.815-3.638-12.392-.791m153.464 2.979c-1.633 3.052-1.295 3.902.521 1.309.881-1.258 1.368-2.522 1.081-2.808s-1.007.388-1.602 1.499m-47.628 3.241c-1.617 3.127-1.374 5.91.516 5.91.567 0 1.031-1.155 1.031-2.566s.466-3.436 1.035-4.5c.688-1.284.696-1.934.026-1.934-.555 0-1.729 1.391-2.608 3.09m187.917-.65c-3.953 1.721-5.829 4.255-2.276 3.076 2.984-.991 7.097-.988 12.757.008 4.695.827 7.063-.717 4.969-3.24-1.414-1.704-11.407-1.603-15.45.156m71.289 1.76c.842 4.422 1.341 4.803 1.341 1.026 0-1.71-.443-3.382-.985-3.717-.615-.38-.749.63-.356 2.691m-182.408.829c-7.93 4.548-13.329 14.001-9.711 17.004 1.436 1.192 2.105 1.121 4.814-.509 2.35-1.414 5.424-1.957 12.143-2.145 8.313-.232 9.167-.45 11.25-2.871 3.174-3.69 2.925-7.99-.67-11.585-4.109-4.109-10.542-4.071-17.826.106m8.249.971c.34.55 1.518 1 2.618 1s1.722-.45 1.382-1-1.518-1-2.618-1-1.722.45-1.382 1m139.423 13.923c-2.926 2.926-3.898 7.357-1.886 8.6.57.352 2.867.331 5.105-.047 6.754-1.141 9.975-6.216 6.287-9.905-2.437-2.436-6.261-1.893-9.506 1.352m-111.478-.955c-3.359 1.346-8.296 7.721-9.037 11.671-1.235 6.581 3.934 7.913 13.246 3.414 3.712-1.793 6.346-5.34 6.346-8.544 0-1.937-4.081-6.241-6.5-6.855-1.1-.28-2.925-.138-4.055.314m-207.751.671c-.352.352-.438.967-.191 1.366.573.927 5.35.042 6.071-1.124.617-.999-4.896-1.225-5.88-.242m52.506.561c-1.949 1.949-1.479 6.577.738 7.28 1.067.339 3.303 2.169 4.97 4.068 3.502 3.989 4.696 4.276 5.623 1.354 1.019-3.209-2.11-10.222-5.436-12.187-3.443-2.034-4.301-2.109-5.895-.515m35.228.837c-3.337 1.235-4.568 3.569-4.239 8.039.411 5.577 3.496 7.904 11.437 8.624 4.579.415 6.22.19 7.196-.986 1.937-2.333.431-6.27-4.235-11.071-4.503-4.633-7.011-5.77-10.159-4.606m122.572 1.463c0 .825.45 1.5 1 1.5s1-.675 1-1.5-.45-1.5-1-1.5-1 .675-1 1.5m122.938 9.563c-3.031 3.03-2.036 4.094 4.271 4.568 5.024.377 5.711.197 6.298-1.652.362-1.141.116-2.728-.547-3.527-1.798-2.167-7.598-1.814-10.022.611m-348.327 1.509c-.926 2.413 1.02 5.125 4.103 5.714 3.352.64 4.286.163 4.286-2.19 0-3.992-7.07-6.962-8.39-3.524m172.639 42.117c.962.252 2.538.252 3.5 0 .962-.251.175-.457-1.75-.457s-2.712.206-1.75.457m15.5.017c1.238.238 3.262.238 4.5 0 1.238-.239.225-.434-2.25-.434s-3.488.195-2.25.434m134.5-.017c.962.252 2.538.252 3.5 0 .962-.251.175-.457-1.75-.457s-2.712.206-1.75.457M117.233 234c0 1.925.206 2.713.457 1.75.252-.963.252-2.537 0-3.5-.251-.963-.457-.175-.457 1.75m22.123 5.5c-.003 4.95.166 7.101.376 4.78.209-2.321.212-6.371.005-9-.206-2.629-.378-.73-.381 4.22m45.342-7.107c-.409 1.041-.508 2.129-.221 2.417.913.912 1.715-.583 1.333-2.482-.35-1.74-.404-1.737-1.112.065m135.62 2.605c-4.221 3.105-9.886 9.766-9.032 10.62.268.268 1.488-1.133 2.713-3.114 1.224-1.981 4.531-5.154 7.35-7.053 2.819-1.898 4.657-3.451 4.086-3.451-.572 0-2.875 1.349-5.117 2.998m38.183-.572c1.65 1.41 3.326 2.566 3.723 2.569.398.003 2.311 2.361 4.25 5.242s3.527 4.72 3.527 4.089c0-2.079-7.654-10.791-11.11-12.645l-3.39-1.819zm70.3-1.226c.66.66 1.232 2.122 1.27 3.25.07 2.027.08 2.028.877.05.841-2.086-.377-4.5-2.269-4.5-.702 0-.66.418.122 1.2m-176.494 2.326-2.806 2.527 3.75-2.125c3.785-2.145 4.535-2.928 2.806-2.928-.52 0-2.207 1.137-3.75 2.526m137.512 1.506c-3.535 3.463-3.655 3.683-.665 1.215 2.009-1.659 4.259-3.231 5-3.494s1.04-.81.665-1.215c-.376-.405-2.626 1.167-5 3.494m-146.745 7.603c-1.908 2.425-2.651 4.365-1.672 4.365.221 0 1.331-1.575 2.466-3.5 2.45-4.151 2.094-4.538-.794-.865m164.689 2.072c1.244.239 3.044.23 4-.02s-.062-.446-2.262-.435-2.982.216-1.738.455m-130.564.824c1.032 1.032 6.802 2.318 6.802 1.516 0-.448-1.012-1.085-2.25-1.417-2.803-.751-5.258-.805-4.552-.099m55.245.887c-1.067.78-1.709 1.649-1.426 1.932.282.282 1.631-.346 2.998-1.396 2.846-2.187 1.373-2.689-1.572-.536m11.648-.136c.875.67 2.319 2.568 3.21 4.218.957 1.774 1.635 2.34 1.659 1.385.05-2.025-3.704-6.896-5.283-6.853-.69.018-.519.535.414 1.25m38.353 2.164c-.356 1.896-.186 4.708.376 6.25.894 2.453 1.032 2.021 1.101-3.446.088-6.941-.494-8.045-1.477-2.804m33.554-2.07c1.375.803 2.687 1.272 2.917 1.042.621-.621-.13-1.094-2.915-1.835l-2.5-.666zm-236.827 2.563c-.649 1.862-.966 3.6-.703 3.862.667.667 2.676-4.869 2.24-6.176-.196-.589-.888.452-1.537 2.314m84.496-1.123c-.904.998-1.894 3.361-2.201 5.25l-.558 3.434 1.432-3.759c.787-2.068 1.988-4.431 2.668-5.25 1.764-2.126.627-1.851-1.341.325m140.412-.637c-.043.923.628 2.385 1.492 3.25 2.14 2.139 3.11 1.997 1.214-.179-.838-.963-1.772-2.425-2.076-3.25-.45-1.225-.566-1.192-.63.179M118.408 272c0 9.075.152 12.788.337 8.25s.185-11.962 0-16.5-.337-.825-.337 8.25m230.865-12c0 2.475.195 3.488.434 2.25.238-1.238.238-3.262 0-4.5-.239-1.238-.434-.225-.434 2.25m64.728-3.142c0 1.028 3.029 2.446 3.729 1.747.243-.244-.496-.945-1.643-1.559s-2.086-.699-2.086-.188M238.337 266c0 4.125.177 5.813.392 3.75s.216-5.437 0-7.5c-.215-2.062-.392-.375-.392 3.75m68.1-3.508c-.361 1.92-.209 5.632.336 8.25.974 4.674.994 4.613 1.11-3.492.126-8.787-.379-10.448-1.446-4.758m115.674-1.199c4.993 3.378 5.89 3.881 5.89 3.302 0-.736-7.271-5.595-8.372-5.595-.499 0 .618 1.032 2.482 2.293M329.273 264c0 2.475.195 3.488.434 2.25.238-1.238.238-3.262 0-4.5-.239-1.238-.434-.225-.434 2.25m-190.828 8.5.056 9 10.658.5c5.862.275 10.447.163 10.191-.25-.257-.413-4.924-.75-10.37-.75h-9.904l-.344-8.75-.343-8.75zm246.556-9.222c0 .191 1.408 1.67 3.13 3.285 2.609 2.448 2.937 2.566 1.977.71-.965-1.864-5.107-5.105-5.107-3.995m-184 2.163c0 .793.45 1.719 1 2.059s1-.309 1-1.441-.45-2.059-1-2.059-1 .648-1 1.441m86.484 2.534c.372.6 2.297.964 4.279.808 3.091-.243 3.712.073 4.366 2.217.716 2.345.751 2.314.567-.5-.186-2.846-.444-3.016-5.041-3.309-3.313-.211-4.632.037-4.171.784m-114.313 2.964c-.649 1.862-.966 3.6-.703 3.862.667.667 2.676-4.869 2.24-6.176-.196-.589-.888.452-1.537 2.314m18.829-.939c0 1.778.667 2 6 2 3.3 0 6-.375 6-.832 0-.458-2.482-.627-5.517-.375-4.787.397-5.434.243-4.893-1.168.345-.897.128-1.625-.483-1.625-.609 0-1.107.9-1.107 2m84.667-1.333c-.367.366-.667 3.704-.667 7.416 0 4.465-.423 6.921-1.25 7.255-.687.277-.272.54.924.583 2.031.074 2.195-.445 2.5-7.923.309-7.581.042-8.88-1.507-7.331m72.483 4.133c-.163 4.671-2.517 10.2-4.342 10.2-.628 0-.844.297-.481.661.363.363 1.555-.149 2.647-1.138 2.231-2.019 3.405-6.753 2.757-11.115-.327-2.208-.467-1.874-.581 1.392m81.394-1.8c.423 1.375.723 4.648.668 7.274-.065 3.121.266 4.548.957 4.121 1.424-.88.522-11.121-1.117-12.68-1.026-.977-1.126-.725-.508 1.285m-208.544.382c0 .825.45 1.778 1 2.118s1-.057 1-.882-.45-1.778-1-2.118-1 .057-1 .882m172-.876c0 .551 5.62 3.494 6.673 3.494 1.022 0-2.697-2.495-4.923-3.302-.962-.35-1.75-.436-1.75-.192m-132.532 5.191c.452 3.139 3.185 7.303 4.793 7.303.449 0-.113-.998-1.25-2.219s-2.503-3.582-3.036-5.25l-.968-3.031zm143.532.352c.825.56 2.4 1.478 3.5 2.041 1.572.804 1.495.583-.361-1.034-1.298-1.131-2.873-2.049-3.5-2.041s-.464.474.361 1.034m-34.884 1.119c-.064.918-.375 2.493-.692 3.5-.545 1.736-.515 1.739.568.051.628-.98.939-2.555.691-3.5-.406-1.549-.462-1.554-.567-.051m12.506 3.657c-.443 1.279-.539 2.592-.213 2.917 1.036 1.037 1.765-.492 1.385-2.906l-.368-2.336zm-141.622 2.914c0 1.946 7.94 11.179 10.955 12.738 4.924 2.546 4.827 1.684-.177-1.589-2.597-1.699-6.085-5.145-7.75-7.66-1.665-2.514-3.028-4.084-3.028-3.489m126 .417c0 2.209-5.216 7.975-9.844 10.882-2.561 1.608-4.206 2.917-3.656 2.908 2.678-.044 8.927-5.009 12.75-10.129 2.984-3.997 3.282-4.817 1.75-4.817-.55 0-1 .52-1 1.156m-198.708 2.882c-.615 1.629-.756 2.962-.314 2.962.822 0 2.399-4.956 1.775-5.58-.189-.189-.846.989-1.461 2.618m141.713-2.482c.005 1.013 4.899 7.318 4.959 6.388.02-.305-1.089-2.08-2.464-3.944s-2.498-2.964-2.495-2.444m71.662 2.111c-1.038 1.037-.784 4.333.333 4.333.55 0 1-1.125 1-2.5 0-2.618-.231-2.936-1.333-1.833m-194.293 1.8c-.309.807-.325 2.044-.036 2.75.332.808.781.45 1.211-.967.639-2.1 1.243-2.25 9.068-2.25 6.785 0 8.383.286 8.383 1.5 0 .825.498 1.5 1.107 1.5s.834-.712.5-1.582-.607-1.77-.607-2-4.289-.418-9.531-.418c-7.455 0-9.654.32-10.095 1.467m-28.624 1.865c-.412 1.007-.736 3.482-.72 5.5.025 3 .218 3.346 1.06 1.901.566-.972.889-3.447.719-5.5-.231-2.789-.499-3.27-1.059-1.901m265.25 2.805c-2.475 2.228-3.6 3.597-2.5 3.043 1.853-.934 8.417-7.233 7.437-7.137-.24.023-2.462 1.865-4.937 4.094m-105.234 1.733c1.796 1.721 3.769 3.13 4.385 3.13s-.179-.981-1.766-2.179c-5.087-3.843-5.97-4.163-2.619-.951m-111.766 1.012c0 1.1.45 2.278 1 2.618s1-.282 1-1.382-.45-2.278-1-2.618-1 .282-1 1.382m-20.985 1.368c.013 1.819.201 1.963.985.75 1.253-1.939 1.253-3 0-3-.55 0-.993 1.012-.985 2.25m91.494 2.735c-.38.615.63.749 2.691.356 4.422-.842 4.803-1.341 1.026-1.341-1.71 0-3.382.443-3.717.985m52.991.015c2.731 1.174 3.5 1.174 3.5 0 0-.55-1.238-.968-2.75-.93-2.437.063-2.522.168-.75.93m11.5 0c0 1.187 1.737 1.187 4.5 0 1.676-.72 1.474-.871-1.25-.93-1.788-.038-3.25.38-3.25.93m50-.617c0 .211 1.125.599 2.5.862s2.5.09 2.5-.384c0-.473-1.125-.861-2.5-.861s-2.5.173-2.5.383m15 .636c0 .605 1.117.751 2.75.359 3.926-.941 4.058-1.378.417-1.378-1.742 0-3.167.459-3.167 1.019M.677 316.403c-1.324 3.45 1.529 4.395 16.686 5.523 8.174.609 19.087 1.641 24.25 2.293L51 325.405v10.816c0 12.457 2.278 22.709 7.173 32.279 7.54 14.741 15.239 21.606 40.327 35.955a971 971 0 0 1 15.5 9.093c4.125 2.484 9.3 5.433 11.5 6.553s6.338 3.468 9.196 5.218c5.487 3.359 16.958 10.158 21.396 12.681l7.523 4.277c2.687 1.527 9.385 5.474 14.885 8.772s12.475 7.357 15.5 9.021 7.975 4.569 11 6.457 6.625 4.006 8 4.707c2.784 1.419 8.9 4.966 19.729 11.439 17.485 10.453 26.193 13.288 40.885 13.312 10.661.018 17.648-1.143 23.828-3.958 2.446-1.115 4.772-2.027 5.168-2.027s7.282-3.881 15.304-8.624a4881 4881 0 0 1 23.586-13.859c4.95-2.88 14.625-8.521 21.5-12.537a6771 6771 0 0 1 22-12.794c5.225-3.021 11.525-6.706 14-8.188s6.75-3.99 9.5-5.572 6.35-3.671 8-4.642 5.025-2.911 7.5-4.312c2.475-1.4 6.075-3.501 8-4.667 1.925-1.167 7.775-4.601 13-7.631 23.672-13.728 27.605-16.425 34.302-23.524 6.639-7.037 10.41-13.168 14.239-23.15 2.315-6.034 2.753-8.938 3.178-21.043l.493-14.043 10.144-1.221c5.579-.671 16.824-1.74 24.988-2.375 13.572-1.055 14.912-1.333 15.625-3.236.475-1.27.341-2.369-.345-2.817-.618-.404-123.813-.741-273.767-.75-233.041-.013-272.721.189-273.181 1.388m74.309 17.73c-.011 5.772-.316 7.902-.985 6.867-.533-.825-.976-4.312-.985-7.75-.014-5.704-.201-6.25-2.143-6.25-2.072 0-2.115.286-1.605 10.75.418 8.569 1.087 12.17 3.3 17.75 5.027 12.678 10.497 18.408 26.433 27.688 5.775 3.363 12.075 7.109 14 8.324 1.925 1.216 6.875 4.138 11 6.494s9.975 5.728 13 7.494c3.025 1.765 10 5.818 15.5 9.006 9.811 5.687 15.967 9.27 25.314 14.733a400 400 0 0 0 8.186 4.651c1.925 1.051 6.425 3.749 10 5.996s8.111 4.914 10.081 5.927c3.301 1.698 10.378 5.808 31.419 18.247 21.791 12.883 29.325 15.125 43.896 13.064 8.672-1.226 12.777-3.282 49.104-24.593a5392 5392 0 0 1 24.5-14.296c4.675-2.701 11.2-6.494 14.5-8.43 3.3-1.937 12.975-7.567 21.5-12.513s18.875-10.995 23-13.442 8.175-4.779 9-5.182c.825-.402 3.975-2.257 7-4.121s9.325-5.523 14-8.131c18.343-10.23 25.128-16.367 30.312-27.416 3.533-7.532 4.635-12.997 4.664-23.141l.024-8.64-3.669-.429c-2.019-.235-5.956-.096-8.75.311-2.795.406-13.333 1.254-23.419 1.884s-18.997 1.398-19.803 1.708c-.808.309-1.329 1.514-1.162 2.684.228 1.597 1.405 2.389 4.749 3.195 8.274 1.994 10.522 9.824 4.456 15.518-2.125 1.994-3.546 2.394-8.235 2.314-6.761-.114-11.84-2.731-20.718-10.676-10.268-9.189-12.059-9.892-27.449-10.773-7.425-.425-15.289-1.313-17.475-1.973-5.946-1.795-29.073-.879-33.214 1.316-10.407 5.516-7.412 18.697 4.589 20.201 11.588 1.452 15.1 4.107 15.1 11.417 0 3.151-2.828 10.084-4.114 10.084-.409 0-1.531.788-2.493 1.75-1.307 1.307-3.309 1.732-7.903 1.679-5.183-.059-6.771-.532-10.072-3-2.155-1.611-4.071-3.275-4.257-3.697-.187-.422-.912-1.34-1.612-2.04-1.343-1.343-9.549-14.556-9.549-15.376 0-.264-1.584-2.413-3.521-4.776-7.633-9.316-15.52-12.1-29.754-10.503-9.816 1.1-17.835-.18-23.136-3.696-2.747-1.821-5.85-2.858-9.454-3.159-12.828-1.073-25.411 4.847-41.234 19.398-11.902 10.945-16.041 14.092-24.283 18.463-14.567 7.725-29.772 4.61-33.563-6.875-1.088-3.299-1.064-4.644.15-8.302 1.763-5.31 5.802-8.311 13.28-9.863 6.212-1.289 8-2.935 7.097-6.533-.878-3.499-2.922-4.019-7.34-1.868-6.36 3.097-14.296 2.451-24.205-1.971-9.208-4.108-10.176-4.273-33.037-5.62-8.525-.503-16.513-1.213-17.75-1.579-2.206-.652-2.25-.503-2.265 7.701m358.488-1.089c-.355.574.079 2.149.964 3.5 3.019 4.608 9.088 2.175 6.524-2.616-1.118-2.09-6.36-2.709-7.488-.884m-100.223.568c-3.2 1.42-.433 9.373 4.791 13.769 4.805 4.043 8.96 3.222 11.948-2.36 1.622-3.03-.64-7.628-4.7-9.554-3.823-1.814-9.991-2.764-12.039-1.855M463.856 336c-.617 3.496-.361 4.84.716 3.763.313-.314.42-2.076.236-3.917l-.334-3.346zm-356.777-.595c-3.02 3.64 3.106 7.586 7.915 5.099 5.803-3.001 5.1-4.912-2.147-5.842-3.281-.421-4.983-.202-5.768.743m123.253 1.532c-4.467 2.028-6.331 4.484-6.331 8.342 0 4.311 5.684 7.552 10.22 5.827 2.96-1.125 8.78-9.524 8.78-12.67 0-3.905-5.847-4.597-12.669-1.499m137.669 3.457c0 7.054 7.03 13.176 10.8 9.406.66-.66 1.2-1.87 1.2-2.69 0-1.489-9.703-11.11-11.205-11.11-.437 0-.795 1.977-.795 4.394m-285-2.012c0 .825.45 1.778 1 2.118s1-.057 1-.882-.45-1.778-1-2.118-1 .057-1 .882m40.5 4.787c-2.601 1.509-3.466 2.855-3.485 5.426-.017 2.357 2.874 5.405 5.127 5.405 2.393 0 6.922-5.446 7.149-8.597.191-2.65-.096-2.924-3.291-3.148-1.925-.135-4.4.276-5.5.914m349.229.435c-.401.401-.729 1.419-.729 2.263 0 1.125.296 1.237 1.113.421.611-.612.94-1.63.729-2.263s-.712-.822-1.113-.421M74 344.385c0 .212.7 1.9 1.556 3.75 1.13 2.447 1.407 2.683 1.014.865-.298-1.375-.548-3.062-.555-3.75-.008-.687-.464-1.25-1.014-1.25s-1 .173-1 .385m211.356 1.133c-.321.836-.057 3.608.586 6.161.731 2.906.918 7.512.499 12.318-.657 7.532-.618 7.718 2.08 9.84 3.374 2.654 4.559 2.696 7.369.259 4.715-4.089 4.92-12.529.518-21.258-2.232-4.426-6.897-8.838-9.343-8.838-.62 0-1.389.683-1.709 1.518m-15.355 4.169c-3.794 2.016-5.48 2.312-10.745 1.89-5.811-.466-6.419-.313-8.75 2.201-3.089 3.332-3.217 7.388-.337 10.701 4.797 5.516 14.184 4.079 21.892-3.35 4.334-4.177 4.94-5.262 4.94-8.838 0-2.35-.529-4.271-1.25-4.536-.687-.252-3.275.617-5.75 1.932m117.035-.753c-2.714 5.072.922 16.327 6.899 21.357 6.321 5.318 14.378 2.099 12.598-5.034-.766-3.068-3.258-6.241-4.937-6.286-1.733-.047-7.318-5.534-9.059-8.902-1.813-3.505-3.992-3.954-5.501-1.135m34.965 1.022-2.5.757 2.835.773c2.069.565 3.274.333 4.464-.856 1.506-1.507 1.481-1.622-.335-1.53-1.08.055-3.089.44-4.464.856m36.135 3.231c-1.283 2.23-1.835 3.746-1.227 3.37 1.241-.767 4.427-6.555 3.899-7.083-.187-.187-1.389 1.484-2.672 3.713m-97.578 2.036c-2.363 3.373-1.984 11.754.819 18.092 3.825 8.649 11.555 12.477 15.067 7.462 2.861-4.083 1.956-7.254-3.961-13.885-3.034-3.401-5.796-7.356-6.137-8.788-.692-2.901-2.163-5.104-3.411-5.104-.451 0-1.521 1-2.377 2.223m-155.334 3.357c-2.38 2.534-6.637 5.598-9.595 6.906-6.013 2.659-8.277 6.281-7.146 11.43.538 2.453 1.427 3.276 4.542 4.209 5.012 1.502 8.677.056 13.562-5.352 4.499-4.979 6.581-9.852 6.581-15.401 0-7.855-1.857-8.274-7.944-1.792m-125.177.506c.614 1.147 1.315 1.886 1.559 1.643.699-.7-.72-3.729-1.747-3.729-.511 0-.426.938.188 2.086M92 358.427c0 .34 1.902 2.681 4.227 5.204 4.602 4.992 12.773 11.06 12.773 9.484 0-.539-1.013-1.298-2.25-1.687s-5.062-3.612-8.5-7.163c-3.437-3.55-6.25-6.177-6.25-5.838m357.331 6.196c-6.539 6.769-6.099 7.412.678.99 3.235-3.065 7.063-8.031 5.776-7.494-.157.066-3.061 2.993-6.454 6.504m16.184-2.904-1.756 2.781 2.315-2.222c1.273-1.222 2.063-2.474 1.756-2.781-.308-.308-1.349.692-2.315 2.222M337.646 361c-.269.825-.786 3.273-1.148 5.44-.57 3.408-.459 3.773.824 2.709 2.014-1.672 2.948-5.847 1.775-7.937-.814-1.45-1.036-1.483-1.451-.212m-108.895 4.965c-4.745 4.615-5.813 7.572-3.55 9.835 2.071 2.071 4.483 1.325 7.749-2.395 2.622-2.986 3.105-4.286 2.854-7.672-.167-2.243-.753-4.147-1.303-4.233s-3.137 1.924-5.75 4.465m193.518-2.833c-3.709 3.709 6.822 12.851 12.415 10.778 1.214-.451 2.324-.41 2.5.091.175.495 1.442-.008 2.817-1.117 2.414-1.948 2.419-1.978.155-.865-2.15 1.057-2.288.974-1.659-1.005 1.042-3.284-1.993-6.014-6.686-6.014-2.134 0-4.904-.671-6.155-1.49-1.669-1.094-2.57-1.195-3.387-.378m-300.768.923c-1.1.442-3.662.836-5.693.875-4.202.08-7.304 3.224-5.895 5.975.45.877.635 2.102.411 2.722s.35 1.417 1.276 1.773c1.351.518 1.455.37.526-.749-.959-1.156-.477-1.378 2.812-1.291 3.107.081 4.631-.53 7.016-2.815 4.342-4.16 4.053-8.303-.453-6.49m28.75-.393c-1.88.759-1.503 3.132.684 4.303 2.888 1.545 8.543 1.252 12.532-.65 4.333-2.066 4.679-3.61.482-2.147-2.38.829-3.985.708-7.283-.552-4.515-1.724-4.508-1.723-6.415-.954m105.611.231c1.241.786 5.139.4 5.139-.51 0-.21-1.462-.376-3.25-.368-2.21.011-2.814.292-1.889.878M86.551 368.27c1.623 2.074 4.525 5.022 6.45 6.551 4.277 3.397 15.456 9.725 14.528 8.224-.368-.596-2.869-2.198-5.558-3.56-2.69-1.363-7.922-5.292-11.63-8.731-4.94-4.584-5.952-5.247-3.79-2.484m372.783.98c-2.196 2.337-5.531 5.505-7.412 7.039s-2.521 2.366-1.421 1.848c2.803-1.32 11.333-8.956 12.555-11.239 1.535-2.869.668-2.321-3.722 2.352M369.501 378c.34.55 1.266 1 2.059 1s1.441-.45 1.441-1-.927-1-2.059-1-1.781.45-1.441 1m-251.057.908c.767 1.241 6.555 4.427 7.083 3.899.187-.187-1.484-1.389-3.713-2.672s-3.746-1.835-3.37-1.227m304.232 3.273c-3.753 2.202-6.633 4.194-6.399 4.428s3.02-1.138 6.193-3.048 6.277-3.656 6.899-3.88c.623-.224.907-.654.632-.955s-3.571 1.254-7.325 3.455m21.421-1.467c-2.001.792-8.517 5.286-7.664 5.286.916 0 9.568-5.06 9.568-5.595 0-.453.034-.458-1.904.309m-316.661 3.181c.372.602 1.606 1.592 2.741 2.199 1.48.792 1.874.795 1.389.011-.372-.602-1.606-1.592-2.741-2.199-1.48-.792-1.874-.795-1.389-.011m304.815 3.325c-1.238.597-2.25 1.483-2.25 1.968 0 1.026 3.596-.725 4.503-2.193.731-1.182.648-1.174-2.253.225m-25.509 4.154c-5.393 3.316-5.938 4.223-1.059 1.763 2.3-1.16 4.464-2.565 4.809-3.123.863-1.396.544-1.281-3.75 1.36m-265.741.524c0 .781 7.038 4.397 7.554 3.881.169-.169-1.462-1.276-3.623-2.46s-3.931-1.824-3.931-1.421m140.494 3.108c-2.556 2.825-1.468 3.087 1.22.295 1.218-1.266 1.85-2.301 1.405-2.301s-1.626.903-2.625 2.006m135.248 1.496c-3.167 1.713-6.317 3.711-7 4.44s1.908-.386 5.758-2.478c7.898-4.291 7.989-4.349 7.417-4.77-.229-.168-3.008 1.096-6.175 2.808m-22.242 2.024c-2.2 1.355-3.55 2.464-3 2.465 1.211.002 7.5-3.752 7.5-4.476 0-.743-.103-.697-4.5 2.011m-103-.721c-1.65.192-3.411.748-3.914 1.236-.847.822 6.362.151 7.331-.683.807-.694-.45-.898-3.417-.553m-157.5.999c0 .481 1.154 1.401 2.564 2.043 1.464.667 2.298.738 1.944.166-.907-1.468-4.508-3.232-4.508-2.209m133.343 6.696c.003 4.4.179 6.076.39 3.724s.209-5.952-.006-8-.388-.124-.384 4.276m-58.343-3.5c-2.554 2.554-2.645 8.106-.171 10.345 2.136 1.934 9.2 2.226 10.971.455 1.751-1.751 1.5-9.358-.371-11.229-2.235-2.234-8.003-1.997-10.429.429m119.655-.171c-1.934 2.136-2.226 9.2-.455 10.971 1.751 1.751 9.358 1.5 11.229-.371 2.189-2.19 2.034-8.7-.258-10.774-2.471-2.237-8.424-2.138-10.516.174m-170.655-.025c0 .481 1.154 1.401 2.564 2.043 1.464.667 2.298.738 1.944.166-.907-1.468-4.508-3.232-4.508-2.209M279.35 409c0 4.675.173 6.587.383 4.25s.211-6.163 0-8.5c-.21-2.337-.383-.425-.383 4.25m107.512-5.984-2.361 2.016 2.75-1.176c1.512-.648 2.75-1.555 2.75-2.017 0-1.247-.535-1.047-3.139 1.177m-244.311.912c1.831 1.788 13.45 7.955 13.45 7.139 0-.453-1.319-1.371-2.932-2.039s-4.4-2.297-6.194-3.621c-3.174-2.342-6.304-3.412-4.324-1.479m143.117-.261c-1.068 1.067-.769 10.333.333 10.333.55 0 1-2.475 1-5.5 0-5.562-.131-6.036-1.333-4.833m117.583.553c-1.238.597-2.25 1.477-2.25 1.956s1.125.133 2.5-.768c3.668-2.403 3.539-3.015-.25-1.188m-237.75 1.975c1.1.624 2.331 1.623 2.735 2.22.506.747.739.707.75-.13.008-.668-.855-1.68-1.919-2.25-2.632-1.408-4.073-1.261-1.566.16m211.528 2.354c-1.909 1.348-3.087 2.451-2.618 2.451 1.008 0 7.59-3.973 7.59-4.582 0-.917-1.665-.203-4.972 2.131m-207.028.349c0 .781 7.038 4.397 7.554 3.881.169-.169-1.462-1.276-3.623-2.46s-3.931-1.824-3.931-1.421m223.25.847c-1.788.89-3.25 2.023-3.25 2.518 0 .698 5.477-2.026 7.917-3.937 1.154-.904-1.81-.002-4.667 1.419m-23 2.475c-1.238.597-2.25 1.477-2.25 1.956s1.125.133 2.5-.768c3.668-2.403 3.539-3.015-.25-1.188m-191.25 1.596c0 .475 1.125 1.376 2.5 2.002 1.375.627 2.5.976 2.5.776s-1.125-1.101-2.5-2.002-2.5-1.25-2.5-.776m-15 2.448c.825.789 4.65 3.135 8.5 5.214 3.85 2.078 6.325 3.114 5.5 2.303s-4.65-3.158-8.5-5.214-6.325-3.093-5.5-2.303m216 1.786-2.5 2.005 2.75-1.188c1.512-.653 2.75-1.566 2.75-2.028 0-1.14-.139-1.084-3 1.211m-93.204.119c1.28 1.229 8.204 2.11 8.204 1.043 0-.556-2.004-1.17-4.454-1.365s-4.136-.05-3.75.322m-97.87 1.543c3.656 2.695 14.795 8.685 13.074 7.031-.825-.793-4.65-3.102-8.5-5.13s-5.908-2.884-4.574-1.901m62.265-.987c3.298.347 3.733.729 4.09 3.582.384 3.074.405 3.053.559-.557l.16-3.75-4.25.168-4.25.168zm19.046-.032c3.182.363 3.88.9 4.702 3.617l.965 3.19-.202-3.5c-.198-3.432-.289-3.502-4.702-3.617-3.829-.099-3.942-.053-.763.31m81.438 4.439c-3.753 2.229-6.574 4.302-6.268 4.609.306.306 2.252-.605 4.325-2.025 2.072-1.419 5.006-3.133 6.518-3.809 1.512-.675 2.75-1.606 2.75-2.068 0-1.116.416-1.303-7.325 3.293m-71.675-2.211c0 1.023 3.895 4.517 4.434 3.978.232-.232-.67-1.395-2.006-2.585s-2.428-1.816-2.428-1.393m90.028 2.628c-1.909 1.348-3.087 2.451-2.618 2.451 1.008 0 7.59-3.973 7.59-4.582 0-.917-1.665-.203-4.972 2.131m-188.028 2.857c0 .2 1.125 1.101 2.5 2.002s2.5 1.25 2.5.776c0-.475-1.125-1.376-2.5-2.002-1.375-.627-2.5-.976-2.5-.776m181.25.814c-1.238.597-2.25 1.477-2.25 1.956s1.125.133 2.5-.768c3.668-2.403 3.539-3.015-.25-1.188m-170.191 6.047c12.007 7.211 15.177 8.923 14.507 7.839-.386-.624-2.584-2.089-4.884-3.255s-4.407-2.449-4.682-2.851c-.586-.858-8.582-5-9.651-5-.402 0 1.717 1.47 4.71 3.267m16.941-1.451c0 .475 1.125 1.376 2.5 2.002 1.375.627 2.5.976 2.5.776s-1.125-1.101-2.5-2.002-2.5-1.25-2.5-.776m124.742 1.098c-4.36 2.795-4.569 3.433-.492 1.496 2.063-.979 3.75-2.147 3.75-2.595 0-1.012.075-1.037-3.258 1.099m11.758 4.214c-9.34 5.368-10.838 7.133-2 2.355 6.043-3.267 10.944-6.597 9.464-6.431-.255.029-3.614 1.863-7.464 4.076m-127.154.461c2.095 1.424 4.023 2.375 4.284 2.114.532-.532-5.881-4.703-7.23-4.703-.475 0 .85 1.165 2.946 2.589m9.154 4.898c2.262 1.888 10.544 6.265 9 4.756-.55-.537-3.25-2.203-6-3.701s-4.1-1.973-3-1.055m87.5 1.563-2.5 2.005 2.75-1.188c1.512-.653 2.75-1.566 2.75-2.028 0-1.14-.139-1.084-3 1.211m16.25 1.17c-1.238.597-2.25 1.477-2.25 1.956s1.125.133 2.5-.768c3.668-2.403 3.539-3.015-.25-1.188m-115.242 1.639c.005.352 2.255 1.83 5 3.282 2.746 1.453 4.988 2.353 4.984 2-.005-.352-2.255-1.83-5-3.282-2.746-1.453-4.988-2.353-4.984-2m21.992 1.926c0 .861 6.993 4.555 7.557 3.992.17-.171-1.461-1.328-3.624-2.573s-3.933-1.884-3.933-1.419m85.25.96c-1.788.89-3.25 2.023-3.25 2.518 0 .698 5.477-2.026 7.917-3.937 1.154-.904-1.81-.002-4.667 1.419m-22.497 2.203c-2.611 1.404-4.749 2.858-4.75 3.232-.002.373 2.134-.49 4.747-1.919 5.509-3.014 5.721-3.161 5.167-3.563-.229-.166-2.553.846-5.164 2.25m-51.753 2.938c0 .822 5.023 3.424 5.565 2.883.168-.169-1.015-1.065-2.63-1.991s-2.935-1.328-2.935-.892m-15.565 2.009c.372.602 1.606 1.592 2.741 2.199 1.48.792 1.874.795 1.389.011-.372-.602-1.606-1.592-2.741-2.199-1.48-.792-1.874-.795-1.389-.011m76.426 1.161c-2.237 1.949-2.246 2.001-.167.995 1.207-.584 2.471-1.509 2.809-2.056.983-1.591-.094-1.158-2.642 1.061M261.501 460c.34.55 1.293 1 2.118 1s1.222-.45.882-1-1.293-1-2.118-1-1.222.45-.882 1m22 0c-.34.55.057 1 .882 1s1.778-.45 2.118-1-.057-1-.882-1-1.778.45-2.118 1m-43.417.326c1.901 1.489 7.917 4.712 7.917 4.241 0-.753-6.186-4.558-7.417-4.563-.504-.002-.729.143-.5.322m60.917 3.174c-1.864 1.375-3.052 2.5-2.641 2.5s2.403-1.125 4.426-2.5 3.212-2.5 2.641-2.5c-.57 0-2.562 1.125-4.426 2.5m-9.25 4.189c-.962.252-1.75.89-1.75 1.42 0 .553.954.465 2.25-.209 3.75-1.951 3.612-2.285-.5-1.211M260.501 470c.34.55 1.293 1 2.118 1s1.222-.45.882-1-1.293-1-2.118-1-1.222.45-.882 1m24 0c-.34.55.057 1 .882 1s1.778-.45 2.118-1-.057-1-.882-1-1.778.45-2.118 1m-14.25 1.728c2.063.216 5.438.216 7.5 0 2.063-.215.375-.392-3.75-.392s-5.812.177-3.75.392"/></g><defs><clipPath id="a"><path fill="#32bbfe" d="M0 0h548v496H0z"/></clipPath></defs></svg>